SplineFontDB: 3.0
FontName: FrankHandwritingLight
FullName: Frank Handwriting Light
FamilyName: Frank Handwriting
Weight: Light
Copyright: Created with the help of MyScriptFont.com\nCopyright belongs to the Creator.
Version: 001.000
ItalicAngle: 0
UnderlinePosition: -100
UnderlineWidth: 50
Ascent: 800
Descent: 200
InvalidEm: 0
sfntRevision: 0x00010000
LayerCount: 2
Layer: 0 0 "Back" 1
Layer: 1 0 "Fore" 0
XUID: [1021 668 1240808111 7515861]
StyleMap: 0x0000
FSType: 0
OS2Version: 4
OS2_WeightWidthSlopeOnly: 0
OS2_UseTypoMetrics: 1
CreationTime: 1277802766
ModificationTime: 1491011879
PfmFamily: 17
TTFWeight: 300
TTFWidth: 5
LineGap: 90
VLineGap: 0
Panose: 2 0 2 3 0 0 0 0 0 0
OS2TypoAscent: 800
OS2TypoAOffset: 0
OS2TypoDescent: -200
OS2TypoDOffset: 0
OS2TypoLinegap: 90
OS2WinAscent: 777
OS2WinAOffset: 0
OS2WinDescent: 65
OS2WinDOffset: 0
HheadAscent: 777
HheadAOffset: 0
HheadDescent: -65
HheadDOffset: 0
OS2SubXSize: 650
OS2SubYSize: 700
OS2SubXOff: 0
OS2SubYOff: 140
OS2SupXSize: 650
OS2SupYSize: 700
OS2SupXOff: 0
OS2SupYOff: 480
OS2StrikeYSize: 49
OS2StrikeYPos: 258
OS2CapHeight: 660
OS2XHeight: 502
OS2Vendor: 'PfEd'
OS2CodePages: 00000001.00000000
OS2UnicodeRanges: 80000007.00000002.00000000.00000000
MarkAttachClasses: 1
DEI: 91125
LangName: 1033
Encoding: UnicodeBmp
UnicodeInterp: none
NameList: AGL For New Fonts
DisplaySize: -48
AntiAlias: 1
FitToEm: 0
WidthSeparation: 150
WinInfo: 0 23 9
BeginPrivate: 7
BlueValues 32 [80 150 473 530 629 689 707 771]
BlueScale 9 0.0141429
BlueShift 2 14
StdHW 4 [41]
StdVW 4 [41]
StemSnapH 30 [2 19 28 34 41 45 51 58 66 71]
StemSnapV 7 [33 41]
EndPrivate
BeginChars: 65537 139

StartChar: .notdef
Encoding: 65536 -1 0
Width: 541
Flags: HMW
HStem: 0 50<117 417 117 467> 483 50<117 417 117 117>
VStem: 67 50<50 50 50 483> 417 50<50 483 483 483>
LayerCount: 2
Fore
SplineSet
67 0 m 1
 67 533 l 1
 467 533 l 1
 467 0 l 1
 67 0 l 1
117 50 m 1
 417 50 l 1
 417 483 l 1
 117 483 l 1
 117 50 l 1
EndSplineSet
EndChar

StartChar: exclam
Encoding: 33 33 2
Width: 252
Flags: HMW
HStem: 109.929 58.8652
VStem: 114.794 40.4258
LayerCount: 2
Fore
SplineSet
175.787109375 663.830078125 m 0
 179.333007812 668.793945312 187.84375 671.630859375 194.2265625 670.921875 c 0
 207.702148438 668.084960938 207.702148438 665.95703125 187.84375 523.404296875 c 0
 178.8046875 449.283203125 172.637695312 377.375 155.219726562 312.057617188 c 0
 153.801757812 306.383789062 144.581054688 303.546875 133.234375 304.965820312 c 0
 116.212890625 307.092773438 113.375976562 309.9296875 114.793945312 328.370117188 c 0
 116.921875 361.703125 121.176757812 385.81640625 126.850585938 394.327148438 c 0
 128.978515625 398.583007812 133.234375 420.568359375 134.65234375 443.263671875 c 0
 139.598632812 496.018554688 150.682617188 510.567382812 148.836914062 565.95703125 c 0
 148.127929688 602.836914062 158.765625 643.262695312 175.787109375 663.830078125 c 0
60.1845703125 148.2265625 m 2
 72.9501953125 165.248046875 80.751953125 168.793945312 103.446289062 168.793945312 c 0
 141.03515625 168.793945312 159.474609375 158.15625 159.474609375 136.879882812 c 0
 159.474609375 124.822265625 153.091796875 116.3125 140.326171875 109.928710938 c 0
 101.319335938 90.0712890625 85.7158203125 90.0712890625 65.1484375 109.219726562 c 2
 46 126.950195312 l 1
 60.1845703125 148.2265625 l 2
EndSplineSet
EndChar

StartChar: quotedbl
Encoding: 34 34 3
Width: 337
Flags: HMW
VStem: 84.656 34.752 245.649 40.4258
LayerCount: 2
Fore
SplineSet
84.65625 656.737304688 m 0
 100.259765625 686.524414062 121.536132812 685.106445312 119.408203125 654.610351562 c 0
 109.479492188 471.630859375 104.514648438 429.787109375 93.1669921875 418.439453125 c 0
 81.8193359375 407.091796875 80.4013671875 407.091796875 71.181640625 419.149414062 c 0
 64.7978515625 428.369140625 62.6708984375 449.645507812 64.7978515625 497.163085938 c 0
 70.4716796875 617.73046875 72.599609375 633.333007812 84.65625 656.737304688 c 0
245.649414062 663.830078125 m 0
 254.16015625 685.815429688 283.23828125 682.978515625 286.075195312 659.57421875 c 0
 287.493164062 650.354492188 285.365234375 639.716796875 281.819335938 634.751953125 c 0
 268.041015625 617.91015625 261.630859375 568.890625 253.451171875 536.169921875 c 0
 249.1953125 519.149414062 249.1953125 497.872070312 253.451171875 476.595703125 c 0
 261.961914062 436.169921875 254.16015625 424.11328125 227.918945312 437.588867188 c 0
 205.932617188 449.645507812 199.549804688 489.361328125 209.479492188 547.517578125 c 0
 216.571289062 585.815429688 221.536132812 602.127929688 245.649414062 663.830078125 c 0
EndSplineSet
EndChar

StartChar: numbersign
Encoding: 35 35 4
Width: 659
Flags: HMW
HStem: 231.206 45.3896 241.844 36.8799<487.247 490.793> 405.674 36.8789
VStem: 263.843 53.9004 265.261 42.5537 266.68 31.915 437.602 29.7871 441.148 39.0078 449.658 41.1348<204.255 204.255>
LayerCount: 2
Fore
SplineSet
266.6796875 612.056640625 m 0xa4
 272.353515625 628.369140625 291.501953125 624.822265625 298.594726562 605.673828125 c 0xa4
 302.140625 597.163085938 306.395507812 559.57421875 307.814453125 522.6953125 c 0
 309.942382812 458.865234375 311.360351562 456.028320312 326.25390625 456.737304688 c 0
 334.764648438 456.737304688 364.551757812 457.447265625 391.501953125 458.15625 c 2
 441.147460938 459.57421875 l 1
 441.147460938 481.560546875 l 2
 441.147460938 493.6171875 436.18359375 522.6953125 429.799804688 546.099609375 c 0
 417.034179688 595.745117188 419.87109375 608.510742188 443.275390625 608.510742188 c 0
 470.934570312 608.510742188 478.02734375 592.198242188 480.155273438 525.532226562 c 0xa9
 482.991210938 453.19140625 487.247070312 448.936523438 556.041015625 442.552734375 c 0
 603.55859375 439.006835938 611.360351562 435.4609375 611.360351562 417.021484375 c 0
 611.360351562 397.163085938 590.79296875 394.326171875 539.729492188 405.673828125 c 0
 514.90625 412.056640625 492.211914062 414.184570312 488.665039062 410.638671875 c 0
 485.828125 407.801757812 483.701171875 376.595703125 485.119140625 341.84375 c 2
 487.247070312 278.723632812 l 1
 539.020507812 280.850585938 l 2
 594.338867188 282.978515625 605.686523438 275.88671875 590.79296875 247.517578125 c 0
 583.701171875 234.751953125 578.02734375 233.333007812 536.892578125 237.588867188 c 2
 490.79296875 241.84375 l 1
 490.79296875 194.326171875 l 2x6080
 490.79296875 138.297851562 478.736328125 51.7734375 467.388671875 29.078125 c 0
 459.587890625 12.056640625 445.403320312 7.8017578125 437.6015625 19.8583984375 c 0x62
 435.473632812 23.404296875 438.310546875 59.57421875 443.984375 99.291015625 c 0
 449.658203125 141.134765625 451.786132812 185.815429688 449.658203125 204.254882812 c 2
 444.693359375 236.169921875 l 1
 377.318359375 234.04296875 l 2
 340.438476562 232.624023438 307.10546875 229.787109375 303.55859375 227.659179688 c 0
 294.338867188 221.985351562 303.55859375 151.7734375 317.743164062 122.6953125 c 0
 329.090820312 97.8720703125 329.090820312 96.4541015625 314.90625 82.26953125 c 0
 307.10546875 74.4677734375 295.7578125 69.50390625 290.083984375 71.630859375 c 0
 278.02734375 75.88671875 263.842773438 142.552734375 263.842773438 194.326171875 c 2
 263.842773438 231.915039062 l 1x7080
 211.360351562 231.206054688 l 2
 152.495117188 230.49609375 118.453125 242.552734375 118.453125 264.5390625 c 0
 118.453125 277.3046875 122.708007812 278.723632812 153.9140625 276.595703125 c 0
 222.708007812 272.340820312 249.658203125 273.049804688 254.623046875 278.014648438 c 0
 263.133789062 286.524414062 261.71484375 397.163085938 253.204101562 400 c 0
 248.94921875 402.127929688 213.48828125 392.198242188 175.190429688 378.723632812 c 0
 136.18359375 365.248046875 91.501953125 353.19140625 75.8994140625 351.7734375 c 0
 51.0771484375 349.645507812 47.5302734375 351.7734375 45.4033203125 365.95703125 c 0
 43.275390625 378.723632812 48.94921875 384.397460938 77.318359375 396.454101562 c 0
 123.188476562 415.859375 124.374023438 399.041992188 170.225585938 418.439453125 c 0
 188.665039062 426.950195312 209.942382812 434.751953125 217.743164062 435.4609375 c 0
 254.623046875 441.134765625 260.296875 443.971679688 264.551757812 460.283203125 c 0
 266.6796875 469.50390625 267.388671875 504.96484375 265.260742188 539.006835938 c 0xa8
 263.842773438 573.049804688 263.842773438 606.3828125 266.6796875 612.056640625 c 0xa4
438.310546875 415.602539062 m 0
 432.63671875 424.822265625 362.423828125 426.241210938 324.125976562 417.73046875 c 0
 302.849609375 413.475585938 302.849609375 413.475585938 300.72265625 356.737304688 c 0
 297.17578125 267.375976562 295.048828125 270.212890625 368.09765625 273.049804688 c 0
 402.849609375 274.467773438 434.764648438 276.595703125 439.729492188 278.723632812 c 0x60
 446.112304688 280.850585938 448.240234375 298.58203125 446.112304688 344.680664062 c 0
 444.693359375 378.723632812 441.857421875 410.638671875 438.310546875 415.602539062 c 0
EndSplineSet
EndChar

StartChar: dollar
Encoding: 36 36 5
Width: 509
Flags: HMW
HStem: 114.894 32.624<207.05 207.759> 409.929 35.4609<282.227 330.1>
VStem: 235.064 40.4258<523.404 529.433> 239.319 43.2627 369.106 85.1064<239.361 343.617>
LayerCount: 2
Fore
SplineSet
247.829101562 720.567382812 m 0xd8
 252.084960938 729.078125 260.595703125 736.169921875 266.26953125 736.169921875 c 0
 283.290039062 736.169921875 290.3828125 712.056640625 286.126953125 669.50390625 c 2
 281.872070312 628.369140625 l 1
 315.205078125 632.624023438 l 2
 352.793945312 638.297851562 422.297851562 626.241210938 442.865234375 612.056640625 c 0
 457.048828125 601.41796875 454.211914062 582.26953125 437.19140625 575.88671875 c 0
 430.807617188 573.758789062 415.9140625 576.595703125 403.857421875 582.978515625 c 0
 377.616210938 595.745117188 348.5390625 597.163085938 310.950195312 587.234375 c 0
 279.744140625 578.723632812 275.489257812 567.375976562 275.489257812 503.545898438 c 0xe8
 275.489257812 454.610351562 281.163085938 445.389648438 311.659179688 445.389648438 c 0
 348.5390625 445.389648438 454.211914062 314.184570312 454.211914062 268.793945312 c 0
 454.211914062 209.928710938 398.893554688 143.971679688 332.2265625 122.6953125 c 0
 289.672851562 109.928710938 288.963867188 107.091796875 301.020507812 51.0634765625 c 0
 304.567382812 34.751953125 302.439453125 26.9501953125 291.80078125 17.021484375 c 0
 278.326171875 4.96484375 277.616210938 4.96484375 269.10546875 20.5673828125 c 0
 264.141601562 29.787109375 258.467773438 54.6103515625 256.33984375 76.595703125 c 2
 252.084960938 115.602539062 l 1
 216.624023438 114.893554688 l 2
 197.474609375 114.893554688 162.013671875 114.184570312 138.609375 113.475585938 c 0
 70.5244140625 111.34765625 66.26953125 112.056640625 58.4677734375 121.276367188 c 0
 44.9921875 138.297851562 44.283203125 175.177734375 57.7587890625 187.234375 c 0
 69.8154296875 197.872070312 71.2333984375 197.163085938 81.1630859375 173.049804688 c 2
 91.80078125 147.517578125 l 1
 169.10546875 147.517578125 l 2
 246.411132812 147.517578125 259.176757812 150.354492188 250.666015625 163.830078125 c 0
 245.702148438 171.630859375 242.155273438 236.879882812 239.318359375 346.099609375 c 2
 237.900390625 412.765625 l 1
 206.694335938 421.985351562 l 2
 189.672851562 426.950195312 171.942382812 434.04296875 166.26953125 439.006835938 c 0
 161.3046875 443.262695312 152.793945312 445.389648438 147.829101562 443.971679688 c 0
 123.715820312 435.4609375 102.439453125 485.815429688 123.006835938 504.254882812 c 0
 127.971679688 509.219726562 156.33984375 534.751953125 186.836914062 561.702148438 c 2
 242.155273438 609.928710938 l 1
 240.737304688 657.447265625 l 2
 239.318359375 683.6875 242.865234375 711.34765625 247.829101562 720.567382812 c 0xd8
235.063476562 523.404296875 m 0
 235.063476562 535.4609375 231.517578125 544.680664062 228.680664062 544.680664062 c 0
 220.169921875 544.680664062 170.524414062 497.872070312 170.524414062 489.361328125 c 0
 170.524414062 477.3046875 188.254882812 467.375976562 213.077148438 465.248046875 c 0
 240.028320312 463.120117188 237.900390625 458.15625 235.063476562 523.404296875 c 0
307.404296875 402.127929688 m 0
 298.893554688 406.3828125 288.963867188 409.928710938 286.126953125 409.928710938 c 0
 278.326171875 409.928710938 275.489257812 225.532226562 282.581054688 186.524414062 c 0xd8
 288.963867188 151.7734375 308.11328125 146.099609375 342.155273438 170.212890625 c 0
 383.290039062 199.291015625 402.439453125 225.532226562 405.276367188 258.15625 c 0
 407.404296875 282.26953125 386.126953125 334.04296875 376.198242188 328.369140625 c 0
 371.942382812 326.241210938 369.10546875 329.787109375 369.10546875 336.879882812 c 0
 369.10546875 350.354492188 332.935546875 388.65234375 307.404296875 402.127929688 c 0
EndSplineSet
EndChar

StartChar: percent
Encoding: 37 37 6
Width: 696
Flags: HMW
VStem: 97.4147 31.9141<457.092 540.071>
LayerCount: 2
Fore
SplineSet
564.790039062 660.283203125 m 0
 605.924804688 704.254882812 638.549804688 691.489257812 602.37890625 645.389648438 c 0
 591.03125 631.206054688 577.556640625 612.056640625 573.30078125 602.836914062 c 0
 557.698242188 573.758789062 483.939453125 478.723632812 442.095703125 434.751953125 c 0
 420.109375 411.34765625 380.393554688 365.248046875 354.15234375 331.915039062 c 0
 327.911132812 298.58203125 295.287109375 258.865234375 281.102539062 243.262695312 c 0
 196.705078125 149.645507812 157.698242188 103.545898438 130.748046875 62.4111328125 c 0
 113.7265625 36.8798828125 91.03125 8.5107421875 80.3935546875 -0.708984375 c 0
 62.6630859375 -17.021484375 60.53515625 -17.73046875 49.896484375 -6.3828125 c 0
 32.8759765625 9.9287109375 43.513671875 27.6591796875 125.783203125 115.602539062 c 0
 203.797851562 199.291015625 238.549804688 239.006835938 335.002929688 358.865234375 c 0
 374.010742188 407.091796875 425.07421875 469.50390625 448.478515625 498.58203125 c 0
 471.8828125 526.950195312 501.669921875 568.793945312 515.145507812 592.198242188 c 0
 528.620117188 614.893554688 550.606445312 645.389648438 564.790039062 660.283203125 c 0
189.61328125 619.149414062 m 0
 207.34375 628.369140625 227.911132812 634.04296875 235.712890625 632.624023438 c 0
 252.733398438 629.078125 281.811523438 598.58203125 281.811523438 584.397460938 c 0
 281.811523438 578.014648438 291.03125 563.120117188 302.37890625 550.354492188 c 0
 314.435546875 536.169921875 324.365234375 514.893554688 327.202148438 496.454101562 c 0
 331.45703125 466.666992188 330.748046875 464.5390625 298.124023438 431.206054688 c 0
 249.1875 382.26953125 225.07421875 371.630859375 171.173828125 376.595703125 c 0
 124.365234375 380.141601562 110.180664062 388.65234375 100.9609375 417.021484375 c 0
 98.1240234375 426.950195312 93.1591796875 438.297851562 90.322265625 441.84375 c 0
 78.265625 458.15625 76.1376953125 500 86.7763671875 509.219726562 c 0
 92.4501953125 514.184570312 97.4150390625 524.11328125 97.4150390625 531.206054688 c 0
 97.4150390625 548.936523438 149.1875 598.58203125 189.61328125 619.149414062 c 0
265.5 534.751953125 m 2
 244.932617188 575.88671875 240.676757812 580.141601562 220.109375 580.141601562 c 0
 203.797851562 580.141601562 188.904296875 572.340820312 163.372070312 548.936523438 c 0
 131.45703125 519.858398438 129.329101562 515.602539062 129.329101562 482.26953125 c 0
 129.329101562 431.915039062 146.350585938 414.184570312 190.322265625 418.439453125 c 0
 225.783203125 421.985351562 250.606445312 437.588867188 273.30078125 469.50390625 c 2
 288.194335938 490.071289062 l 1
 265.5 534.751953125 l 2
512.30859375 368.793945312 m 0
 545.641601562 379.432617188 570.463867188 375.177734375 583.23046875 356.028320312 c 0
 589.61328125 345.389648438 605.924804688 327.659179688 619.400390625 316.3125 c 0
 632.875976562 304.254882812 643.513671875 290.780273438 643.513671875 285.106445312 c 0
 643.513671875 279.432617188 633.584960938 254.610351562 621.528320312 229.078125 c 0
 605.215820312 194.326171875 592.450195312 178.014648438 567.626953125 161.702148438 c 0
 512.30859375 124.11328125 452.024414062 126.241210938 415.145507812 166.666992188 c 0
 393.868164062 190.071289062 382.520507812 226.950195312 388.904296875 251.063476562 c 0
 398.124023438 285.106445312 472.591796875 356.028320312 512.30859375 368.793945312 c 0
566.208984375 310.638671875 m 0
 527.911132812 329.787109375 516.563476562 329.078125 483.939453125 302.127929688 c 0
 430.748046875 259.57421875 413.7265625 232.624023438 430.748046875 221.985351562 c 0
 435.002929688 219.858398438 437.83984375 211.34765625 437.83984375 204.254882812 c 0
 437.83984375 185.106445312 475.428710938 166.666992188 502.37890625 172.340820312 c 0
 530.748046875 178.723632812 569.754882812 213.475585938 587.485351562 248.936523438 c 0
 605.215820312 282.978515625 602.37890625 292.198242188 566.208984375 310.638671875 c 0
EndSplineSet
EndChar

StartChar: ampersand
Encoding: 38 38 7
Width: 708
Flags: HMW
HStem: 65.248 25.5322 268.085 43.9717 367.376 42.5527
LayerCount: 2
Fore
SplineSet
209.57421875 590.780273438 m 0
 216.908203125 598.112304688 245.922851562 624.379882812 262.056640625 616.3125 c 0
 268.439453125 612.765625 289.006835938 608.510742188 308.865234375 605.673828125 c 0
 363.475585938 598.58203125 392.553710938 575.177734375 408.865234375 524.822265625 c 0
 422.340820312 482.978515625 423.049804688 480.850585938 410.284179688 457.447265625 c 0
 381.915039062 401.41796875 331.560546875 367.375976562 279.078125 367.375976562 c 0
 259.219726562 367.375976562 191.84375 338.297851562 191.84375 329.787109375 c 0
 191.84375 314.893554688 210.993164062 289.361328125 254.255859375 248.936523438 c 0
 280.497070312 224.11328125 303.901367188 204.254882812 307.447265625 204.254882812 c 0
 314.5390625 204.254882812 356.3828125 175.177734375 363.475585938 165.248046875 c 0
 377.66015625 146.099609375 442.19921875 212.765625 477.66015625 282.26953125 c 0
 491.84375 310.638671875 495.390625 314.184570312 514.5390625 312.056640625 c 0
 551.418945312 308.510742188 598.936523438 310.638671875 624.46875 317.73046875 c 0
 652.836914062 325.532226562 669.149414062 316.3125 652.836914062 300.708984375 c 0
 640.071289062 289.361328125 574.823242188 268.084960938 550.708984375 268.084960938 c 0
 521.631835938 268.084960938 511.702148438 260.993164062 486.170898438 222.6953125 c 0
 472.6953125 202.127929688 448.58203125 173.758789062 432.26953125 158.865234375 c 2
 403.19140625 131.915039062 l 1
 416.200195312 118.446289062 429.203125 104.971679688 442.19921875 91.4892578125 c 1
 413.12109375 94.326171875 l 2
 397.517578125 95.7451171875 378.369140625 100 370.567382812 104.254882812 c 0
 356.3828125 112.056640625 294.680664062 95.03515625 253.545898438 72.3408203125 c 0
 242.908203125 66.6669921875 231.560546875 63.1201171875 228.723632812 65.248046875 c 0
 225.177734375 67.3759765625 207.447265625 64.5390625 188.297851562 58.865234375 c 0
 141.489257812 44.6806640625 118.794921875 45.3896484375 96.099609375 63.830078125 c 0
 72.6953125 82.26953125 50.708984375 128.369140625 50 158.865234375 c 0
 50 195.745117188 69.8583984375 248.936523438 102.482421875 300 c 0
 125.177734375 335.4609375 132.26953125 352.482421875 128.014648438 360.993164062 c 0
 118.794921875 377.3046875 120.921875 401.41796875 135.815429688 447.517578125 c 0
 143.6171875 469.50390625 149.291015625 491.489257812 149.291015625 496.454101562 c 0
 149.291015625 504.254882812 194.680664062 575.177734375 209.57421875 590.780273438 c 0
348.58203125 548.227539062 m 0
 340.071289062 555.3203125 318.0859375 561.703125 293.263671875 563.831054688 c 0
 256.383789062 567.376953125 250.709960938 565.958007812 237.235351562 551.064453125 c 0
 208.866210938 519.150390625 178.370117188 456.029296875 173.405273438 418.440429688 c 2
 168.440429688 380.8515625 l 1
 189.0078125 385.81640625 l 2
 215.213867188 392.368164062 240.180664062 409.9296875 271.276367188 409.9296875 c 0
 306.73828125 410.639648438 342.908203125 431.20703125 356.3828125 459.575195312 c 0
 362.766601562 473.05078125 366.3125 489.362304688 364.184570312 495.036132812 c 0
 362.056640625 500.709960938 360.638671875 512.766601562 360.638671875 520.568359375 c 0
 361.34765625 529.079101562 355.673828125 541.135742188 348.58203125 548.227539062 c 0
177.661132812 265.958007812 m 0
 165.604492188 282.270507812 154.256835938 296.455078125 152.837890625 296.455078125 c 0
 142.909179688 296.455078125 104.611328125 226.2421875 98.228515625 195.036132812 c 0
 85.4619140625 134.752929688 106.029296875 90.78125 147.1640625 90.78125 c 0
 164.89453125 90.78125 228.724609375 107.092773438 259.220703125 119.859375 c 0
 268.627929688 123.280273438 319.504882812 131.874023438 319.504882812 142.553710938 c 0
 319.504882812 147.518554688 292.5546875 170.213867188 259.220703125 192.909179688 c 0
 226.596679688 215.603515625 189.717773438 248.9375 177.661132812 265.958007812 c 0
EndSplineSet
EndChar

StartChar: parenleft
Encoding: 40 40 8
Width: 296
Flags: W
LayerCount: 2
Fore
SplineSet
201.155273438 692.198242188 m 0
 218.176757812 709.928710938 249.381835938 712.765625 255.055664062 697.163085938 c 0
 257.892578125 690.780273438 240.162109375 663.830078125 207.538085938 625.532226562 c 0
 135.907226562 541.84375 138.03515625 545.389648438 129.524414062 494.326171875 c 0
 125.268554688 469.50390625 118.885742188 445.389648438 115.33984375 441.134765625 c 0
 110.375 435.4609375 110.375 423.404296875 114.630859375 407.801757812 c 0
 118.885742188 392.198242188 118.885742188 379.432617188 113.920898438 370.212890625 c 0
 101.864257812 348.936523438 96.1904296875 240.42578125 105.41015625 200.708984375 c 0
 108.247070312 189.361328125 109.666015625 169.50390625 109.666015625 156.737304688 c 0
 108.95703125 144.680664062 113.920898438 129.787109375 119.594726562 123.404296875 c 0
 125.977539062 117.73046875 130.233398438 108.510742188 129.524414062 103.545898438 c 0
 126.6875 90.7802734375 136.616210938 34.04296875 144.41796875 16.3125 c 0
 147.254882812 8.5107421875 157.18359375 -12.056640625 164.985351562 -29.787109375 c 2
 179.87890625 -61.7021484375 l 1
 161.438476562 -63.830078125 l 2
 132.361328125 -67.3759765625 127.396484375 -62.4111328125 113.920898438 -18.439453125 c 0
 100.756835938 25.00390625 91.3515625 46.7001953125 83.4248046875 83.6875 c 0
 82.005859375 93.6171875 74.9140625 125.532226562 68.53125 154.610351562 c 0
 53.6376953125 224.11328125 52.9287109375 296.454101562 67.822265625 388.65234375 c 0
 74.9140625 429.787109375 82.005859375 480.850585938 84.8427734375 502.127929688 c 0
 90.5166015625 550.354492188 94.7724609375 558.15625 145.8359375 617.73046875 c 0
 168.53125 643.971679688 186.970703125 668.084960938 186.970703125 670.921875 c 0
 186.970703125 674.467773438 193.353515625 683.6875 201.155273438 692.198242188 c 0
EndSplineSet
EndChar

StartChar: parenright
Encoding: 41 41 9
Width: 280
Flags: HMW
VStem: 175.811 40.4258
LayerCount: 2
Fore
SplineSet
45.314453125 717.73046875 m 0
 62.3359375 738.297851562 83.6123046875 730.49609375 124.747070312 688.65234375 c 0
 206.307617188 604.254882812 216.236328125 574.467773438 216.236328125 407.801757812 c 0
 216.236328125 258.865234375 200.633789062 135.4609375 175.810546875 87.234375 c 0
 165.172851562 68.0849609375 150.98828125 39.716796875 143.186523438 25.5322265625 c 0
 126.165039062 -8.5107421875 104.888671875 -15.6025390625 87.8671875 6.3828125 c 0
 75.810546875 21.9853515625 75.810546875 23.404296875 89.2861328125 32.6240234375 c 0
 96.3779296875 37.5888671875 102.760742188 46.80859375 102.760742188 52.482421875 c 0
 102.760742188 58.15625 105.59765625 62.4111328125 109.143554688 62.4111328125 c 0
 122.619140625 62.4111328125 159.499023438 148.936523438 159.499023438 179.432617188 c 0
 159.499023438 195.745117188 161.625976562 211.34765625 165.172851562 214.184570312 c 0
 171.555664062 221.276367188 171.555664062 226.241210938 175.810546875 365.95703125 c 0
 177.938476562 429.787109375 176.51953125 482.978515625 172.973632812 485.106445312 c 0
 169.427734375 487.234375 169.427734375 493.6171875 172.973632812 500.708984375 c 0
 177.229492188 509.219726562 174.392578125 528.369140625 163.044921875 562.411132812 c 0
 148.860351562 603.545898438 139.640625 617.73046875 107.016601562 647.517578125 c 0
 85.740234375 666.666992188 60.9169921875 687.943359375 51.697265625 694.326171875 c 0
 38.2216796875 704.254882812 36.8037109375 707.801757812 45.314453125 717.73046875 c 0
EndSplineSet
EndChar

StartChar: asterisk
Encoding: 42 42 10
Width: 546
Flags: HMW
HStem: 231.915 44.6807 436.028 20G<391.081 409.166> 537.589 21.2764<291.79 297.464>
VStem: 261.293 40.4258 283.989 21.2764<545.39 551.063> 354.91 80.8516
LayerCount: 2
Fore
SplineSet
283.98828125 548.2265625 m 0xec
 283.98828125 553.900390625 288.953125 558.865234375 294.626953125 558.865234375 c 0
 300.30078125 558.865234375 305.264648438 553.900390625 305.264648438 548.2265625 c 0
 305.264648438 542.552734375 300.30078125 537.588867188 294.626953125 537.588867188 c 0
 288.953125 537.588867188 283.98828125 542.552734375 283.98828125 548.2265625 c 0xec
244.981445312 457.447265625 m 0
 257.747070312 476.595703125 273.350585938 478.723632812 282.5703125 462.411132812 c 0
 286.116210938 456.028320312 287.534179688 422.6953125 285.407226562 387.943359375 c 0
 283.98828125 353.19140625 285.407226562 324.822265625 288.244140625 325.532226562 c 0
 291.790039062 325.532226562 313.775390625 354.610351562 337.888671875 390.780273438 c 0
 372.640625 443.262695312 383.98828125 456.028320312 398.172851562 456.028320312 c 0
 420.158203125 456.028320312 425.123046875 429.787109375 405.974609375 415.602539062 c 0
 390.37109375 404.96484375 312.357421875 287.943359375 312.357421875 275.177734375 c 0
 312.357421875 267.375976562 369.803710938 268.084960938 471.931640625 276.595703125 c 0
 489.662109375 278.723632812 493.91796875 275.88671875 495.3359375 261.702148438 c 0
 499.590820312 233.333007812 487.534179688 229.078125 411.6484375 231.915039062 c 0
 372.640625 232.624023438 340.725585938 231.915039062 340.725585938 229.787109375 c 0
 340.725585938 217.73046875 399.590820312 122.6953125 418.740234375 104.254882812 c 0
 435.76171875 87.234375 439.307617188 78.7236328125 435.76171875 63.830078125 c 0
 430.087890625 39.716796875 415.194335938 24.11328125 404.555664062 30.49609375 c 0
 397.463867188 34.751953125 354.91015625 120.567382812 354.91015625 131.206054688 c 0
 354.91015625 138.297851562 303.137695312 211.34765625 298.172851562 211.34765625 c 0
 292.499023438 211.34765625 295.3359375 58.15625 301.71875 48.2265625 c 0
 307.392578125 38.2978515625 292.499023438 12.765625 280.442382812 12.765625 c 0
 263.420898438 12.765625 261.29296875 24.822265625 261.29296875 109.219726562 c 0xf4
 261.29296875 153.900390625 259.166015625 190.071289062 255.620117188 190.071289062 c 0
 249.236328125 190.071289062 188.953125 121.276367188 163.420898438 83.6875 c 0
 153.4921875 70.212890625 147.109375 53.900390625 147.818359375 47.517578125 c 0
 149.946289062 33.3330078125 80.4423828125 -29.787109375 62.0029296875 -29.787109375 c 0
 34.3427734375 -29.787109375 42.14453125 -8.5107421875 90.37109375 46.80859375 c 0
 154.91015625 121.985351562 205.974609375 187.943359375 205.974609375 197.163085938 c 0
 205.974609375 207.091796875 192.499023438 206.3828125 134.342773438 192.908203125 c 0
 80.4423828125 180.850585938 54.201171875 182.978515625 47.109375 201.41796875 c 0
 41.435546875 216.3125 46.3994140625 223.404296875 71.931640625 236.879882812 c 0
 88.244140625 244.680664062 96.044921875 245.389648438 103.137695312 239.716796875 c 0
 110.229492188 234.04296875 129.37890625 234.751953125 179.0234375 243.971679688 c 0
 215.194335938 250.354492188 247.818359375 258.15625 251.364257812 261.702148438 c 0
 258.456054688 268.084960938 224.4140625 302.836914062 168.385742188 348.2265625 c 0
 144.981445312 367.375976562 135.052734375 380.141601562 135.052734375 392.908203125 c 0
 135.052734375 424.822265625 154.91015625 421.276367188 194.626953125 382.26953125 c 0
 247.818359375 329.787109375 254.91015625 332.624023438 241.435546875 402.836914062 c 0
 235.76171875 433.333007812 236.470703125 443.971679688 244.981445312 457.447265625 c 0
EndSplineSet
EndChar

StartChar: plus
Encoding: 43 43 11
Width: 438
Flags: HMW
HStem: 312.766 43.9717
VStem: 203.861 31.2061 206.698 41.8438<221.985 234.043>
LayerCount: 2
Fore
SplineSet
190.38671875 522.6953125 m 0xc0
 205.280273438 546.80859375 232.23046875 519.858398438 235.067382812 478.723632812 c 0xc0
 235.776367188 462.411132812 239.322265625 428.369140625 242.159179688 402.836914062 c 2
 247.833007812 356.737304688 l 1
 297.478515625 353.19140625 l 2
 325.137695312 351.063476562 352.088867188 352.482421875 358.471679688 356.028320312 c 0
 372.65625 363.830078125 395.350585938 356.028320312 391.8046875 343.971679688 c 0
 385.421875 325.532226562 340.741210938 310.638671875 294.641601562 312.765625 c 2
 249.251953125 314.184570312 l 1
 248.541992188 221.985351562 l 2
 247.833007812 135.4609375 247.124023438 129.787109375 233.6484375 129.787109375 c 0
 210.244140625 129.787109375 203.15234375 156.737304688 206.698242188 234.04296875 c 2xa0
 209.53515625 305.673828125 l 1
 164.854492188 300.708984375 l 2
 140.032226562 297.872070312 108.1171875 292.198242188 92.513671875 288.65234375 c 0
 57.052734375 279.432617188 43.578125 284.397460938 49.251953125 304.96484375 c 0
 57.052734375 330.49609375 69.8193359375 336.169921875 118.045898438 337.588867188 c 0
 142.868164062 338.297851562 172.65625 341.84375 184.002929688 345.389648438 c 0
 204.5703125 351.063476562 205.280273438 352.482421875 203.861328125 388.65234375 c 0
 202.443359375 409.219726562 198.1875 430.49609375 193.932617188 435.4609375 c 0
 185.421875 446.099609375 182.584960938 509.928710938 190.38671875 522.6953125 c 0xc0
EndSplineSet
EndChar

StartChar: comma
Encoding: 44 44 12
Width: 227
Flags: HMW
VStem: 49 112.057
LayerCount: 2
Fore
SplineSet
96.5185546875 170.921875 m 0
 107.865234375 182.978515625 134.106445312 174.467773438 149 153.900390625 c 0
 162.475585938 134.751953125 163.893554688 125.532226562 161.056640625 81.560546875 c 0
 154.673828125 -5.673828125 127.723632812 -49.6455078125 72.404296875 -61.7021484375 c 0
 52.546875 -65.95703125 49 -64.5390625 49 -52.482421875 c 0
 49 -45.3896484375 61.7666015625 -27.6591796875 76.66015625 -14.1845703125 c 0
 95.099609375 2.1279296875 107.15625 21.2763671875 112.830078125 40.42578125 c 0
 121.340820312 73.7587890625 116.375976562 114.893554688 101.482421875 126.950195312 c 0
 91.5537109375 135.4609375 88.0078125 163.120117188 96.5185546875 170.921875 c 0
EndSplineSet
EndChar

StartChar: hyphen
Encoding: 45 45 13
Width: 442
Flags: HMW
HStem: 246.809 51.0635
LayerCount: 2
Fore
SplineSet
69.0908203125 295.03515625 m 0
 79.01953125 304.96484375 106.6796875 306.3828125 123.700195312 296.454101562 c 0
 131.501953125 292.198242188 178.310546875 292.908203125 251.360351562 297.872070312 c 0
 322.991210938 302.127929688 369.090820312 302.836914062 373.345703125 298.58203125 c 0
 383.984375 287.943359375 366.25390625 246.80859375 351.360351562 246.80859375 c 0
 343.55859375 246.80859375 335.756835938 250.354492188 333.629882812 253.900390625 c 0
 327.956054688 263.120117188 218.736328125 263.120117188 213.0625 253.900390625 c 0
 205.2265625 241.362304688 193.169921875 263.795898438 185.40234375 256.028320312 c 0
 175.473632812 246.099609375 86.1123046875 248.936523438 73.345703125 259.57421875 c 0
 58.4521484375 272.340820312 57.0341796875 282.978515625 69.0908203125 295.03515625 c 0
EndSplineSet
EndChar

StartChar: period
Encoding: 46 46 14
Width: 177
Flags: HMW
HStem: 95.0352 66.667
LayerCount: 2
Fore
SplineSet
65.046875 156.028320312 m 0
 70.01171875 158.865234375 82.068359375 161.702148438 93.4150390625 161.702148438 c 0
 110.436523438 161.702148438 112.564453125 158.865234375 112.564453125 138.297851562 c 0
 112.564453125 107.801757812 89.16015625 83.6875 71.4296875 95.03515625 c 0
 57.2451171875 104.254882812 52.990234375 148.2265625 65.046875 156.028320312 c 0
EndSplineSet
EndChar

StartChar: slash
Encoding: 47 47 15
Width: 508
Flags: HMW
VStem: 425.157 41.1348
LayerCount: 2
Fore
SplineSet
233.66796875 326.241210938 m 0
 233.66796875 338.638671875 262.036132812 369.133789062 262.036132812 382.977539062 c 0
 262.036132812 389.360351562 264.873046875 396.453125 268.418945312 398.581054688 c 0
 271.965820312 400.708007812 281.185546875 417.020507812 289.696289062 434.750976562 c 0
 307.512695312 475.24609375 322.639648438 484.854492188 343.596679688 519.1484375 c 0
 351.3984375 532.623046875 372.674804688 563.119140625 391.823242188 587.233398438 c 0
 410.263671875 611.346679688 425.157226562 636.168945312 425.157226562 641.842773438 c 0
 425.157226562 656.736328125 463.455078125 651.0625 466.291992188 635.459960938 c 0
 468.418945312 624.112304688 432.958007812 569.502929688 376.9296875 498.581054688 c 0
 361.327148438 479.431640625 334.376953125 432.623046875 316.646484375 395.744140625 c 0
 298.916015625 358.864257812 267.000976562 299.999023438 246.43359375 264.538085938 c 0
 225.157226562 229.786132812 197.497070312 180.140625 184.731445312 154.609375 c 0
 171.965820312 129.786132812 152.81640625 95.744140625 142.177734375 80.140625 c 0
 131.540039062 64.5380859375 113.809570312 38.296875 103.170898438 21.275390625 c 0
 81.89453125 -13.4765625 67.7099609375 -21.27734375 52.81640625 -8.51171875 c 0
 36.50390625 4.9638671875 40.05078125 18.4384765625 67.0009765625 45.388671875 c 0
 80.4755859375 58.8642578125 91.8232421875 74.466796875 91.8232421875 79.431640625 c 0
 91.8232421875 84.396484375 98.2060546875 94.3251953125 106.716796875 102.126953125 c 0
 114.518554688 109.21875 127.284179688 126.94921875 134.376953125 140.424804688 c 0
 149.560546875 172.478515625 196.559570312 266.513671875 216.646484375 294.326171875 c 0
 225.866210938 306.3828125 233.66796875 321.276367188 233.66796875 326.241210938 c 0
EndSplineSet
EndChar

StartChar: zero
Encoding: 48 48 16
Width: 510
Flags: HMW
HStem: 638.156 20G<250.035 253.935>
LayerCount: 2
Fore
SplineSet
204.290039062 650.49609375 m 4
 223.439453125 666.099609375 246.134765625 678.15625 253.935546875 678.15625 c 4
 292.233398438 676.737304688 364.57421875 635.602539062 393.65234375 597.3046875 c 4
 452.517578125 520.708984375 473.793945312 406.524414062 442.587890625 338.439453125 c 4
 425.567382812 300.141601562 363.865234375 223.545898438 311.3828125 175.319335938 c 4
 248.971679688 117.872070312 200.744140625 110.071289062 126.985351562 147.659179688 c 4
 88.6875 166.80859375 82.3046875 173.19140625 74.5029296875 198.723632812 c 4
 69.5390625 215.03515625 63.865234375 234.184570312 61.0283203125 241.985351562 c 4
 51.80859375 266.80859375 59.609375 423.545898438 72.3759765625 465.389648438 c 4
 78.7587890625 486.666992188 98.6162109375 524.96484375 115.637695312 550.49609375 c 4
 157.481445312 611.489257812 163.865234375 618.58203125 204.290039062 650.49609375 c 4
283.013671875 620.708984375 m 4
 268.120117188 637.73046875 268.829101562 637.73046875 241.169921875 625.673828125 c 4
 207.126953125 610.071289062 170.248046875 563.971679688 122.020507812 476.737304688 c 4
 102.163085938 441.985351562 101.453125 436.3125 100.744140625 341.276367188 c 4
 100.03515625 220.708984375 107.836914062 197.3046875 153.2265625 174.610351562 c 4
 180.176757812 160.42578125 186.559570312 159.716796875 211.3828125 167.517578125 c 4
 241.169921875 176.028320312 296.489257812 207.943359375 300.03515625 217.872070312 c 4
 301.453125 221.41796875 312.80078125 234.184570312 324.857421875 246.950195312 c 4
 358.900390625 281.702148438 405.708984375 345.532226562 414.219726562 368.2265625 c 4
 424.1484375 393.049804688 424.1484375 434.893554688 414.928710938 440.567382812 c 4
 411.3828125 442.6953125 409.963867188 449.078125 412.091796875 454.751953125 c 4
 414.219726562 459.716796875 410.673828125 476.028320312 403.581054688 490.212890625 c 4
 397.198242188 503.6875 393.65234375 517.163085938 395.780273438 519.291015625 c 4
 400.744140625 524.254882812 370.95703125 570.354492188 346.84375 593.758789062 c 4
 334.787109375 606.524414062 323.439453125 610.780273438 312.091796875 608.65234375 c 4
 301.453125 606.524414062 290.815429688 610.780273438 283.013671875 620.708984375 c 4
EndSplineSet
EndChar

StartChar: one
Encoding: 49 49 17
Width: 187
Flags: W
LayerCount: 2
Fore
SplineSet
90.5869140625 678.439453125 m 4
 101.934570312 691.915039062 106.8984375 692.624023438 118.24609375 681.276367188 c 4
 128.884765625 670.638671875 129.59375 569.928710938 118.955078125 530.212890625 c 4
 109.735351562 495.4609375 104.771484375 166.3828125 113.28125 160.708984375 c 4
 125.338867188 153.6171875 119.665039062 130.212890625 104.771484375 125.95703125 c 4
 67.8916015625 113.900390625 57.2529296875 155.745117188 65.763671875 278.439453125 c 4
 71.4375 357.163085938 79.9482421875 545.815429688 80.6572265625 606.099609375 c 4
 81.3671875 645.106445312 84.9130859375 671.34765625 90.5869140625 678.439453125 c 4
EndSplineSet
EndChar

StartChar: two
Encoding: 50 50 18
Width: 458
Flags: W
LayerCount: 2
Fore
SplineSet
186.086914062 669.645507812 m 4
 236.44140625 693.758789062 318.002929688 687.375976562 344.953125 657.588867188 c 4
 352.045898438 650.49609375 361.265625 628.510742188 366.23046875 609.361328125 c 4
 375.450195312 575.319335938 374.740234375 572.482421875 352.045898438 524.96484375 c 4
 339.279296875 498.014648438 327.931640625 472.482421875 327.931640625 468.2265625 c 4
 327.931640625 463.971679688 321.548828125 454.751953125 313.038085938 446.950195312 c 4
 304.528320312 439.858398438 278.287109375 406.524414062 254.8828125 373.19140625 c 4
 230.768554688 339.858398438 207.365234375 308.65234375 202.400390625 303.6875 c 4
 198.14453125 299.432617188 192.470703125 289.50390625 190.34375 282.411132812 c 4
 187.506835938 275.319335938 171.903320312 254.04296875 154.172851562 234.893554688 c 4
 99.5634765625 176.737304688 101.69140625 176.028320312 247.790039062 178.865234375 c 4
 318.711914062 180.283203125 376.159179688 184.5390625 379.705078125 188.084960938 c 4
 390.34375 198.723632812 405.946289062 183.830078125 405.946289062 163.971679688 c 4
 405.946289062 155.4609375 400.272460938 143.404296875 392.470703125 136.3125 c 4
 381.833007812 126.3828125 376.159179688 125.673828125 359.137695312 132.765625 c 4
 326.513671875 145.532226562 210.911132812 143.404296875 147.081054688 128.510742188 c 4
 74.740234375 112.198242188 65.5205078125 112.198242188 56.30078125 125.673828125 c 4
 50.626953125 134.184570312 52.0458984375 144.11328125 61.265625 162.552734375 c 4
 67.6484375 176.737304688 76.1591796875 190.212890625 79.705078125 192.340820312 c 4
 83.9609375 194.467773438 86.7978515625 201.560546875 86.7978515625 207.234375 c 4
 86.7978515625 213.6171875 102.400390625 236.3125 121.548828125 258.297851562 c 4
 171.337890625 317.658203125 204.7109375 372.38671875 253.462890625 438.439453125 c 4
 318.7109375 529.928710938 339.98828125 608.65234375 305.236328125 631.34765625 c 4
 282.541015625 646.241210938 231.477539062 644.11328125 203.108398438 627.091796875 c 4
 189.6328125 619.291015625 178.995117188 615.03515625 178.995117188 618.58203125 c 4
 178.995117188 621.41796875 173.321289062 618.58203125 166.938476562 612.908203125 c 4
 159.845703125 606.524414062 142.825195312 596.595703125 129.349609375 589.50390625 c 4
 115.874023438 583.120117188 96.0166015625 568.936523438 84.6689453125 559.006835938 c 4
 62.6826171875 538.439453125 48.498046875 544.11328125 52.75390625 572.482421875 c 4
 54.8818359375 588.084960938 106.654296875 633.475585938 139.278320312 648.369140625 c 4
 147.7890625 651.915039062 168.356445312 661.84375 186.086914062 669.645507812 c 4
EndSplineSet
EndChar

StartChar: three
Encoding: 51 51 19
Width: 476
Flags: HMW
HStem: 577.305 42.5537
VStem: 371.383 51.7734<528 528>
LayerCount: 2
Fore
SplineSet
133.793945312 649.219726562 m 4
 165 658.439453125 197.624023438 661.276367188 257.908203125 659.858398438 c 4
 347.26953125 658.439453125 359.326171875 654.184570312 401.169921875 614.467773438 c 4
 423.15625 593.19140625 426.702148438 586.099609375 423.15625 567.659179688 c 4
 418.19140625 539.291015625 404.715820312 513.049804688 387.6953125 498.865234375 c 4
 368.545898438 481.84375 350.106445312 457.73046875 350.106445312 449.928710938 c 4
 350.106445312 445.673828125 344.432617188 442.836914062 336.630859375 442.836914062 c 4
 329.5390625 442.836914062 319.610351562 438.58203125 314.645507812 432.908203125 c 4
 308.262695312 424.397460938 311.80859375 420.141601562 334.50390625 408.084960938 c 4
 381.3125 384.680664062 403.297851562 340.708984375 411.80859375 257.73046875 c 4
 415.354492188 225.815429688 414.645507812 224.397460938 375.638671875 190.354492188 c 4
 354.361328125 171.206054688 313.2265625 142.836914062 284.858398438 128.65234375 c 4
 218.19140625 94.6103515625 170.673828125 88.9365234375 116.063476562 108.084960938 c 4
 89.11328125 118.014648438 73.5107421875 120.141601562 65 115.88671875 c 4
 45.1416015625 105.248046875 40.177734375 128.65234375 57.908203125 147.091796875 c 4
 73.5107421875 161.985351562 73.5107421875 161.985351562 109.680664062 149.219726562 c 4
 162.163085938 130.071289062 193.369140625 129.361328125 224.57421875 144.96484375 c 4
 239.467773438 152.765625 255.071289062 159.149414062 260.03515625 159.149414062 c 4
 265 159.149414062 279.893554688 169.078125 293.369140625 181.134765625 c 4
 306.84375 193.19140625 326.702148438 208.084960938 337.340820312 214.467773438 c 4
 347.978515625 220.850585938 360.745117188 235.03515625 365 246.3828125 c 4
 372.091796875 263.404296875 371.3828125 270.49609375 360.745117188 288.936523438 c 4
 343.447265625 317.240234375 351.563476562 304.087890625 345.850585938 336.454101562 c 4
 343.013671875 349.928710938 336.630859375 357.73046875 329.5390625 357.73046875 c 4
 323.15625 357.73046875 310.389648438 362.6953125 301.169921875 369.078125 c 4
 286.985351562 379.006835938 279.184570312 379.716796875 242.3046875 371.915039062 c 4
 201.879882812 364.11328125 198.333007812 364.822265625 184.1484375 378.297851562 c 4
 166.41796875 396.028320312 170.673828125 400.283203125 222.447265625 422.26953125 c 4
 282.021484375 447.091796875 372.091796875 535.03515625 371.3828125 568.369140625 c 4
 370.673828125 575.4609375 365 588.2265625 357.908203125 596.737304688 c 4
 346.560546875 610.212890625 335.212890625 613.758789062 285.567382812 617.3046875 c 4
 230.248046875 620.850585938 206.84375 618.014648438 133.793945312 599.57421875 c 4
 101.879882812 591.7734375 85.5673828125 599.57421875 89.11328125 622.26953125 c 4
 90.5322265625 633.6171875 101.879882812 640 133.793945312 649.219726562 c 4
EndSplineSet
EndChar

StartChar: four
Encoding: 52 52 20
Width: 483
Flags: HMW
HStem: 273.05 45.3896
VStem: 371.646 41.8438
LayerCount: 2
Fore
SplineSet
289.375976562 653.19140625 m 0
 309.233398438 669.50390625 314.198242188 668.794921875 326.963867188 644.681640625 c 0
 332.637695312 633.333984375 340.439453125 622.696289062 344.694335938 621.27734375 c 0
 355.245117188 617.76171875 358.908203125 584.772460938 362.42578125 573.049804688 c 0
 375.336914062 534.311523438 378.916992188 501.913085938 382.993164062 432.624023438 c 0
 387.95703125 353.900390625 392.921875 331.915039062 404.978515625 331.915039062 c 0
 417.744140625 331.915039062 424.836914062 299.291015625 415.6171875 282.26953125 c 0
 411.361328125 273.758789062 409.943359375 248.936523438 413.489257812 217.021484375 c 0
 421.291015625 133.333007812 419.872070312 104.96484375 408.524414062 97.8720703125 c 0
 389.375976562 85.8154296875 378.028320312 108.510742188 371.645507812 170.212890625 c 0
 362.42578125 270.921875 364.552734375 263.830078125 333.34765625 269.50390625 c 0
 318.454101562 272.340820312 251.787109375 273.758789062 185.120117188 273.049804688 c 2
 64.552734375 271.630859375 l 1
 55.3330078125 291.489257812 l 2
 46.822265625 308.510742188 47.53125 314.893554688 64.552734375 349.645507812 c 0
 97.88671875 419.858398438 235.474609375 606.3828125 289.375976562 653.19140625 c 0
309.233398438 582.270507812 m 0
 309.233398438 592.909179688 307.106445312 601.418945312 304.26953125 601.418945312 c 0
 297.176757812 601.418945312 185.829101562 474.46875 154.624023438 431.916015625 c 0
 126.254882812 392.19921875 93.630859375 325.533203125 99.3046875 319.150390625 c 0
 106.396484375 312.766601562 324.836914062 312.057617188 338.311523438 318.440429688 c 0
 359.0078125 329.478515625 338.40625 449.510742188 333.34765625 495.036132812 c 0
 331.219726562 520.568359375 324.127929688 546.100585938 319.163085938 552.483398438 c 0
 313.489257812 558.157226562 309.233398438 572.341796875 309.233398438 582.270507812 c 0
EndSplineSet
EndChar

StartChar: five
Encoding: 53 53 21
Width: 522
Flags: HMW
HStem: 385.815 54.6104 624.822 40.4258
VStem: 147.582 41.8438<440.426 440.426 440.426 460.638>
LayerCount: 2
Fore
SplineSet
371.6953125 695.248046875 m 4
 447.58203125 709.432617188 486.588867188 700.212890625 480.206054688 669.006835938 c 4
 478.078125 658.369140625 469.567382812 656.241210938 421.340820312 654.822265625 c 4
 353.255859375 653.404296875 328.432617188 649.858398438 314.249023438 637.801757812 c 4
 308.575195312 633.545898438 302.19140625 631.41796875 299.35546875 633.545898438 c 4
 297.227539062 636.3828125 288.716796875 634.254882812 280.206054688 629.291015625 c 4
 265.3125 620.780273438 247.58203125 617.234375 224.88671875 616.524414062 c 4
 205.028320312 615.815429688 199.35546875 602.340820312 194.390625 534.96484375 c 6
 189.42578125 470.42578125 l 5
 229.142578125 465.4609375 l 6
 281.624023438 458.369140625 300.064453125 448.439453125 327.723632812 410.850585938 c 4
 346.873046875 384.610351562 375.241210938 317.943359375 385.879882812 275.389648438 c 4
 387.297851562 269.006835938 392.262695312 256.950195312 396.518554688 248.439453125 c 4
 409.993164062 223.6171875 392.262695312 195.248046875 334.81640625 148.439453125 c 4
 312.12109375 130 256.092773438 115.815429688 180.206054688 109.432617188 c 4
 153.255859375 107.3046875 129.142578125 103.758789062 127.723632812 102.340820312 c 4
 126.305664062 100.921875 109.993164062 108.014648438 90.8447265625 117.943359375 c 4
 54.673828125 137.801757812 49 148.439453125 49 198.793945312 c 4
 49 237.091796875 58.220703125 256.241210938 70.986328125 243.475585938 c 4
 77.369140625 237.091796875 78.078125 230.708984375 71.6953125 217.234375 c 4
 59.638671875 190.283203125 86.5888671875 154.822265625 123.46875 147.73046875 c 4
 197.936523438 134.96484375 276.66015625 154.11328125 322.049804688 197.375976562 c 4
 359.638671875 232.127929688 358.220703125 260.49609375 317.0859375 341.34765625 c 4
 286.588867188 400.212890625 268.858398438 414.397460938 222.049804688 415.815429688 c 4
 200.7734375 416.524414062 181.624023438 414.397460938 179.497070312 410.850585938 c 4
 177.369140625 407.3046875 170.27734375 404.467773438 162.475585938 404.467773438 c 4
 149.709960938 404.467773438 147.58203125 413.6875 147.58203125 477.517578125 c 4
 147.58203125 503.758789062 151.836914062 551.985351562 156.092773438 567.588867188 c 4
 158.220703125 574.680664062 153.255859375 578.2265625 141.19921875 578.2265625 c 4
 113.5390625 578.2265625 112.830078125 606.595703125 140.490234375 620.780273438 c 4
 153.255859375 627.163085938 162.475585938 637.091796875 162.475585938 644.893554688 c 4
 162.475585938 666.879882812 180.915039062 677.517578125 201.482421875 666.879882812 c 4
 215.666992188 659.078125 227.723632812 660.49609375 280.915039062 673.971679688 c 4
 314.958007812 682.482421875 356.092773438 692.411132812 371.6953125 695.248046875 c 4
EndSplineSet
EndChar

StartChar: six
Encoding: 54 54 22
Width: 512
Flags: W
LayerCount: 2
Fore
SplineSet
284.028320312 654.610351562 m 0
 340.765625 681.560546875 362.04296875 685.106445312 375.517578125 668.793945312 c 0
 388.284179688 653.19140625 379.063476562 636.879882812 356.369140625 636.169921875 c 0
 317.361328125 635.4609375 254.241210938 592.908203125 203.177734375 534.04296875 c 0
 155.659179688 478.723632812 115.234375 419.149414062 121.6171875 413.475585938 c 0
 125.458007812 407.711914062 305.8046875 477.762695312 365.588867188 468.793945312 c 0
 428 458.865234375 465.588867188 402.836914062 457.078125 332.624023438 c 0
 450.6953125 282.978515625 424.454101562 224.822265625 393.95703125 195.03515625 c 0
 369.84375 170.921875 318.780273438 140.42578125 301.758789062 140.42578125 c 0
 296.793945312 140.42578125 288.284179688 135.4609375 283.319335938 129.787109375 c 0
 278.354492188 124.11328125 263.4609375 119.149414062 249.986328125 119.149414062 c 0
 236.510742188 119.149414062 219.489257812 116.3125 212.397460938 112.056640625 c 0
 203.177734375 107.091796875 193.95703125 108.510742188 179.063476562 115.602539062 c 0
 168.42578125 121.276367188 154.950195312 126.241210938 149.276367188 126.241210938 c 0
 132.254882812 126.241210938 84.7373046875 169.50390625 69.84375 197.872070312 c 0
 62.751953125 213.475585938 57.787109375 225.532226562 59.2060546875 225.532226562 c 0
 60.6240234375 225.532226562 59.2060546875 236.169921875 55.6591796875 248.936523438 c 0
 52.11328125 262.411132812 52.11328125 281.560546875 55.6591796875 294.326171875 c 0
 64.4560546875 322.470703125 47.017578125 328.10546875 59.2060546875 352.482421875 c 0
 64.8798828125 362.411132812 73.3896484375 390.780273438 79.7734375 414.893554688 c 0
 85.447265625 439.006835938 97.50390625 465.95703125 106.014648438 475.177734375 c 0
 114.524414062 484.397460938 128 504.254882812 135.801757812 519.858398438 c 0
 159.915039062 565.95703125 226.58203125 626.950195312 284.028320312 654.610351562 c 0
393.248046875 426.950195312 m 0
 369.84375 435.4609375 272.680664062 426.241210938 240.765625 412.765625 c 0
 225.872070312 405.673828125 210.978515625 402.127929688 198.212890625 401.41796875 c 0
 192.5390625 401.41796875 175.517578125 392.198242188 161.333007812 380.850585938 c 0
 147.149414062 369.50390625 131.545898438 360.283203125 128 360.283203125 c 0
 123.745117188 360.283203125 120.198242188 353.19140625 120.198242188 344.680664062 c 0
 120.198242188 335.4609375 115.234375 321.985351562 109.560546875 314.893554688 c 0
 94.6669921875 295.745117188 96.7939453125 248.936523438 112.397460938 213.475585938 c 0
 128 180.141601562 157.787109375 160.993164062 197.50390625 158.865234375 c 0
 222.326171875 157.447265625 291.12109375 176.595703125 307.432617188 189.361328125 c 0
 311.6875 192.198242188 323.745117188 197.163085938 333.673828125 199.291015625 c 0
 357.078125 204.96484375 406.723632812 268.793945312 417.361328125 307.091796875 c 0
 432.254882812 361.702148438 421.6171875 415.602539062 393.248046875 426.950195312 c 0
EndSplineSet
EndChar

StartChar: seven
Encoding: 55 55 23
Width: 462
Flags: HMW
HStem: 564.539 43.2627
LayerCount: 2
Fore
SplineSet
133.96875 619.149414062 m 0
 255.59375 624.719726562 324.270507812 630.756835938 399.216796875 643.262695312 c 0
 424.749023438 646.099609375 424.749023438 594.326171875 399.216796875 566.666992188 c 0
 393.54296875 560.283203125 385.7421875 542.552734375 381.486328125 526.950195312 c 0
 377.940429688 511.34765625 366.592773438 476.595703125 356.6640625 450.354492188 c 0
 330.422851562 381.560546875 315.529296875 304.254882812 310.564453125 214.893554688 c 0
 306.309570312 137.588867188 306.309570312 136.879882812 288.578125 136.879882812 c 2
 270.84765625 136.879882812 l 1
 272.975585938 200.708984375 l 2
 274.39453125 236.169921875 279.358398438 290.071289062 285.032226562 321.276367188 c 0
 304.181640625 429.787109375 306.309570312 439.716796875 319.075195312 464.5390625 c 0
 329.00390625 483.6875 352.408203125 568.793945312 352.408203125 585.815429688 c 0
 352.408203125 597.798828125 253.091796875 584.65234375 242.479492188 583.6875 c 0
 163.046875 578.014648438 120.493164062 571.630859375 105.599609375 564.5390625 c 0
 70.84765625 546.80859375 29.00390625 584.397460938 57.373046875 607.801757812 c 0
 63.046875 612.765625 96.3798828125 617.73046875 133.96875 619.149414062 c 0
EndSplineSet
EndChar

StartChar: eight
Encoding: 56 56 24
Width: 525
Flags: W
LayerCount: 2
Fore
SplineSet
253.9375 671.630859375 m 0
 292.235351562 682.26953125 330.533203125 680.850585938 335.498046875 668.084960938 c 0
 337.625976562 661.702148438 346.845703125 648.936523438 355.356445312 639.716796875 c 0
 378.760742188 614.893554688 392.235351562 517.73046875 377.341796875 487.234375 c 0
 367.413085938 467.375976562 367.413085938 465.95703125 382.306640625 460.283203125 c 0
 407.129882812 450.354492188 441.171875 409.219726562 455.356445312 370.921875 c 0
 475.21484375 319.149414062 473.795898438 243.262695312 453.228515625 213.475585938 c 0
 431.243164062 183.6875 365.28515625 140.42578125 309.256835938 121.276367188 c 0
 256.774414062 102.127929688 239.043945312 99.291015625 175.923828125 95.7451171875 c 0
 131.952148438 92.908203125 129.82421875 93.6171875 98.619140625 121.985351562 c 0
 59.611328125 157.447265625 47.5546875 189.361328125 51.810546875 247.517578125 c 0
 54.6474609375 294.326171875 58.90234375 303.545898438 112.802734375 386.524414062 c 0
 134.7890625 421.985351562 135.498046875 426.241210938 120.604492188 439.006835938 c 0
 98.619140625 457.447265625 95.072265625 480.850585938 107.129882812 534.04296875 c 0
 115.639648438 573.758789062 123.44140625 589.361328125 141.171875 606.3828125 c 0
 167.413085938 631.206054688 219.895507812 661.702148438 253.9375 671.630859375 c 0
278.760742188 621.276367188 m 0
 270.25 617.021484375 262.448242188 617.020507812 256.774414062 621.984375 c 0
 245.455078125 631.689453125 241.848632812 622.86328125 229.82421875 619.858398438 c 0
 224.860351562 619.149414062 207.129882812 609.928710938 191.526367188 598.58203125 c 0
 167.413085938 582.978515625 160.321289062 572.340820312 153.228515625 546.099609375 c 0
 139.75390625 495.745117188 139.043945312 482.978515625 149.682617188 469.50390625 c 0
 158.90234375 456.737304688 161.030273438 456.737304688 204.29296875 473.049804688 c 0
 261.030273438 494.326171875 298.619140625 499.291015625 313.512695312 487.234375 c 0
 323.44140625 479.432617188 326.987304688 480.141601562 338.334960938 494.326171875 c 0
 346.13671875 503.545898438 351.810546875 518.439453125 351.810546875 527.659179688 c 0
 351.810546875 558.865234375 336.20703125 616.3125 326.987304688 619.858398438 c 0
 307.838867188 627.659179688 291.526367188 627.659179688 278.760742188 621.276367188 c 0
384.434570312 417.729492188 m 0
 358.90234375 433.33203125 314.930664062 434.041992188 266.704101562 419.857421875 c 0
 248.973632812 414.892578125 224.860351562 410.637695312 212.802734375 410.637695312 c 0
 187.271484375 409.927734375 131.952148438 365.956054688 131.952148438 346.098632812 c 0
 131.952148438 339.005859375 126.987304688 329.077148438 120.604492188 324.112304688 c 0
 105.7109375 312.055664062 95.7822265625 285.814453125 92.2353515625 246.807617188 c 0
 90.1083984375 229.077148438 87.271484375 211.346679688 85.8525390625 206.381835938 c 0
 82.4873046875 196.284179688 103.583007812 183.237304688 103.583007812 174.466796875 c 0
 103.583007812 165.956054688 124.860351562 143.970703125 143.299804688 134.750976562 c 0
 170.25 120.56640625 266.704101562 140.424804688 337.625976562 174.466796875 c 0
 394.36328125 201.416992188 428.40625 230.495117188 436.20703125 258.864257812 c 0
 451.100585938 310.637695312 424.150390625 393.616210938 384.434570312 417.729492188 c 0
EndSplineSet
EndChar

StartChar: nine
Encoding: 57 57 25
Width: 450
Flags: W
LayerCount: 2
Fore
SplineSet
235.762695312 696.879882812 m 4
 249.23828125 699.006835938 274.770507812 699.006835938 292.500976562 696.169921875 c 4
 321.579101562 691.915039062 339.309570312 686.950195312 390.374023438 667.801757812 c 4
 408.813476562 660.708984375 410.94140625 639.432617188 396.047851562 603.971679688 c 4
 381.595703125 569.647460938 375.599609375 516.8828125 363.423828125 487.659179688 c 4
 349.948242188 452.908203125 335.763671875 396.169921875 339.309570312 390.49609375 c 4
 344.875 381.22265625 317.583007812 359.612304688 324.416015625 349.361328125 c 4
 327.252929688 345.106445312 324.416015625 334.467773438 318.7421875 325.95703125 c 4
 313.068359375 317.447265625 306.685546875 299.006835938 304.55859375 285.532226562 c 4
 297.465820312 242.978515625 277.607421875 147.943359375 271.93359375 128.793945312 c 4
 268.387695312 117.447265625 269.806640625 103.971679688 275.48046875 92.6240234375 c 4
 283.28125 77.73046875 282.572265625 72.056640625 271.224609375 52.908203125 c 4
 257.040039062 29.50390625 246.40234375 25.95703125 230.08984375 36.595703125 c 4
 213.85546875 45.4501953125 232.510742188 148.409179688 235.762695312 161.41796875 c 4
 266.96875 269.928710938 285.408203125 342.26953125 286.1171875 360 c 4
 287.8515625 389.4453125 303.154296875 418.219726562 309.521484375 443.6875 c 4
 315.1953125 468.510742188 306.684570312 468.510742188 247.110351562 441.560546875 c 4
 184.69921875 413.19140625 82.5712890625 403.971679688 64.8408203125 424.5390625 c 4
 35.7626953125 458.58203125 44.982421875 522.411132812 87.5361328125 585.532226562 c 4
 133.634765625 652.908203125 179.025390625 686.950195312 235.762695312 696.879882812 c 4
329.380859375 644.397460938 m 6
 313.778320312 657.872070312 302.430664062 660.708984375 271.224609375 660.708984375 c 4
 249.948242188 660.708984375 223.70703125 656.454101562 213.068359375 651.489257812 c 4
 191.083007812 641.560546875 122.2890625 578.439453125 122.2890625 567.801757812 c 4
 122.2890625 564.254882812 115.905273438 552.198242188 108.813476562 541.560546875 c 4
 101.01171875 530.921875 93.2109375 511.063476562 90.3740234375 496.169921875 c 4
 80.4443359375 445.106445312 110.94140625 436.595703125 201.01171875 464.96484375 c 4
 295.337890625 495.4609375 302.430664062 501.84375 335.763671875 592.624023438 c 6
 348.529296875 627.375976562 l 5
 329.380859375 644.397460938 l 6
EndSplineSet
EndChar

StartChar: colon
Encoding: 58 58 26
Width: 201
Flags: HMW
HStem: 118.439 85.8154
LayerCount: 2
Fore
SplineSet
67.4619140625 433.333007812 m 0
 73.505859375 454.494140625 143.348632812 472.454101562 143.348632812 441.134765625 c 0
 143.348632812 430.49609375 110.724609375 395.745117188 100.794921875 395.745117188 c 0
 89.447265625 395.745117188 63.916015625 424.11328125 67.4619140625 433.333007812 c 0
80.9365234375 185.107421875 m 0
 93.703125 195.74609375 105.759765625 204.255859375 107.887695312 204.255859375 c 0
 110.014648438 204.255859375 116.397460938 193.618164062 120.653320312 180.142578125 c 0
 129.873046875 154.611328125 121.362304688 119.859375 105.05078125 118.440429688 c 0
 50.4404296875 112.766601562 37.6748046875 148.227539062 80.9365234375 185.107421875 c 0
EndSplineSet
EndChar

StartChar: semicolon
Encoding: 59 59 27
Width: 217
Flags: W
LayerCount: 2
Fore
SplineSet
74.955078125 452.482421875 m 0
 96.9404296875 460.993164062 99.068359375 460.993164062 111.125 448.2265625 c 0
 126.727539062 432.624023438 125.309570312 420.567382812 104.7421875 399.291015625 c 0
 85.5927734375 380.850585938 62.8984375 375.88671875 55.0966796875 389.361328125 c 0
 45.876953125 404.254882812 58.642578125 446.099609375 74.955078125 452.482421875 c 0
95.5224609375 202.836914062 m 0
 100.487304688 207.801757812 106.16015625 211.34765625 108.288085938 211.34765625 c 0
 116.798828125 211.34765625 129.564453125 193.6171875 129.564453125 181.560546875 c 0
 129.564453125 174.467773438 133.8203125 160.993164062 139.494140625 152.482421875 c 0
 158.642578125 123.404296875 165.025390625 61.7021484375 154.387695312 16.3125 c 0
 138.78515625 -51.7734375 104.033203125 -80.8505859375 69.990234375 -54.6103515625 c 0
 58.642578125 -46.099609375 57.93359375 -42.552734375 65.7353515625 -33.3330078125 c 0
 70.69921875 -27.6591796875 79.2099609375 -22.6953125 84.8837890625 -22.6953125 c 0
 113.961914062 -22.6953125 125.309570312 110.638671875 99.068359375 147.517578125 c 0
 84.8837890625 168.084960938 83.4658203125 190.780273438 95.5224609375 202.836914062 c 0
EndSplineSet
EndChar

StartChar: less
Encoding: 60 60 28
Width: 520
Flags: W
LayerCount: 2
Fore
SplineSet
382.016601562 571.630859375 m 0
 402.583984375 582.978515625 412.512695312 582.26953125 421.0234375 566.666992188 c 0
 424.569335938 558.865234375 428.115234375 551.063476562 428.115234375 549.645507812 c 0
 428.115234375 542.552734375 360.030273438 497.163085938 321.732421875 478.723632812 c 0
 262.8671875 448.936523438 119.60546875 350.354492188 119.60546875 339.006835938 c 0
 119.60546875 331.915039062 145.13671875 319.858398438 194.073242188 303.545898438 c 0
 235.208007812 289.361328125 286.271484375 268.793945312 307.547851562 256.737304688 c 0
 395.491210938 207.801757812 462.8671875 164.5390625 467.123046875 155.319335938 c 0
 469.25 149.645507812 464.995117188 138.297851562 457.193359375 130.49609375 c 0
 443.009765625 117.021484375 443.009765625 117.021484375 411.094726562 146.099609375 c 0
 372.796875 181.560546875 272.796875 237.588867188 218.895507812 253.900390625 c 0
 174.180664062 268.12890625 171.26171875 272.24609375 116.05859375 282.978515625 c 0
 64.9951171875 292.198242188 43.71875 305.673828125 50.1015625 323.404296875 c 0
 57.193359375 343.971679688 96.91015625 381.560546875 133.7890625 402.127929688 c 0
 188.640625 434.6328125 255.256835938 482.36328125 311.094726562 520.567382812 c 0
 338.75390625 539.006835938 362.158203125 556.028320312 364.286132812 558.865234375 c 0
 366.4140625 561.702148438 374.21484375 567.375976562 382.016601562 571.630859375 c 0
EndSplineSet
EndChar

StartChar: equal
Encoding: 61 61 29
Width: 696
Flags: W
LayerCount: 2
Fore
SplineSet
221.723632812 473.758789062 m 0
 370.659179688 493.6171875 575.624023438 482.978515625 612.50390625 453.19140625 c 2
 626.6875 441.84375 l 1
 615.471679688 430.364257812 603.893554688 419.248046875 591.936523438 408.510742188 c 1
 571.369140625 423.404296875 l 2
 535.908203125 450.354492188 409.666992188 457.447265625 256.475585938 442.552734375 c 0
 246.545898438 441.84375 235.198242188 438.297851562 230.234375 435.4609375 c 0
 225.978515625 433.333007812 210.375976562 429.787109375 195.482421875 427.659179688 c 0
 180.588867188 426.241210938 150.801757812 421.985351562 129.524414062 418.439453125 c 0
 84.134765625 410.638671875 79.8798828125 412.056640625 79.8798828125 434.751953125 c 0
 79.8798828125 454.610351562 78.4609375 453.900390625 221.723632812 473.758789062 c 0
526.6875 348.2265625 m 0
 621.014648438 352.482421875 664.985351562 334.04296875 623.850585938 307.091796875 c 0
 610.375976562 298.58203125 602.57421875 297.872070312 584.134765625 304.254882812 c 0
 557.184570312 313.475585938 394.063476562 309.928710938 377.751953125 300 c 0
 372.078125 295.745117188 360.73046875 292.198242188 352.928710938 292.198242188 c 0
 307.6328125 287.984375 164.046875 261.328125 103.993164062 256.028320312 c 0
 62.8583984375 252.482421875 60.73046875 253.19140625 56.4755859375 268.793945312 c 0
 53.638671875 278.014648438 55.056640625 288.65234375 59.3125 292.908203125 c 0
 62.8583984375 296.454101562 98.3193359375 300.708984375 138.03515625 301.41796875 c 0
 177.751953125 302.836914062 238.745117188 309.219726562 274.206054688 317.021484375 c 0
 341.581054688 331.206054688 447.96484375 344.680664062 526.6875 348.2265625 c 0
EndSplineSet
EndChar

StartChar: greater
Encoding: 62 62 30
Width: 462
Flags: W
LayerCount: 2
Fore
SplineSet
71.859375 544.680664062 m 0
 78.2421875 555.319335938 112.993164062 553.190429688 130.723632812 541.133789062 c 0
 139.234375 534.750976562 167.602539062 524.112304688 193.84375 517.020507812 c 0
 220.793945312 509.927734375 272.567382812 490.0703125 309.446289062 472.33984375 c 0
 346.326171875 454.609375 383.915039062 437.587890625 392.42578125 435.459960938 c 0
 408.028320312 430.495117188 420.084960938 408.509765625 412.993164062 396.453125 c 0
 410.15625 392.907226562 394.552734375 382.977539062 376.822265625 374.466796875 c 0
 359.801757812 365.956054688 335.6875 348.225585938 324.340820312 334.750976562 c 0
 312.283203125 321.275390625 300.2265625 310.637695312 297.389648438 310.637695312 c 0
 294.552734375 310.637695312 275.404296875 297.87109375 254.836914062 282.268554688 c 0
 195.953125 239.62890625 182.047851562 240.44921875 123.630859375 185.10546875 c 0
 74.6953125 139.715820312 53.41796875 131.205078125 48.4541015625 156.736328125 c 0
 44.9072265625 175.885742188 59.8017578125 189.360351562 177.532226562 275.176757812 c 0
 273.985351562 344.6796875 345.6171875 405.672851562 337.106445312 412.055664062 c 0
 335.6875 413.474609375 315.120117188 423.403320312 291.715820312 434.041992188 c 0
 268.311523438 444.6796875 239.943359375 457.446289062 229.3046875 463.119140625 c 0
 217.95703125 468.79296875 204.482421875 473.7578125 198.80859375 473.7578125 c 0
 193.134765625 473.7578125 183.206054688 476.594726562 176.11328125 480.140625 c 0
 150.73046875 494.2421875 50.05859375 508.34765625 71.859375 544.680664062 c 0
EndSplineSet
EndChar

StartChar: question
Encoding: 63 63 31
Width: 469
Flags: HMW
HStem: 76.5957 57.4473
LayerCount: 2
Fore
SplineSet
182.2890625 652.482421875 m 0
 232.643554688 670.921875 329.806640625 660.993164062 379.452148438 631.206054688 c 0
 408.530273438 614.893554688 429.09765625 576.595703125 422.005859375 554.610351562 c 0
 414.913085938 534.04296875 343.282226562 459.57421875 329.806640625 459.57421875 c 0
 324.842773438 459.57421875 320.586914062 456.737304688 320.586914062 452.482421875 c 0
 320.586914062 448.936523438 312.786132812 443.971679688 303.565429688 441.134765625 c 0
 293.63671875 439.006835938 273.069335938 424.11328125 257.466796875 407.801757812 c 0
 241.86328125 391.489257812 214.204101562 363.830078125 196.473632812 346.80859375 c 0
 163.849609375 314.184570312 161.012695312 306.3828125 164.55859375 248.936523438 c 0
 165.977539062 215.602539062 154.629882812 204.96484375 130.516601562 217.73046875 c 0
 114.204101562 226.241210938 102.856445312 280.141601562 114.913085938 292.198242188 c 0
 118.458984375 295.745117188 122.005859375 310.638671875 122.005859375 324.822265625 c 0
 122.005859375 347.517578125 126.260742188 353.19140625 173.778320312 388.65234375 c 0
 239.026367188 438.297851562 356.047851562 536.879882812 371.651367188 555.319335938 c 0
 385.834960938 572.340820312 379.452148438 582.26953125 341.86328125 601.41796875 c 0
 309.239257812 618.439453125 234.771484375 621.985351562 196.473632812 609.219726562 c 0
 149.665039062 593.6171875 102.856445312 565.95703125 92.927734375 547.517578125 c 0
 80.1611328125 522.6953125 48.2470703125 526.241210938 45.41015625 553.19140625 c 0
 43.2822265625 568.793945312 48.9560546875 576.595703125 73.7783203125 594.326171875 c 0
 111.3671875 621.985351562 136.190429688 635.4609375 182.2890625 652.482421875 c 0
137.608398438 128.369140625 m 0
 153.2109375 143.971679688 154.629882812 143.971679688 173.069335938 134.04296875 c 0
 204.275390625 116.3125 195.764648438 76.595703125 161.721679688 76.595703125 c 0
 147.537109375 76.595703125 122.005859375 95.7451171875 122.005859375 106.3828125 c 0
 122.005859375 109.928710938 129.09765625 119.858398438 137.608398438 128.369140625 c 0
EndSplineSet
EndChar

StartChar: at
Encoding: 64 64 32
Width: 684
Flags: HMW
VStem: 351.335 45.3906
LayerCount: 2
Fore
SplineSet
408.07421875 575.177734375 m 0
 418.002929688 576.595703125 447.790039062 578.723632812 474.740234375 579.432617188 c 2
 523.676757812 580.141601562 l 1
 561.974609375 539.716796875 l 2
 601.69140625 498.58203125 617.293945312 472.340820312 614.45703125 451.063476562 c 0
 613.748046875 444.680664062 617.293945312 429.787109375 622.967773438 419.149414062 c 0
 639.989257812 385.815429688 629.350585938 338.297851562 588.215820312 263.120117188 c 0
 564.811523438 221.276367188 507.364257812 158.865234375 479.705078125 144.680664062 c 0
 469.776367188 139.716796875 449.208984375 133.333007812 434.315429688 130.49609375 c 0
 392.470703125 122.6953125 376.868164062 136.879882812 366.229492188 191.489257812 c 0
 352.045898438 260.283203125 353.463867188 258.865234375 327.931640625 234.04296875 c 0
 315.166015625 221.985351562 290.34375 208.510742188 271.903320312 203.545898438 c 0
 238.5703125 194.326171875 237.861328125 195.03515625 216.584960938 214.893554688 c 0
 192.470703125 238.297851562 188.215820312 269.50390625 205.237304688 302.836914062 c 0
 219.421875 329.078125 271.194335938 373.758789062 293.889648438 378.723632812 c 0
 303.818359375 380.850585938 319.421875 385.815429688 327.931640625 390.071289062 c 0
 350.626953125 401.41796875 422.2578125 389.361328125 432.1875 373.049804688 c 0
 438.5703125 362.411132812 435.733398438 356.737304688 415.875 339.006835938 c 0
 395.307617188 319.858398438 393.180664062 314.184570312 396.7265625 290.780273438 c 0
 398.854492188 276.595703125 402.400390625 250.354492188 403.818359375 233.333007812 c 0
 405.946289062 204.254882812 425.8046875 175.88671875 443.53515625 175.88671875 c 0
 455.591796875 175.88671875 521.548828125 234.751953125 547.790039062 269.50390625 c 0
 585.37890625 319.149414062 595.307617188 351.063476562 590.34375 408.510742188 c 0
 586.796875 442.552734375 580.4140625 463.120117188 563.392578125 488.65234375 c 0
 534.315429688 534.751953125 505.946289062 548.2265625 450.626953125 542.552734375 c 0
 362.68359375 533.333007812 257.719726562 485.815429688 214.45703125 435.4609375 c 0
 193.889648438 411.34765625 125.8046875 260.993164062 105.237304688 194.326171875 c 0
 98.14453125 169.50390625 96.017578125 145.389648438 99.5634765625 107.801757812 c 0
 104.52734375 58.15625 105.946289062 53.900390625 135.733398438 24.11328125 c 0
 176.159179688 -15.6025390625 205.237304688 -29.078125 260.556640625 -34.04296875 c 0
 313.038085938 -39.0068359375 410.911132812 -17.73046875 466.229492188 9.9287109375 c 0
 502.400390625 28.369140625 512.329101562 44.6806640625 482.541992188 36.8798828125 c 0
 461.974609375 31.9150390625 451.3359375 49.6455078125 464.811523438 65.95703125 c 0
 478.287109375 82.26953125 495.307617188 78.7236328125 525.8046875 52.482421875 c 2
 553.463867188 28.369140625 l 1
 537.15234375 11.34765625 l 2
 528.641601562 2.1279296875 503.109375 -13.4755859375 480.4140625 -21.9853515625 c 0
 413.904296875 -49.8798828125 373.3515625 -65.248046875 270.485351562 -65.248046875 c 0
 215.166015625 -65.248046875 200.272460938 -62.4111328125 169.776367188 -47.517578125 c 0
 120.83984375 -22.6953125 93.8896484375 3.5458984375 71.1943359375 48.2265625 c 0
 42.8251953125 104.254882812 41.4072265625 153.900390625 68.357421875 208.510742188 c 0
 79.705078125 231.206054688 88.9248046875 254.610351562 88.9248046875 258.865234375 c 0
 88.9248046875 267.375976562 120.130859375 339.006835938 154.8828125 409.928710938 c 0
 175.450195312 452.482421875 231.478515625 506.3828125 276.868164062 526.950195312 c 0
 324.385742188 548.936523438 385.37890625 571.630859375 408.07421875 575.177734375 c 0
351.3359375 344.680664062 m 0
 351.3359375 356.737304688 346.372070312 355.319335938 305.237304688 336.169921875 c 0
 258.428710938 314.184570312 236.442382812 289.361328125 239.279296875 263.830078125 c 0
 240.698242188 247.517578125 245.662109375 242.552734375 261.265625 241.134765625 c 0
 274.03125 239.716796875 287.506835938 243.971679688 296.017578125 251.7734375 c 0
 312.329101562 266.666992188 351.3359375 331.206054688 351.3359375 344.680664062 c 0
EndSplineSet
EndChar

StartChar: A
Encoding: 65 65 33
Width: 552
Flags: W
LayerCount: 2
Fore
SplineSet
263.342773438 698.014648438 m 4
 272.5625 709.361328125 283.201171875 705.815429688 292.420898438 688.084960938 c 4
 296.676757812 680.993164062 308.733398438 659.716796875 320.080078125 641.276367188 c 4
 340.647460938 607.943359375 360.505859375 548.369140625 364.051757812 515.03515625 c 4
 364.76171875 505.106445312 366.888671875 492.340820312 369.725585938 486.666992188 c 4
 371.853515625 480.993164062 381.782226562 451.915039062 391.002929688 422.836914062 c 4
 417.243164062 344.11328125 427.881835938 317.163085938 437.1015625 307.943359375 c 4
 442.06640625 302.978515625 445.612304688 295.177734375 445.612304688 289.50390625 c 4
 445.612304688 283.830078125 454.83203125 261.134765625 466.1796875 239.149414062 c 4
 493.83984375 186.666992188 498.094726562 163.971679688 484.619140625 150.49609375 c 4
 468.307617188 134.184570312 453.4140625 144.11328125 445.612304688 177.447265625 c 4
 435.072265625 218.555664062 420.802734375 242.120117188 400.931640625 277.447265625 c 4
 393.83984375 290.921875 383.201171875 299.432617188 371.853515625 300.850585938 c 4
 361.924804688 302.26953125 353.4140625 305.815429688 353.4140625 309.361328125 c 4
 353.4140625 316.454101562 324.3359375 327.091796875 314.407226562 324.254882812 c 4
 310.860351562 322.836914062 300.931640625 321.41796875 293.129882812 320.708984375 c 4
 252.705078125 316.454101562 215.116210938 306.524414062 188.166015625 292.340820312 c 4
 159.796875 276.737304688 156.959960938 273.19140625 132.846679688 202.26953125 c 4
 105.186523438 120.708984375 72.5625 59.0068359375 59.796875 63.2626953125 c 4
 49.158203125 66.80859375 54.123046875 123.545898438 66.888671875 142.6953125 c 4
 80.4912109375 163.098632812 62.427734375 163.056640625 78.9453125 179.57421875 c 4
 84.619140625 186.666992188 95.2578125 206.524414062 101.640625 224.254882812 c 4
 137.810546875 324.254882812 157.668945312 383.830078125 173.272460938 444.11328125 c 4
 199.512695312 541.985351562 247.03125 676.028320312 263.342773438 698.014648438 c 4
298.803710938 580.283203125 m 4
 288.166015625 602.26953125 276.818359375 620.708984375 274.690429688 621.41796875 c 4
 266.888671875 621.41796875 232.846679688 538.439453125 221.499023438 490.212890625 c 4
 215.116210938 463.262695312 201.640625 417.163085938 192.420898438 388.793945312 c 4
 182.4921875 359.716796875 176.109375 335.602539062 177.52734375 334.893554688 c 4
 178.236328125 333.475585938 208.733398438 339.858398438 243.484375 349.078125 c 4
 278.9453125 357.588867188 319.37109375 365.389648438 333.555664062 365.389648438 c 4
 347.740234375 366.099609375 361.21484375 368.936523438 363.342773438 371.7734375 c 4
 368.307617188 380.283203125 320.790039062 535.602539062 298.803710938 580.283203125 c 4
EndSplineSet
EndChar

StartChar: B
Encoding: 66 66 34
Width: 502
Flags: HMW
HStem: 147.518 19.1494<74.1766 74.1766 74.1766 78.078> 328.369 42.5527
VStem: 79.1414 33.333<436.171 436.171 436.171 451.773> 96.8719 31.2061 398.29 40.4258
LayerCount: 2
Fore
SplineSet
81.26953125 658.369140625 m 4xe8
 98.2900390625 676.80859375 102.545898438 677.517578125 113.893554688 664.04296875 c 4
 120.276367188 656.241210938 128.078125 655.532226562 145.098632812 660.49609375 c 4
 179.141601562 670.42578125 297.581054688 673.262695312 341.552734375 665.4609375 c 4
 362.829101562 661.206054688 387.65234375 656.950195312 396.163085938 655.532226562 c 4
 419.567382812 651.276367188 434.4609375 623.6171875 438.715820312 575.389648438 c 4
 442.26171875 537.091796875 440.84375 531.41796875 422.404296875 507.3046875 c 4
 411.765625 493.120117188 385.524414062 466.879882812 364.248046875 449.858398438 c 4
 333.041992188 424.326171875 328.078125 417.943359375 339.424804688 414.397460938 c 4
 369.212890625 405.177734375 381.978515625 398.084960938 403.963867188 379.645507812 c 4
 423.11328125 363.333007812 426.659179688 356.241210938 426.659179688 328.58203125 c 4
 426.659179688 288.15625 410.34765625 260.49609375 361.411132812 220.780273438 c 4
 321.694335938 188.15625 223.11328125 138.510742188 184.106445312 131.41796875 c 4
 159.283203125 127.163085938 105.3828125 135.673828125 108.928710938 142.765625 c 4
 112.474609375 151.276367188 99.1064453125 177.517578125 87.0498046875 177.517578125 c 4
 79.95703125 177.517578125 72.865234375 182.482421875 70.0283203125 188.15625 c 4
 67.19140625 196.666992188 71.4462890625 198.084960938 89.1767578125 196.666992188 c 6
 96.8720703125 195.248046875 l 5xd8
 94.744140625 241.34765625 l 6
 93.326171875 266.879882812 89.0703125 300.212890625 85.5244140625 315.815429688 c 4
 82.6875 331.41796875 79.1416015625 389.57421875 79.1416015625 445.602539062 c 4
 79.1416015625 517.943359375 76.3046875 554.11328125 68.5029296875 571.84375 c 4
 56.4462890625 601.630859375 61.4111328125 635.673828125 81.26953125 658.369140625 c 4xe8
360.702148438 620.780273438 m 4
 329.49609375 626.454101562 242.26171875 636.383789062 240.134765625 634.255859375 c 4
 239.424804688 633.546875 220.985351562 630.709960938 199.708984375 628.583007812 c 4
 178.432617188 625.74609375 149.354492188 618.653320312 135.87890625 611.561523438 c 6
 111.056640625 599.504882812 l 5
 112.474609375 466.170898438 l 6xe8
 113.184570312 392.412109375 116.73046875 328.583007812 120.276367188 324.327148438 c 4
 123.822265625 319.362304688 127.368164062 298.0859375 128.078125 276.809570312 c 4
 129.49609375 215.81640625 147.2265625 168.298828125 168.502929688 164.752929688 c 4
 198.405273438 160.481445312 447.813476562 284.78125 372.758789062 353.404296875 c 4
 357.15625 366.879882812 347.2265625 369.006835938 296.872070312 369.006835938 c 4
 264.95703125 369.006835938 223.11328125 364.04296875 203.254882812 358.369140625 c 4
 158.57421875 344.184570312 135.87890625 349.149414062 135.87890625 372.552734375 c 4
 135.87890625 386.737304688 145.098632812 399.50390625 157.15625 400.921875 c 4
 159.283203125 401.630859375 179.850585938 404.467773438 203.254882812 407.3046875 c 4
 248.645507812 412.978515625 272.049804688 425.03515625 335.87890625 473.262695312 c 4
 378.432617188 505.88671875 398.290039062 535.673828125 398.290039062 569.006835938 c 4
 398.290039062 600.212890625 386.943359375 615.815429688 360.702148438 620.780273438 c 4
EndSplineSet
EndChar

StartChar: C
Encoding: 67 67 35
Width: 596
Flags: W
HStem: 641.417 21G<455.258 466.251>
LayerCount: 2
Fore
SplineSet
320.150390625 671.206054688 m 4
 391.782226562 703.120117188 435.044921875 706.666015625 459.159179688 681.133789062 c 4
 475.470703125 663.403320312 474.76171875 641.416992188 457.740234375 641.416992188 c 4
 452.775390625 641.416992188 439.30078125 646.381835938 428.662109375 652.055664062 c 4
 402.420898438 665.53125 379.016601562 659.857421875 305.967773438 622.268554688 c 4
 260.577148438 598.864257812 238.591796875 581.842773438 201.711914062 540.708007812 c 4
 154.194335938 487.516601562 115.1875 421.559570312 117.314453125 397.446289062 c 4
 117.314453125 389.64453125 114.477539062 377.587890625 110.22265625 369.786132812 c 4
 98.875 348.509765625 101.002929688 285.388671875 113.768554688 261.275390625 c 4
 157.03125 178.296875 279.7265625 149.927734375 419.442382812 190.353515625 c 4
 440.71875 196.736328125 464.833007812 209.502929688 474.052734375 219.431640625 c 4
 493.91015625 239.999023438 517.314453125 242.126953125 530.790039062 225.814453125 c 4
 539.30078125 215.176757812 538.591796875 213.048828125 527.244140625 205.956054688 c 4
 511.872070312 196.734375 469.083984375 165.413085938 448.51953125 161.984375 c 4
 428.40625 158.329101562 358.421875 144.958984375 338.590820312 140.708984375 c 4
 296.310546875 131.461914062 237.639648438 140.557617188 203.838867188 147.801757812 c 4
 177.59765625 152.056640625 120.860351562 186.099609375 103.838867188 207.375976562 c 4
 88.9453125 226.524414062 71.21484375 264.11328125 64.1220703125 290.354492188 c 4
 59.158203125 311.630859375 59.158203125 318.723632812 71.21484375 413.049804688 c 4
 73.341796875 425.815429688 79.7255859375 442.127929688 86.1083984375 449.219726562 c 4
 92.4912109375 456.3125 97.4560546875 466.241210938 97.4560546875 471.915039062 c 4
 97.4560546875 477.588867188 112.349609375 498.865234375 131.498046875 518.014648438 c 4
 149.9375 537.872070312 176.178710938 566.950195312 190.36328125 582.552734375 c 4
 225.82421875 621.560546875 254.193359375 640.708984375 320.150390625 671.206054688 c 4
EndSplineSet
EndChar

StartChar: D
Encoding: 68 68 36
Width: 559
Flags: HMW
VStem: 118.412 46.8086<189.362 296.121>
LayerCount: 2
Fore
SplineSet
134.014648438 670.212890625 m 0
 240.397460938 687.943359375 359.546875 658.15625 427.631835938 597.163085938 c 0
 475.858398438 553.19140625 492.879882812 514.893554688 495.716796875 441.84375 c 0
 497.134765625 399.291015625 495.0078125 368.793945312 488.625 349.645507812 c 0
 460.96484375 270.212890625 260.255859375 133.333007812 154.58203125 121.985351562 c 0
 109.901367188 117.021484375 70.89453125 134.751953125 66.638671875 161.702148438 c 4
 66.638671875 161.702148438 64.5107421875 179.432617188 79.404296875 165.95703125 c 0
 93.5888671875 152.482421875 95.716796875 152.482421875 107.064453125 164.5390625 c 0
 116.993164062 174.467773438 119.12109375 189.361328125 118.412109375 245.389648438 c 0
 118.412109375 346.8515625 109.708984375 386.50390625 104.936523438 491.489257812 c 0
 100.681640625 575.177734375 100.681640625 577.3046875 78.6953125 599.291015625 c 2
 56 622.6953125 l 1
 70.89453125 641.84375 l 2
 82.2412109375 658.15625 94.298828125 663.120117188 134.014648438 670.212890625 c 0
271.603515625 625.532226562 m 0
 219.830078125 637.588867188 170.184570312 639.006835938 144.653320312 629.078125 c 0
 129.759765625 623.404296875 128.340820312 619.149414062 132.596679688 592.198242188 c 0
 139.45703125 539.586914062 151.87109375 347.970703125 158.127929688 292.908203125 c 0
 162.383789062 261.702148438 165.220703125 219.858398438 165.220703125 199.291015625 c 0
 165.220703125 179.432617188 168.057617188 160.993164062 170.89453125 158.865234375 c 0
 179.404296875 153.900390625 253.873046875 185.815429688 302.80859375 215.602539062 c 0
 377.27734375 260.993164062 425.50390625 303.545898438 441.81640625 338.297851562 c 0
 457.418945312 373.049804688 462.383789062 447.517578125 452.454101562 494.326171875 c 0
 445.362304688 524.822265625 366.638671875 604.96484375 337.560546875 610.638671875 c 0
 326.922851562 612.765625 297.134765625 619.858398438 271.603515625 625.532226562 c 0
EndSplineSet
EndChar

StartChar: E
Encoding: 69 69 37
Width: 536
Flags: HMW
HStem: 139.717 43.9707 617.021 59.5742
VStem: 410.091 63.8301
LayerCount: 2
Fore
SplineSet
385.26953125 688.65234375 m 0
 410.091796875 690.780273438 453.354492188 684.397460938 465.411132812 676.595703125 c 0
 470.375976562 673.758789062 473.921875 660.283203125 473.921875 647.517578125 c 0
 473.921875 626.241210938 471.084960938 622.6953125 451.2265625 617.021484375 c 0
 426.404296875 610.638671875 410.091796875 612.765625 410.091796875 623.404296875 c 0
 410.091796875 626.950195312 415.056640625 631.915039062 420.73046875 634.04296875 c 0
 434.206054688 639.716796875 434.206054688 648.2265625 422.1484375 653.19140625 c 0
 398.03515625 662.411132812 176.758789062 628.369140625 142.715820312 610.638671875 c 0
 121.439453125 599.291015625 120.73046875 597.872070312 129.241210938 580.850585938 c 0
 134.915039062 569.50390625 139.169921875 530.49609375 139.879882812 484.397460938 c 0
 140.588867188 441.84375 142.715820312 404.96484375 144.134765625 402.127929688 c 0
 146.262695312 400 162.57421875 400.708984375 181.013671875 403.545898438 c 0
 322.1484375 428.369140625 399.454101562 437.588867188 405.836914062 431.206054688 c 0
 421.439453125 415.602539062 368.95703125 383.6875 324.985351562 382.978515625 c 0
 295.658203125 379.313476562 268.995117188 375.802734375 229.950195312 370.921875 c 0
 206.545898438 368.793945312 183.850585938 363.830078125 178.177734375 359.57421875 c 0
 173.212890625 355.319335938 165.411132812 353.19140625 160.446289062 354.610351562 c 0
 147.680664062 358.865234375 132.078125 312.056640625 141.297851562 295.03515625 c 0
 145.552734375 286.524414062 145.552734375 277.3046875 140.588867188 268.084960938 c 0
 134.915039062 258.15625 134.915039062 249.645507812 140.588867188 239.716796875 c 0
 145.552734375 229.787109375 146.262695312 221.276367188 140.588867188 212.056640625 c 0
 131.369140625 193.6171875 131.369140625 189.361328125 146.971679688 170.921875 c 2
 159.737304688 156.028320312 l 1
 265.411132812 170.212890625 l 2
 351.936523438 181.560546875 438.4609375 187.234375 468.95703125 183.6875 c 0
 471.793945312 182.978515625 473.921875 177.3046875 473.921875 170.921875 c 0
 473.921875 151.7734375 423.567382812 129.787109375 403.708984375 139.716796875 c 0
 392.361328125 146.099609375 363.283203125 145.389648438 280.3046875 136.879882812 c 0
 221.439453125 130.49609375 167.5390625 123.404296875 161.865234375 121.276367188 c 0
 139.879882812 112.056640625 112.928710938 112.765625 103 122.6953125 c 0
 95.1982421875 129.787109375 93.7802734375 143.262695312 95.908203125 170.212890625 c 0
 105.836914062 281.560546875 105.127929688 341.134765625 93.0712890625 354.610351562 c 0
 82.4326171875 365.95703125 82.4326171875 368.084960938 93.0712890625 380.141601562 c 0
 110.091796875 398.58203125 110.801757812 463.830078125 93.7802734375 560.993164062 c 0
 90.943359375 580.850585938 85.26953125 590.071289062 72.50390625 594.326171875 c 0
 54.0634765625 601.41796875 50.517578125 617.021484375 64.7021484375 628.369140625 c 0
 81.013671875 641.84375 280.3046875 679.432617188 385.26953125 688.65234375 c 0
EndSplineSet
EndChar

StartChar: F
Encoding: 70 70 38
Width: 619
Flags: HMW
HStem: 175.887 21G<128.468 134.142> 629.787 34.752
VStem: 127.759 43.9717
LayerCount: 2
Fore
SplineSet
323.50390625 667.447265625 m 4
 356.836914062 670.283203125 417.830078125 673.831054688 458.96484375 674.540039062 c 4
 522.793945312 675.249023438 536.978515625 673.12109375 550.454101562 662.483398438 c 4
 563.928710938 651.135742188 565.34765625 646.880859375 558.254882812 634.114257812 c 4
 548.326171875 615.674804688 517.12109375 612.837890625 505.063476562 629.150390625 c 4
 497.262695312 639.788085938 484.49609375 641.20703125 400.099609375 639.788085938 c 4
 349.21875 638.198242188 287.893554688 629.267578125 238.397460938 621.34765625 c 4
 196.553710938 615.673828125 174.567382812 606.454101562 173.858398438 595.815429688 c 4
 173.149414062 590.850585938 172.439453125 544.04296875 171.73046875 492.978515625 c 4
 171.021484375 407.163085938 171.73046875 398.65234375 183.078125 398.65234375 c 4
 201.517578125 398.65234375 288.04296875 412.836914062 385.915039062 431.276367188 c 4
 483.078125 450.42578125 505.063476562 451.84375 511.447265625 441.206054688 c 4
 523.50390625 422.056640625 444.071289062 376.666992188 425.630859375 392.26953125 c 4
 414.993164062 400.780273438 324.921875 393.6875 311.447265625 383.049804688 c 4
 306.482421875 379.50390625 300.099609375 378.084960938 296.553710938 380.212890625 c 4
 293.716796875 381.630859375 278.11328125 380.212890625 262.510742188 376.666992188 c 4
 247.6171875 373.120117188 226.340820312 368.865234375 215.702148438 366.737304688 c 4
 172.439453125 360.354492188 170.3125 295.389648438 164.638671875 213.120117188 c 4
 159.673828125 139.361328125 155.418945312 126.595703125 134.141601562 125.88671875 c 4
 122.793945312 125.88671875 107.900390625 181.206054688 116.411132812 191.84375 c 4
 130.595703125 210.283203125 142.65234375 341.206054688 131.3046875 342.624023438 c 4
 127.758789062 343.333007812 120.666992188 344.04296875 116.411132812 344.751953125 c 4
 100.80859375 346.169921875 100.80859375 382.340820312 116.411132812 390.850585938 c 4
 129.177734375 397.234375 129.88671875 405.03515625 127.758789062 491.560546875 c 4
 126.340820312 543.333007812 122.793945312 588.014648438 119.95703125 590.850585938 c 4
 116.411132812 594.397460938 104.354492188 592.26953125 93.0068359375 585.88671875 c 4
 68.8935546875 573.830078125 54 577.375976562 54 595.815429688 c 4
 54 615.673828125 71.021484375 627.021484375 109.319335938 634.11328125 c 4
 210.028320312 652.552734375 269.602539062 661.7734375 323.50390625 667.447265625 c 4
EndSplineSet
EndChar

StartChar: G
Encoding: 71 71 39
Width: 636
Flags: HMW
HStem: 175.887 28.3682 631.063 20G<422.593 457.488>
VStem: 517.062 44.6807
LayerCount: 2
Fore
SplineSet
377.345703125 641.134765625 m 0
 415.923828125 646.646484375 399.754882812 651.063476562 445.430664062 651.063476562 c 0
 469.543945312 651.063476562 480.891601562 648.2265625 483.728515625 640.42578125 c 0
 489.40234375 626.241210938 473.08984375 606.3828125 462.452148438 614.893554688 c 0
 450.395507812 624.822265625 368.125976562 600.708984375 316.352539062 571.630859375 c 0
 241.174804688 529.787109375 171.671875 460.283203125 158.196289062 413.475585938 c 0
 156.068359375 405.673828125 144.721679688 372.340820312 132.665039062 339.006835938 c 0
 103.586914062 256.028320312 95.78515625 217.021484375 107.1328125 204.96484375 c 0
 115.643554688 197.163085938 324.86328125 195.745117188 370.962890625 204.254882812 c 0
 417.061523438 212.056640625 477.345703125 243.971679688 492.948242188 269.50390625 c 0
 500.040039062 281.560546875 494.366210938 302.836914062 472.380859375 346.099609375 c 0
 465.998046875 358.15625 468.834960938 358.15625 383.728515625 342.552734375 c 0
 324.154296875 331.915039062 319.8984375 331.915039062 311.387695312 343.262695312 c 0
 306.423828125 350.354492188 302.16796875 358.865234375 302.16796875 361.702148438 c 0
 302.16796875 375.177734375 358.196289062 390.780273438 422.735351562 396.454101562 c 0
 553.232421875 407.801757812 604.295898438 368.793945312 553.94140625 294.326171875 c 0
 544.01171875 280.141601562 536.919921875 265.248046875 539.047851562 262.411132812 c 0
 541.174804688 258.865234375 546.139648438 223.404296875 550.395507812 182.26953125 c 0
 553.94140625 141.84375 559.615234375 98.58203125 561.7421875 85.8154296875 c 0
 565.2890625 68.0849609375 563.161132812 62.4111328125 550.395507812 55.3193359375 c 0
 525.572265625 42.552734375 520.607421875 54.6103515625 517.061523438 130.49609375 c 0
 515.643554688 168.084960938 511.387695312 204.96484375 507.1328125 212.056640625 c 0
 500.75 224.822265625 497.913085938 224.11328125 467.416015625 200.708984375 c 0
 449.685546875 187.234375 431.24609375 175.88671875 426.991210938 175.88671875 c 0
 422.735351562 175.88671875 398.622070312 172.340820312 373.08984375 168.793945312 c 0
 334.083007812 163.830078125 163.161132812 158.15625 112.806640625 160.993164062 c 0
 86.5654296875 162.411132812 61.033203125 190.071289062 61.033203125 218.439453125 c 0
 60.32421875 248.936523438 70.962890625 300 80.1826171875 312.056640625 c 0
 84.4375 317.021484375 92.9482421875 343.971679688 100.75 370.921875 c 0
 107.841796875 398.58203125 119.189453125 434.04296875 126.28125 450.354492188 c 0
 142.59375 487.234375 212.09765625 559.57421875 249.685546875 578.723632812 c 0
 264.579101562 586.524414062 284.4375 600 293.657226562 608.510742188 c 0
 302.16796875 617.021484375 313.515625 621.985351562 318.48046875 620.567382812 c 0
 323.444335938 619.149414062 331.955078125 621.985351562 338.337890625 627.659179688 c 0
 345.430664062 633.333007812 362.452148438 639.006835938 377.345703125 641.134765625 c 0
541.174804688 336.169921875 m 0
 545.430664062 348.2265625 534.791992188 363.120117188 526.991210938 356.028320312 c 0
 519.189453125 348.2265625 521.317382812 324.822265625 529.118164062 324.822265625 c 0
 533.374023438 324.822265625 538.337890625 329.787109375 541.174804688 336.169921875 c 0
EndSplineSet
EndChar

StartChar: H
Encoding: 72 72 40
Width: 591
Flags: HMW
HStem: 387.234 40.4248 622.695 21G<71.0583 88.7887>
VStem: 65.7389 40.4258 102.619 49.6455 417.512 38.2979
LayerCount: 2
Fore
SplineSet
417.512695312 656.737304688 m 0xe8
 423.186523438 665.248046875 430.278320312 672.341796875 433.82421875 672.341796875 c 0
 443.75390625 672.341796875 455.810546875 654.611328125 455.810546875 639.717773438 c 0
 455.810546875 630.497070312 458.647460938 621.986328125 461.484375 619.859375 c 0
 469.225585938 615.213867188 469.673828125 529.614257812 474.25 521.986328125 c 0
 476.377929688 518.440429688 479.923828125 499.291992188 481.342773438 478.724609375 c 0
 485.59765625 430.497070312 488.434570312 424.114257812 504.037109375 424.114257812 c 0
 524.604492188 424.114257812 538.080078125 405.674804688 526.732421875 392.19921875 c 0
 521.767578125 386.525390625 513.256835938 381.561523438 507.583984375 381.561523438 c 0
 491.271484375 381.561523438 489.852539062 325.249023438 501.91015625 256.455078125 c 4
 513.966796875 188.370117188 511.129882812 174.89453125 487.016601562 179.859375 c 4
 475.668945312 181.986328125 472.122070312 194.043945312 465.030273438 252.909179688 c 4
 452.264648438 352.19921875 448.008789062 399.291992188 395.526367188 400.709960938 c 0
 372.122070312 401.418945312 348.008789062 400.000976562 342.334960938 397.873046875 c 0
 333.115234375 393.618164062 268.576171875 390.072265625 156.51953125 387.235351562 c 0
 116.803710938 386.525390625 113.256835938 378.015625 126.732421875 313.4765625 c 0
 133.115234375 282.270507812 139.498046875 208.227539062 141.625976562 196.170898438 c 4
 143.75390625 184.823242188 148.717773438 171.348632812 152.264648438 166.383789062 c 4
 162.193359375 154.327148438 152.973632812 142.979492188 133.82421875 142.979492188 c 4
 111.129882812 142.979492188 104.037109375 155.036132812 102.619140625 195.461914062 c 4xd8
 101.91015625 215.3203125 97.654296875 242.270507812 92.689453125 255.74609375 c 4
 88.4345703125 269.9296875 83.4697265625 332.625 82.7607421875 346.100585938 c 0
 80.5908203125 387.33203125 72.1181640625 527.537109375 65.7392578125 564.5390625 c 0
 57.9384765625 607.091796875 62.193359375 622.6953125 79.923828125 622.6953125 c 0
 97.654296875 622.6953125 104.037109375 610.638671875 106.165039062 573.049804688 c 0
 106.874023438 555.319335938 110.419921875 515.602539062 113.256835938 484.397460938 c 2
 118.930664062 427.659179688 l 1
 218.221679688 427.659179688 l 2
 355.1015625 427.659179688 434.534179688 434.04296875 440.916992188 443.971679688 c 0
 445.881835938 452.482421875 445.171875 478.014648438 439.498046875 505.673828125 c 0
 436.661132812 519.149414062 425.314453125 585.106445312 424.604492188 595.745117188 c 0
 423.895507812 598.58203125 419.640625 604.96484375 415.384765625 609.928710938 c 0
 403.328125 621.276367188 404.037109375 637.588867188 417.512695312 656.737304688 c 0xe8
EndSplineSet
EndChar

StartChar: I
Encoding: 73 73 41
Width: 449
Flags: HMW
HStem: 204.255 38.2979 539.717 26.2402 563.12 38.2979<270.312 273.149>
VStem: 212.156 42.5537
LayerCount: 2
Fore
SplineSet
301.517578125 607.091796875 m 0xb0
 302.936523438 609.928710938 319.958007812 612.056640625 337.688476562 612.056640625 c 0
 364.638671875 612.056640625 373.858398438 608.510742188 381.66015625 596.454101562 c 0
 390.170898438 582.978515625 390.879882812 578.014648438 382.369140625 560.993164062 c 0
 371.021484375 537.588867188 344.780273438 533.333007812 344.780273438 555.319335938 c 0
 344.780273438 570.921875 314.284179688 578.723632812 293.0078125 568.793945312 c 0
 285.915039062 565.95703125 275.986328125 563.120117188 270.3125 563.120117188 c 0xb0
 262.510742188 562.411132812 259.673828125 551.7734375 258.96484375 518.439453125 c 0
 258.255859375 494.326171875 256.127929688 472.340820312 254.709960938 468.793945312 c 0
 248.326171875 456.028320312 249.036132812 212.552734375 255.418945312 202.624023438 c 4
 261.801757812 194.11328125 268.184570312 193.404296875 303.645507812 201.915039062 c 4
 326.340820312 207.588867188 354.709960938 211.84375 366.056640625 212.552734375 c 4
 383.787109375 213.262695312 387.333984375 210.42578125 387.333984375 196.241210938 c 4
 387.333984375 187.021484375 382.369140625 177.091796875 376.6953125 174.254882812 c 4
 361.092773438 165.745117188 284.497070312 153.6875 193.716796875 145.177734375 c 4
 122.084960938 138.084960938 112.15625 138.084960938 101.517578125 148.723632812 c 4
 90.8798828125 159.361328125 90.8798828125 161.489257812 105.064453125 175.673828125 c 4
 117.830078125 187.73046875 122.794921875 189.149414062 130.595703125 182.056640625 c 4
 138.397460938 176.3828125 151.873046875 175.673828125 175.27734375 179.219726562 c 6
 210.028320312 184.893554688 l 5
 212.15625 312.552734375 l 6
 212.865234375 382.765625 215.702148438 487.943359375 217.830078125 509.928710938 c 0
 220.666992188 531.915039062 219.248046875 551.7734375 216.412109375 553.900390625 c 0
 212.865234375 556.028320312 181.66015625 549.645507812 146.19921875 539.716796875 c 0
 59.673828125 516.3125 54 516.3125 54 536.879882812 c 0
 54 551.063476562 60.3828125 555.319335938 96.5537109375 565.95703125 c 0xd0
 145.489257812 580.850585938 252.58203125 601.41796875 279.532226562 601.41796875 c 0
 289.4609375 601.41796875 299.390625 604.254882812 301.517578125 607.091796875 c 0xb0
EndSplineSet
EndChar

StartChar: J
Encoding: 74 74 42
Width: 693
Flags: HMW
HStem: 584.397 34.042 587.234 39.0068
LayerCount: 2
Fore
SplineSet
601.387695312 626.241210938 m 0x40
 607.770507812 633.333007812 621.955078125 629.787109375 630.46484375 619.149414062 c 0
 641.8125 605.673828125 634.720703125 587.234375 617.69921875 587.234375 c 0x40
 610.607421875 587.234375 592.166992188 580.850585938 577.2734375 573.049804688 c 2
 548.905273438 558.865234375 l 1
 538.266601562 573.049804688 l 2
 528.337890625 586.524414062 519.827148438 587.943359375 443.940429688 586.524414062 c 0
 398.55078125 586.524414062 360.961914062 583.6875 360.961914062 580.850585938 c 0
 360.961914062 578.723632812 367.344726562 572.340820312 375.146484375 568.084960938 c 0
 382.23828125 563.120117188 390.749023438 548.2265625 393.5859375 534.04296875 c 0
 395.713867188 520.567382812 400.677734375 507.801757812 403.514648438 505.673828125 c 0
 414.153320312 499.291015625 412.025390625 307.801757812 399.96875 256.737304688 c 0
 381.529296875 175.177734375 347.486328125 144.680664062 243.940429688 115.602539062 c 0
 141.8125 86.5244140625 80.8203125 104.96484375 63.08984375 168.084960938 c 0
 59.54296875 181.560546875 58.125 194.326171875 59.54296875 196.454101562 c 0
 61.6708984375 197.872070312 75.85546875 185.815429688 90.7490234375 169.50390625 c 2
 118.408203125 139.716796875 l 1
 179.401367188 143.971679688 l 2
 250.323242188 148.936523438 295.00390625 165.248046875 330.46484375 200.708984375 c 0
 353.16015625 223.404296875 358.125 234.04296875 364.5078125 275.177734375 c 0
 365.926757812 285.106445312 368.763671875 302.836914062 370.890625 314.184570312 c 0
 377.2734375 354.610351562 377.2734375 435.4609375 370.890625 446.099609375 c 0
 368.053710938 451.7734375 363.798828125 466.666992188 363.08984375 479.432617188 c 0
 362.379882812 492.908203125 355.288085938 514.893554688 346.77734375 528.369140625 c 0
 338.975585938 542.552734375 332.592773438 560.283203125 334.01171875 568.793945312 c 0
 336.138671875 582.978515625 332.592773438 583.6875 286.494140625 584.397460938 c 0
 259.54296875 584.397460938 209.897460938 580.141601562 177.2734375 575.177734375 c 0
 112.734375 564.5390625 95.00390625 568.793945312 109.897460938 592.908203125 c 0
 121.245117188 609.928710938 160.252929688 613.475585938 395.00390625 618.439453125 c 0x80
 506.3515625 621.276367188 599.259765625 624.822265625 601.387695312 626.241210938 c 0x40
EndSplineSet
EndChar

StartChar: K
Encoding: 75 75 43
Width: 547
Flags: HMW
VStem: 64.8381 41.1348 90.3694 38.2979
LayerCount: 2
Fore
SplineSet
64.837890625 701.985351562 m 4x80
 79.7314453125 731.063476562 105.262695312 713.333007812 105.97265625 674.326171875 c 4x80
 105.97265625 664.397460938 110.936523438 626.099609375 117.3203125 589.219726562 c 4
 123.703125 552.340820312 128.666992188 508.369140625 128.666992188 492.056640625 c 4
 128.666992188 475.03515625 130.794921875 461.560546875 132.922851562 461.560546875 c 4
 135.05078125 461.560546875 191.079101562 513.333007812 257.036132812 575.745117188 c 4
 374.766601562 688.510742188 401.716796875 709.787109375 426.540039062 709.787109375 c 4
 457.036132812 709.787109375 446.397460938 687.801757812 398.170898438 649.50390625 c 4
 371.220703125 627.517578125 341.43359375 602.6953125 332.922851562 594.184570312 c 4
 323.703125 585.673828125 308.809570312 573.6171875 298.170898438 567.234375 c 4
 266.96484375 546.666992188 199.58984375 481.41796875 188.951171875 461.560546875 c 4
 179.731445312 443.830078125 180.440429688 439.57421875 194.625 418.297851562 c 4
 203.135742188 404.822265625 222.284179688 387.801757812 237.177734375 380 c 4
 251.362304688 372.198242188 263.418945312 361.560546875 263.418945312 356.595703125 c 4
 263.418945312 351.630859375 269.092773438 345.248046875 276.185546875 343.120117188 c 4
 282.568359375 340.283203125 293.206054688 333.19140625 298.879882812 327.517578125 c 4
 304.553710938 321.134765625 332.213867188 297.73046875 359.1640625 275.745117188 c 4
 386.823242188 253.758789062 427.249023438 216.169921875 450.653320312 193.475585938 c 4
 486.114257812 157.3046875 491.788085938 148.084960938 487.532226562 132.482421875 c 4
 481.149414062 105.532226562 465.546875 109.787109375 441.43359375 144.5390625 c 4
 418.73828125 177.872070312 338.596679688 251.630859375 309.518554688 267.234375 c 4
 299.58984375 272.198242188 277.603515625 289.928710938 259.1640625 306.950195312 c 4
 215.024414062 349.325195312 223.5625 332.176757812 176.185546875 370.780273438 c 4
 148.525390625 393.475585938 142.336914062 396.235351562 138.596679688 387.091796875 c 4
 132.213867188 371.489257812 145.184570312 306.663085938 137 294 c 4
 123.431640625 273.006835938 139.161132812 215.176757812 135.05078125 232.482421875 c 4
 129.580078125 255.512695312 107.390625 185.673828125 127.958007812 159.432617188 c 4
 145.688476562 137.447265625 147.107421875 119.006835938 132.922851562 107.659179688 c 4
 118.73828125 96.3125 87.5322265625 116.169921875 81.8583984375 140.283203125 c 4
 73.3486328125 174.326171875 83.27734375 303.404296875 95.333984375 322.552734375 c 4
 105.262695312 337.447265625 105.97265625 346.666992188 100.298828125 372.198242188 c 4
 96.7529296875 389.219726562 91.7880859375 433.900390625 90.369140625 471.489257812 c 4x40
 88.2421875 509.078125 85.4052734375 542.411132812 83.27734375 545.95703125 c 4
 81.1494140625 548.793945312 77.603515625 562.26953125 76.185546875 575.745117188 c 4
 71.4306640625 605.8515625 66.8203125 641.008789062 61.291015625 668.65234375 c 4
 58.455078125 679.291015625 60.58203125 694.184570312 64.837890625 701.985351562 c 4x80
EndSplineSet
EndChar

StartChar: L
Encoding: 76 76 44
Width: 472
Flags: HMW
VStem: 88.2696 47.5176
LayerCount: 2
Fore
SplineSet
92.525390625 629.928710938 m 4
 112.383789062 651.206054688 130.114257812 632.765625 135.787109375 585.95703125 c 4
 140.751953125 543.404296875 135.078125 357.588867188 128.6953125 346.950195312 c 4
 126.567382812 343.404296875 123.021484375 307.943359375 120.893554688 266.80859375 c 4
 118.056640625 225.673828125 114.510742188 183.120117188 112.383789062 171.7734375 c 6
 108.127929688 151.915039062 l 5
 152.80859375 155.4609375 l 6
 177.631835938 157.588867188 235.078125 165.389648438 279.758789062 173.19140625 c 4
 359.19140625 186.666992188 403.163085938 186.666992188 411.673828125 173.19140625 c 4
 413.801757812 169.645507812 413.801757812 158.297851562 410.96484375 148.369140625 c 4
 407.418945312 133.475585938 403.873046875 131.34765625 391.106445312 135.602539062 c 4
 365.575195312 144.11328125 305.291015625 145.532226562 291.106445312 137.73046875 c 4
 269.551757812 125.973632812 236.493164062 125.673828125 205.291015625 121.41796875 c 4
 189.688476562 118.58203125 169.830078125 117.163085938 161.319335938 117.163085938 c 4
 152.80859375 117.163085938 143.588867188 114.326171875 141.4609375 110.780273438 c 4
 133.66015625 98.7236328125 69.12109375 102.26953125 64.15625 115.03515625 c 4
 62.0283203125 121.41796875 61.3193359375 128.510742188 62.73828125 131.34765625 c 4
 65.5751953125 136.3125 72.6669921875 190.921875 76.921875 241.985351562 c 4
 77.6318359375 254.04296875 80.46875 271.063476562 83.3056640625 280.993164062 c 4
 96.7802734375 332.056640625 99.6171875 537.021484375 88.26953125 589.50390625 c 4
 83.3056640625 611.489257812 84.0146484375 620 92.525390625 629.928710938 c 4
EndSplineSet
EndChar

StartChar: M
Encoding: 77 77 45
Width: 689
Flags: HMW
VStem: 141.065 34.752<441.844 524.468> 474.398 54.6104
LayerCount: 2
Fore
SplineSet
482.908203125 641.276367188 m 4
 499.220703125 657.588867188 516.951171875 650.497070312 529.0078125 623.546875 c 4
 534.681640625 608.653320312 544.610351562 590.922851562 550.993164062 584.540039062 c 4
 556.666992188 577.448242188 559.50390625 571.774414062 556.666992188 571.774414062 c 4
 553.830078125 571.774414062 555.249023438 565.390625 558.794921875 558.298828125 c 4
 563.049804688 551.20703125 568.014648438 529.220703125 570.142578125 510.072265625 c 4
 580.813476562 398.0234375 592.491210938 353.654296875 609.858398438 266.80859375 c 4
 614.114257812 245.532226562 620.497070312 223.545898438 624.751953125 219.291015625 c 4
 633.971679688 207.943359375 614.114257812 174.610351562 598.510742188 174.610351562 c 4
 587.1640625 174.610351562 583.6171875 185.95703125 577.234375 234.893554688 c 4
 575.106445312 254.751953125 568.014648438 283.830078125 561.631835938 300.850585938 c 4
 555.958007812 317.872070312 552.412109375 333.475585938 554.5390625 335.602539062 c 4
 556.666992188 337.021484375 553.830078125 351.206054688 548.866210938 366.099609375 c 4
 538.227539062 395.177734375 538.227539062 400.141601562 538.227539062 452.624023438 c 4
 538.936523438 470.354492188 535.390625 487.375976562 531.134765625 490.212890625 c 4
 527.588867188 492.340820312 524.04296875 500.850585938 524.04296875 507.943359375 c 4
 524.04296875 524.254882812 509.858398438 557.588867188 502.766601562 557.588867188 c 4
 497.092773438 557.588867188 480.071289062 510.780273438 433.971679688 366.099609375 c 4
 415.532226562 309.361328125 396.383789062 256.169921875 390.709960938 246.950195312 c 4
 372.26953125 218.58203125 353.830078125 229.219726562 326.170898438 285.248046875 c 4
 311.986328125 312.908203125 293.546875 344.822265625 284.327148438 356.169921875 c 4
 256.666992188 390.921875 230.42578125 427.801757812 211.986328125 457.588867188 c 4
 192.127929688 491.630859375 176.525390625 495.177734375 175.81640625 467.517578125 c 4
 175.81640625 456.169921875 174.397460938 442.6953125 172.26953125 437.021484375 c 4
 170.8515625 431.34765625 161.631835938 391.630859375 152.412109375 348.369140625 c 4
 131.134765625 249.787109375 119.788085938 203.6875 111.986328125 183.120117188 c 4
 108.440429688 173.900390625 105.603515625 154.751953125 105.603515625 139.858398438 c 4
 105.603515625 107.943359375 90.0009765625 89.50390625 71.560546875 101.560546875 c 4
 58.0859375 109.361328125 53.12109375 151.915039062 63.759765625 164.680664062 c 4
 67.3056640625 168.936523438 70.8515625 181.702148438 72.26953125 193.049804688 c 4
 73.6884765625 204.397460938 77.943359375 220 82.19921875 227.801757812 c 4
 104.184570312 271.7734375 141.064453125 455.4609375 141.064453125 525.673828125 c 4
 141.064453125 563.262695312 143.901367188 579.57421875 151.702148438 585.95703125 c 4
 170.8515625 601.560546875 194.255859375 583.830078125 217.66015625 534.893554688 c 4
 241.7734375 485.248046875 318.369140625 363.971679688 340.35546875 340.567382812 c 4
 347.447265625 332.765625 353.830078125 322.127929688 353.830078125 317.872070312 c 4
 353.830078125 303.6875 366.596679688 307.943359375 376.525390625 325.673828125 c 4
 381.490234375 334.184570312 385.745117188 342.6953125 385.745117188 344.822265625 c 4
 385.745117188 346.950195312 390.000976562 358.297851562 394.255859375 369.645507812 c 4
 440.35546875 487.375976562 474.397460938 593.049804688 474.397460938 620 c 4
 474.397460938 627.091796875 477.943359375 636.3125 482.908203125 641.276367188 c 4
EndSplineSet
EndChar

StartChar: N
Encoding: 78 78 46
Width: 470
Flags: HMW
VStem: 331.658 60.2832 344.424 40.4258
LayerCount: 2
Fore
SplineSet
348.6796875 698.15625 m 4x40
 360.736328125 710.212890625 384.140625 703.120117188 386.977539062 687.517578125 c 4
 388.395507812 679.716796875 394.778320312 667.659179688 400.452148438 661.276367188 c 4
 409.671875 650.638671875 409.671875 648.510742188 396.90625 642.127929688 c 4
 383.431640625 635.03515625 382.721679688 627.943359375 384.849609375 427.234375 c 4x40
 385.55859375 313.049804688 389.104492188 204.5390625 391.94140625 186.099609375 c 4
 396.90625 154.184570312 396.197265625 152.056640625 378.466796875 144.254882812 c 4
 362.154296875 136.454101562 357.899414062 137.163085938 345.842773438 150.638671875 c 4
 338.041015625 159.149414062 331.658203125 170.49609375 331.658203125 176.169921875 c 4x80
 331.658203125 181.84375 328.112304688 188.936523438 324.565429688 191.063476562 c 4
 318.892578125 194.610351562 280.594726562 265.532226562 275.629882812 281.134765625 c 4
 274.2109375 288.2265625 255.0625 322.26953125 226.693359375 371.206054688 c 4
 213.21875 393.19140625 188.395507812 439.291015625 170.665039062 473.333007812 c 4
 149.388671875 513.758789062 135.913085938 533.6171875 130.94921875 528.65234375 c 4
 121.729492188 519.432617188 105.416992188 311.630859375 104.708007812 199.57421875 c 4
 104.708007812 124.397460938 102.580078125 108.084960938 93.3603515625 104.5390625 c 4
 87.6865234375 102.411132812 79.884765625 103.120117188 75.6298828125 107.375976562 c 4
 63.5732421875 119.432617188 66.41015625 337.163085938 79.884765625 428.65234375 c 4
 82.0126953125 442.127929688 84.849609375 477.588867188 86.9775390625 506.666992188 c 4
 91.232421875 568.369140625 98.3251953125 600.283203125 109.671875 603.830078125 c 4
 119.6015625 607.375976562 162.864257812 564.822265625 179.884765625 535.745117188 c 4
 186.977539062 523.6875 195.48828125 513.758789062 198.325195312 513.758789062 c 4
 201.162109375 513.758789062 203.999023438 508.084960938 203.999023438 501.702148438 c 4
 203.999023438 494.610351562 220.310546875 460.567382812 240.877929688 425.106445312 c 4
 311.090820312 301.702148438 317.473632812 290.354492188 325.275390625 271.206054688 c 4
 344.423828125 222.978515625 347.260742188 254.184570312 344.423828125 471.206054688 c 4
 342.296875 618.014648438 343.71484375 693.19140625 348.6796875 698.15625 c 4x40
EndSplineSet
EndChar

StartChar: O
Encoding: 79 79 47
Width: 641
Flags: HMW
VStem: 543.048 33.333
LayerCount: 2
Fore
SplineSet
313.26171875 641.41796875 m 4
 335.956054688 655.602539062 362.197265625 667.659179688 371.41796875 668.369140625 c 4
 417.516601562 672.624023438 498.368164062 639.291015625 498.368164062 616.595703125 c 4
 498.368164062 610.921875 509.005859375 595.319335938 522.481445312 581.84375 c 4
 565.744140625 538.58203125 576.381835938 505.248046875 576.381835938 407.375976562 c 4
 576.381835938 335.745117188 574.25390625 316.595703125 562.197265625 292.482421875 c 4
 554.396484375 276.169921875 548.013671875 259.149414062 548.013671875 254.184570312 c 4
 548.013671875 242.127929688 521.0625 195.319335938 502.623046875 174.751953125 c 4
 494.112304688 165.532226562 473.544921875 149.219726562 455.814453125 139.291015625 c 4
 428.864257812 122.978515625 416.098632812 120.141601562 366.453125 120.141601562 c 4
 335.247070312 120.141601562 301.205078125 123.6875 291.984375 127.943359375 c 4
 249.431640625 147.801757812 220.353515625 159.149414062 213.970703125 159.149414062 c 4
 209.715820312 159.149414062 202.623046875 163.404296875 196.94921875 167.659179688 c 4
 191.984375 172.624023438 165.034179688 194.610351562 136.666015625 215.88671875 c 4
 107.587890625 238.58203125 79.927734375 266.241210938 72.126953125 281.134765625 c 4
 52.9775390625 318.014648438 55.10546875 374.04296875 76.3818359375 410.921875 c 4
 85.6015625 426.524414062 98.3681640625 449.928710938 104.750976562 462.6953125 c 4
 130.283203125 510.921875 206.87890625 576.169921875 313.26171875 641.41796875 c 4
439.502929688 613.758789062 m 4
 443.048828125 625.815429688 439.502929688 627.234375 401.9140625 627.234375 c 4
 357.233398438 626.524414062 308.296875 606.666992188 282.764648438 578.297851562 c 4
 274.963867188 569.787109375 265.034179688 563.404296875 259.360351562 563.404296875 c 4
 253.686523438 563.404296875 226.736328125 540 198.368164062 512.340820312 c 4
 135.247070312 448.510742188 96.94921875 379.006835938 99.0771484375 330.071289062 c 4
 99.7861328125 299.57421875 103.33203125 294.610351562 146.594726562 254.184570312 c 4
 186.311523438 217.3046875 212.551757812 200.283203125 286.311523438 165.532226562 c 4
 333.119140625 143.545898438 428.864257812 154.893554688 463.616210938 186.099609375 c 4
 475.672851562 196.737304688 497.658203125 233.6171875 513.26171875 269.078125 c 4
 540.211914062 330.780273438 541.629882812 335.745117188 543.048828125 414.467773438 c 4
 543.7578125 492.482421875 543.048828125 497.447265625 524.609375 526.524414062 c 4
 513.970703125 542.836914062 501.9140625 556.3125 497.658203125 556.3125 c 4
 494.112304688 556.3125 478.509765625 566.241210938 463.616210938 578.297851562 c 4
 443.7578125 593.900390625 437.375 603.830078125 439.502929688 613.758789062 c 4
EndSplineSet
EndChar

StartChar: P
Encoding: 80 80 48
Width: 481
Flags: HMW
VStem: 75.5551 30.4961
LayerCount: 2
Fore
SplineSet
181.228515625 664.04296875 m 4
 219.526367188 671.84375 285.483398438 669.716796875 328.74609375 659.078125 c 4
 354.278320312 652.6953125 398.958984375 611.560546875 398.958984375 593.830078125 c 4
 398.958984375 588.865234375 403.213867188 578.936523438 408.178710938 571.134765625 c 4
 418.11328125 555.5234375 419.111328125 538.263671875 421.654296875 517.943359375 c 4
 424.491210938 488.15625 419.526367188 447.021484375 411.015625 438.510742188 c 4
 406.05078125 433.545898438 394.704101562 419.361328125 386.193359375 406.595703125 c 4
 377.682617188 394.5390625 359.952148438 378.2265625 347.185546875 370.42578125 c 4
 325.200195312 356.950195312 159.243164062 317.234375 124.491210938 317.943359375 c 4
 114.561523438 317.943359375 106.05078125 313.6875 103.923828125 309.432617188 c 4
 102.504882812 305.177734375 105.341796875 274.680664062 110.306640625 241.34765625 c 4
 123.072265625 156.241210938 121.654296875 106.595703125 106.760742188 96.6669921875 c 4
 85.4833984375 83.19140625 79.1005859375 101.630859375 74.13671875 188.865234375 c 4
 67.7529296875 308.723632812 69.171875 573.971679688 75.5546875 599.50390625 c 4
 83.3564453125 627.872070312 99.66796875 645.602539062 118.817382812 645.602539062 c 4
 127.328125 645.602539062 136.547851562 647.73046875 139.384765625 651.276367188 c 4
 142.221679688 654.11328125 161.370117188 659.787109375 181.228515625 664.04296875 c 4
318.817382812 616.524414062 m 4
 293.28515625 630.708984375 223.072265625 637.801757812 212.434570312 627.163085938 c 4
 210.306640625 624.326171875 194.704101562 621.489257812 179.100585938 620.071289062 c 4
 133.001953125 615.815429688 109.59765625 598.793945312 109.59765625 568.297851562 c 4
 108.887695312 554.11328125 107.469726562 502.340820312 106.05078125 452.6953125 c 4
 103.923828125 389.57421875 105.341796875 360.49609375 111.015625 356.241210938 c 4
 125.200195312 344.184570312 250.732421875 371.134765625 317.3984375 400.212890625 c 4
 345.767578125 412.978515625 357.115234375 423.6171875 369.171875 446.3125 c 4
 387.611328125 480.354492188 389.030273438 526.454101562 374.845703125 561.915039062 c 4
 362.7890625 589.57421875 357.115234375 595.248046875 318.817382812 616.524414062 c 4
EndSplineSet
EndChar

StartChar: Q
Encoding: 81 81 49
Width: 685
Flags: W
HStem: 140.426 21G<232.786 267.538>
LayerCount: 2
Fore
SplineSet
380.303710938 617.73046875 m 0
 429.240234375 625.532226562 457.609375 622.6953125 476.048828125 606.3828125 c 0
 488.814453125 595.745117188 494.48828125 585.106445312 492.360351562 573.758789062 c 2
 490.233398438 557.447265625 l 1
 471.083984375 572.340820312 l 2
 437.041992188 599.291015625 388.10546875 589.361328125 259.736328125 528.369140625 c 0
 182.431640625 492.198242188 147.6796875 459.57421875 120.020507812 396.454101562 c 0
 84.5595703125 317.021484375 92.3603515625 237.588867188 139.87890625 203.545898438 c 0
 175.33984375 178.014648438 263.9921875 170.212890625 330.658203125 185.815429688 c 0
 359.736328125 192.908203125 393.0703125 205.673828125 404.41796875 214.893554688 c 2
 425.694335938 231.915039062 l 1
 396.616210938 263.120117188 l 2
 381.013671875 280.141601562 363.9921875 301.41796875 359.736328125 309.928710938 c 0
 343.424804688 340.42578125 371.79296875 351.063476562 391.651367188 321.985351562 c 0
 397.325195312 312.056640625 416.474609375 292.908203125 434.205078125 278.723632812 c 2
 465.41015625 253.19140625 l 1
 498.744140625 273.049804688 l 2
 605.126953125 337.588867188 623.56640625 419.149414062 545.552734375 478.014648438 c 0
 473.920898438 532.624023438 400.162109375 548.936523438 357.609375 520.567382812 c 0
 346.970703125 513.475585938 334.9140625 509.928710938 330.658203125 512.765625 c 0
 317.892578125 520.567382812 322.857421875 535.4609375 343.424804688 548.936523438 c 0
 368.956054688 565.95703125 456.190429688 570.212890625 473.211914062 554.610351562 c 0
 479.594726562 548.936523438 491.651367188 543.262695312 500.162109375 541.134765625 c 0
 516.474609375 538.297851562 529.240234375 529.787109375 561.864257812 502.127929688 c 0
 595.907226562 473.049804688 615.055664062 441.134765625 621.438476562 401.41796875 c 0
 629.94921875 348.2265625 612.21875 313.475585938 549.807617188 262.411132812 c 0
 522.857421875 240.42578125 500.87109375 220.567382812 500.87109375 217.73046875 c 0
 500.87109375 215.602539062 507.25390625 204.96484375 515.764648438 194.326171875 c 0
 527.112304688 179.432617188 529.240234375 171.630859375 523.56640625 156.028320312 c 0
 515.055664062 129.078125 495.907226562 126.950195312 489.5234375 152.482421875 c 0
 484.559570312 173.758789062 467.538085938 197.163085938 456.899414062 197.163085938 c 0
 453.353515625 197.163085938 437.041992188 190.780273438 420.729492188 182.26953125 c 0
 381.013671875 162.411132812 288.10546875 140.42578125 246.970703125 140.42578125 c 0
 218.6015625 141.134765625 197.325195312 143.971679688 139.87890625 156.737304688 c 0
 122.1484375 160.993164062 76.7578125 212.056640625 71.79296875 234.751953125 c 0
 61.8642578125 273.049804688 60.4462890625 285.106445312 61.1552734375 314.184570312 c 0
 61.8642578125 348.936523438 87.396484375 426.241210938 108.672851562 458.865234375 c 0
 131.368164062 494.326171875 181.013671875 531.915039062 232.077148438 554.610351562 c 0
 256.899414062 565.248046875 296.616210938 582.978515625 320.020507812 594.326171875 c 0
 343.424804688 605.673828125 370.375 616.3125 380.303710938 617.73046875 c 0
EndSplineSet
EndChar

StartChar: R
Encoding: 82 82 50
Width: 606
Flags: HMW
HStem: 11.3477 39.7158 310.639 49.6445<249.757 278.835> 600 40.4258<303.304 311.104 286.282 389.828 303.304 303.304>
VStem: 74.9346 39.0068 83.4453 73.7588
LayerCount: 2
Fore
SplineSet
211.814453125 725.4609375 m 4xf0
 216.778320312 728.297851562 261.458984375 730.42578125 311.104492188 730.42578125 c 4
 433.090820312 729.716796875 461.458984375 714.822265625 472.806640625 644.610351562 c 4
 483.4453125 575.815429688 446.565429688 523.333007812 334.508789062 449.57421875 c 4
 305.430664062 430.42578125 277.771484375 411.985351562 272.806640625 407.73046875 c 4
 267.842773438 404.184570312 260.75 400.638671875 256.495117188 400.638671875 c 4
 243.01953125 400.638671875 206.140625 378.65234375 209.686523438 372.978515625 c 4
 211.814453125 370.141601562 230.962890625 365.177734375 252.239257812 363.049804688 c 4
 331.671875 355.248046875 496.2109375 257.375976562 533.799804688 195.673828125 c 6
 548.693359375 170.850585938 l 5
 532.381835938 158.793945312 l 6
 515.360351562 146.028320312 497.629882812 151.702148438 497.629882812 169.432617188 c 4
 497.629882812 182.908203125 456.495117188 228.297851562 424.580078125 249.57421875 c 4
 384.154296875 276.524414062 328.834960938 301.34765625 281.317382812 314.11328125 c 4
 239.473632812 326.169921875 130.25390625 338.936523438 117.48828125 333.971679688 c 4
 108.977539062 330.42578125 106.849609375 317.659179688 108.267578125 260.921875 c 4
 108.977539062 222.624023438 111.104492188 179.361328125 113.232421875 163.758789062 c 4
 116.069335938 138.2265625 117.48828125 136.80859375 136.63671875 141.063476562 c 4
 155.076171875 144.610351562 157.204101562 143.19140625 157.204101562 127.588867188 c 4
 157.204101562 114.822265625 151.530273438 107.021484375 138.764648438 101.34765625 c 4
 115.360351562 90.708984375 101.17578125 99.2197265625 83.4453125 135.389648438 c 4xe8
 72.09765625 159.50390625 69.9697265625 177.234375 71.388671875 269.432617188 c 4
 72.09765625 328.297851562 74.2255859375 443.900390625 74.9345703125 527.588867188 c 4
 77.0625 675.106445312 77.771484375 680.071289062 92.6650390625 692.836914062 c 4
 111.104492188 707.021484375 151.530273438 719.787109375 182.026367188 719.787109375 c 4
 194.083984375 719.787109375 206.849609375 722.624023438 211.814453125 725.4609375 c 4xf0
411.104492188 668.014648438 m 6
 389.828125 690 l 5
 303.303710938 690 l 6
 256.495117188 689.291015625 208.267578125 686.454101562 196.2109375 682.908203125 c 4
 166.939453125 673.758789062 151.521484375 674.280273438 129.544921875 657.375976562 c 4
 113.94140625 646.028320312 112.5234375 640.354492188 113.94140625 595.673828125 c 4xf0
 116.778320312 525.4609375 116.778320312 528.297851562 112.5234375 492.836914062 c 4
 110.395507812 475.106445312 110.395507812 443.900390625 112.5234375 423.333007812 c 4
 116.778320312 386.454101562 117.48828125 385.745117188 135.21875 390 c 4
 145.147460938 392.127929688 179.899414062 407.021484375 212.5234375 422.624023438 c 4
 245.147460938 437.517578125 274.225585938 450.283203125 277.0625 450.283203125 c 4
 280.608398438 450.283203125 286.991210938 455.248046875 292.665039062 461.630859375 c 4
 297.629882812 467.3046875 316.069335938 480.071289062 333.799804688 489.291015625 c 4
 372.806640625 509.149414062 415.360351562 552.411132812 423.161132812 581.489257812 c 4
 435.927734375 626.879882812 433.090820312 644.610351562 411.104492188 668.014648438 c 6
EndSplineSet
EndChar

StartChar: S
Encoding: 83 83 51
Width: 615
Flags: W
LayerCount: 2
Fore
SplineSet
440.979492188 638.793945312 m 4
 484.951171875 650.141601562 528.212890625 645.177734375 547.362304688 626.737304688 c 4
 561.546875 613.262695312 561.546875 613.262695312 548.071289062 603.333007812 c 4
 538.8515625 596.241210938 531.049804688 595.532226562 521.830078125 599.787109375 c 4
 503.390625 609.716796875 470.766601562 608.297851562 417.575195312 595.532226562 c 4
 360.127929688 581.34765625 249.489257812 545.177734375 224.666992188 532.411132812 c 4
 214.73828125 527.447265625 198.42578125 519.645507812 187.787109375 514.680664062 c 4
 126.0859375 485.602539062 178.567382812 455.815429688 331.049804688 433.120117188 c 4
 367.9296875 427.447265625 418.993164062 419.645507812 443.81640625 416.099609375 c 4
 502.681640625 406.879882812 525.375976562 390.567382812 528.212890625 355.815429688 c 4
 531.049804688 320.354492188 505.518554688 277.801757812 450.19921875 227.447265625 c 4
 372.893554688 157.943359375 294.170898438 126.737304688 214.73828125 134.5390625 c 4
 105.518554688 145.88671875 58 158.65234375 58 178.510742188 c 4
 58 196.950195312 75.73046875 196.241210938 191.333984375 173.545898438 c 4
 214.028320312 169.291015625 246.653320312 167.872070312 263.673828125 170 c 4
 333.177734375 180.638671875 429.631835938 245.88671875 469.34765625 309.006835938 c 4
 489.915039062 341.630859375 491.333984375 353.6875 476.440429688 365.745117188 c 4
 464.383789062 375.673828125 331.758789062 402.624023438 318.993164062 397.659179688 c 4
 314.028320312 396.241210938 308.354492188 397.659179688 306.227539062 401.206054688 c 4
 304.099609375 404.751953125 290.624023438 407.588867188 275.73046875 406.879882812 c 4
 236.723632812 406.879882812 153.036132812 435.248046875 133.88671875 455.815429688 c 4
 125.375976562 465.03515625 118.284179688 480.638671875 118.284179688 489.149414062 c 4
 118.284179688 536.666992188 201.971679688 575.673828125 440.979492188 638.793945312 c 4
EndSplineSet
EndChar

StartChar: T
Encoding: 84 84 52
Width: 655
Flags: HMW
HStem: 597.872 56.7383
LayerCount: 2
Fore
SplineSet
477.946289062 702.411132812 m 4
 482.202148438 705.95703125 541.186523438 699.772460938 549.577148438 694.609375 c 4
 558.797851562 688.935546875 610.465820312 674.327148438 600.536132812 668.653320312 c 4
 596.990234375 665.81640625 544.247070312 654.752929688 535 664 c 4
 519.397460938 679.602539062 504.911132812 668.225585938 470.854492188 664.821289062 c 4
 449.577148438 662.694335938 426.8828125 661.275390625 420.5 661.275390625 c 4
 404.896484375 661.984375 399.932617188 630.0703125 400.641601562 520.849609375 c 4
 401.350585938 471.9140625 399.932617188 422.977539062 398.513671875 410.920898438 c 4
 395.78515625 392.505859375 361.467773438 143.40625 349.577148438 122.26953125 c 4
 342.485351562 107.375976562 313.407226562 105.248046875 302.76953125 118.723632812 c 4
 292.130859375 130.780273438 284.329101562 166.241210938 292.130859375 166.241210938 c 4
 295.676757812 166.241210938 302.059570312 162.6953125 307.024414062 157.73046875 c 4
 313.407226562 151.34765625 315.53515625 152.056640625 318.372070312 159.858398438 c 4
 324.754882812 181.84375 343.904296875 285.389648438 347.450195312 315.177734375 c 4
 348.868164062 332.908203125 353.124023438 360.567382812 356.669921875 375.4609375 c 4
 365.889648438 418.723632812 366.598632812 647.091796875 357.37890625 652.765625 c 4
 353.124023438 654.893554688 314.116210938 652.056640625 270.14453125 644.96484375 c 4
 226.8828125 638.58203125 164.470703125 628.65234375 131.137695312 623.6875 c 4
 80.07421875 615.88671875 69.435546875 615.88671875 60.2158203125 624.397460938 c 4
 51.705078125 632.908203125 51.705078125 635.745117188 61.634765625 645.673828125 c 4
 70.8544921875 654.893554688 99.22265625 659.858398438 175.109375 666.950195312 c 4
 295.676757812 677.588867188 473.69140625 698.15625 477.946289062 702.411132812 c 4
EndSplineSet
EndChar

StartChar: U
Encoding: 85 85 53
Width: 594
Flags: HMW
VStem: 468.287 57.4463
LayerCount: 2
Fore
SplineSet
64.03125 633.333007812 m 0
 85.3076171875 658.865234375 99.4921875 632.624023438 99.4921875 568.084960938 c 0
 99.4921875 556.028320312 102.329101562 543.971679688 105.166015625 541.84375 c 0
 108.002929688 540.42578125 111.548828125 517.73046875 112.258789062 492.198242188 c 0
 112.967773438 466.666992188 117.22265625 437.588867188 120.768554688 427.659179688 c 0
 124.315429688 417.73046875 129.279296875 399.291015625 131.407226562 386.524414062 c 0
 141.3359375 331.206054688 193.818359375 217.73046875 222.896484375 190.780273438 c 0
 241.3359375 173.758789062 276.797851562 161.702148438 310.130859375 161.702148438 c 0
 342.045898438 161.702148438 405.875 187.234375 425.024414062 207.091796875 c 0
 443.463867188 226.950195312 468.287109375 273.758789062 468.287109375 289.361328125 c 0
 468.287109375 295.745117188 470.4140625 303.545898438 472.541992188 305.673828125 c 0
 488.854492188 321.985351562 492.400390625 585.106445312 476.087890625 604.254882812 c 0
 464.03125 618.439453125 473.9609375 632.624023438 493.818359375 628.369140625 c 0
 517.931640625 624.11328125 525.733398438 592.908203125 525.733398438 493.6171875 c 0
 527.15234375 304.254882812 508.711914062 234.04296875 442.045898438 178.723632812 c 0
 395.237304688 139.716796875 393.818359375 139.006835938 337.081054688 129.078125 c 0
 292.400390625 121.276367188 283.889648438 121.985351562 250.556640625 134.04296875 c 0
 199.4921875 153.900390625 181.052734375 170.212890625 159.776367188 216.3125 c 0
 149.846679688 239.006835938 137.081054688 261.702148438 132.116210938 268.084960938 c 0
 115.095703125 287.943359375 71.8330078125 455.319335938 67.5771484375 519.858398438 c 0
 66.34765625 540.772460938 51.4169921875 617.916015625 64.03125 633.333007812 c 0
EndSplineSet
EndChar

StartChar: V
Encoding: 86 86 54
Width: 467
Flags: HMW
VStem: 367.352 41.8447
LayerCount: 2
Fore
SplineSet
371.607421875 738.793945312 m 4
 386.500976562 757.234375 401.395507812 748.01171875 409.197265625 715.38671875 c 4
 414.161132812 695.529296875 391.466796875 535.954101562 375.154296875 472.833984375 c 4
 359.551757812 413.259765625 351.041015625 365.032226562 346.076171875 316.805664062 c 4
 342.530273438 272.125 324.090820312 157.940429688 316.2890625 128.862304688 c 4
 309.90625 105.458007812 293.59375 92.6923828125 277.282226562 99.0751953125 c 4
 263.770507812 103.580078125 227.935546875 184.474609375 220.54296875 194.8203125 c 4
 212.033203125 205.458984375 180.827148438 278.508789062 176.571289062 296.239257812 c 4
 175.153320312 302.622070312 170.8984375 313.969726562 167.3515625 321.061523438 c 4
 144.657226562 362.90625 114.869140625 426.026367188 112.7421875 436.665039062 c 4
 111.323242188 443.047851562 105.649414062 462.90625 99.2666015625 481.345703125 c 4
 92.8837890625 499.78515625 87.9189453125 516.806640625 89.337890625 520.352539062 c 4
 90.755859375 526.735351562 76.5712890625 582.0546875 65.93359375 609.004882812 c 4
 43.23828125 666.452148438 62.3876953125 732.409179688 93.5927734375 704.75 c 4
 102.8125 696.239257812 107.068359375 680.63671875 108.486328125 652.267578125 c 4
 109.196289062 630.28125 112.033203125 609.004882812 114.16015625 605.458984375 c 4
 120.55859375 594.796875 122.220703125 561.959960938 126.216796875 547.303710938 c 4
 129.616210938 534.84375 144.890625 461.586914062 153.876953125 454.397460938 c 4
 156.713867188 451.560546875 158.840820312 443.049804688 158.840820312 435.95703125 c 4
 158.840820312 428.865234375 161.677734375 417.517578125 165.93359375 410.42578125 c 4
 180.827148438 383.475585938 224.798828125 282.765625 237.564453125 246.595703125 c 4
 252.458007812 204.751953125 269.479492188 174.96484375 277.990234375 174.96484375 c 4
 285.08203125 174.96484375 298.557617188 228.15625 307.77734375 291.985351562 c 4
 311.323242188 319.645507812 321.252929688 372.127929688 329.053710938 409.006835938 c 4
 351.749023438 514.680664062 372.31640625 672.127929688 367.3515625 701.915039062 c 4
 364.514648438 718.936523438 366.642578125 732.411132812 371.607421875 738.793945312 c 4
EndSplineSet
EndChar

StartChar: W
Encoding: 87 87 55
Width: 671
Flags: HMW
VStem: 335.108 41.8438 559.221 43.9717
LayerCount: 2
Fore
SplineSet
559.221679688 674.254882812 m 4
 565.604492188 691.276367188 600.356445312 685.6015625 603.193359375 667.162109375 c 4
 607.448242188 643.7578125 606.739257812 526.736328125 602.484375 500.495117188 c 4
 600.356445312 487.020507812 598.228515625 464.325195312 597.51953125 450.849609375 c 4
 597.51953125 437.375 591.13671875 399.077148438 584.75390625 365.744140625 c 4
 568.1015625 287.483398438 565.943359375 196.32421875 522.341796875 157.234375 c 4
 506.739257812 143.758789062 506.739257812 143.758789062 474.82421875 177.801757812 c 4
 457.09375 196.241210938 435.817382812 224.610351562 427.306640625 240.921875 c 4
 419.504882812 256.524414062 410.994140625 271.41796875 408.158203125 273.545898438 c 4
 403.193359375 277.801757812 389.008789062 313.262695312 373.40625 364.326171875 c 4
 367.0234375 384.184570312 359.221679688 401.206054688 356.384765625 401.206054688 c 4
 352.838867188 401.206054688 351.419921875 399.078125 352.12890625 396.241210938 c 4
 353.547851562 392.6953125 350.001953125 381.34765625 345.74609375 369.291015625 c 4
 340.782226562 357.943359375 328.724609375 316.80859375 318.795898438 277.801757812 c 4
 299.647460938 203.333007812 288.299804688 177.801757812 259.930664062 140.212890625 c 4
 235.108398438 107.588867188 210.994140625 111.134765625 189.008789062 150.850585938 c 4
 165.603515625 192.26171875 170.94140625 194.2890625 155.67578125 245.177734375 c 4
 137.244140625 306.608398438 143.249023438 306.34765625 123.760742188 372.836914062 c 4
 109.576171875 421.063476562 108.8671875 424.610351562 106.030273438 447.3046875 c 4
 103.90234375 468.58203125 91.845703125 512.552734375 80.498046875 541.630859375 c 4
 76.9521484375 550.141601562 69.859375 557.234375 64.8955078125 557.234375 c 4
 52.12890625 557.234375 53.5478515625 629.57421875 66.3134765625 645.177734375 c 4
 79.080078125 660.780273438 95.3916015625 647.3046875 95.3916015625 621.7734375 c 4
 95.3916015625 599.962890625 131.081054688 529.388671875 134.3984375 511.134765625 c 4
 138.654296875 470 147.165039062 425.319335938 152.838867188 418.936523438 c 4
 158.512695312 411.84375 168.44140625 370 190.426757812 266.454101562 c 4
 203.193359375 207.588867188 215.958984375 179.928710938 228.724609375 182.765625 c 4
 239.36328125 184.893554688 240.782226562 187.021484375 260.639648438 230.993164062 c 4
 269.859375 252.978515625 281.916992188 294.822265625 280.498046875 300.49609375 c 4
 280.026367188 300.96875 301.356445312 344.467773438 297.51953125 344.467773438 c 4
 295.391601562 344.467773438 296.810546875 350.850585938 301.065429688 359.361328125 c 4
 315.934570312 386.619140625 315.268554688 396.405273438 325.888671875 440.212890625 c 4
 332.98046875 466.454101562 336.526367188 504.751953125 335.108398438 539.50390625 c 4
 332.98046875 593.404296875 333.689453125 596.241210938 349.291992188 598.369140625 c 4
 370.837890625 601.682617188 370.704101562 580.513671875 376.953125 566.454101562 c 4
 385.82421875 544.2734375 384.102539062 534.926757812 389.717773438 504.04296875 c 4
 393.973632812 477.091796875 398.228515625 449.432617188 403.193359375 408.297851562 c 4
 404.611328125 398.369140625 410.994140625 379.928710938 417.377929688 367.872070312 c 4
 423.760742188 355.106445312 428.724609375 340.212890625 428.724609375 333.830078125 c 4
 428.724609375 315.389648438 464.186523438 247.3046875 483.334960938 229.57421875 c 4
 497.51953125 216.099609375 501.065429688 215.389648438 510.28515625 224.610351562 c 4
 519.504882812 233.830078125 525.178710938 253.6875 530.852539062 294.822265625 c 4
 532.271484375 304.751953125 535.817382812 320.354492188 538.654296875 330.283203125 c 4
 544.328125 352.26953125 546.456054688 367.872070312 555.67578125 440.212890625 c 4
 571.987304688 564.326171875 572.696289062 586.3125 563.4765625 624.610351562 c 4
 558.512695312 645.177734375 556.384765625 667.872070312 559.221679688 674.254882812 c 4
EndSplineSet
EndChar

StartChar: X
Encoding: 88 88 56
Width: 466
Flags: HMW
VStem: 341.814 28.3682<650.354 698.227>
LayerCount: 2
Fore
SplineSet
277.983398438 423.404296875 m 0
 277.983398438 414.444335938 313.443359375 382.721679688 313.443359375 373.758789062 c 0
 313.443359375 358.15625 372.30859375 280.850585938 388.62109375 275.177734375 c 0
 410.606445312 266.666992188 411.315429688 237.588867188 390.0390625 222.6953125 c 0
 373.017578125 210.638671875 363.088867188 213.475585938 363.088867188 231.206054688 c 0
 363.088867188 237.588867188 352.450195312 254.610351562 338.975585938 268.084960938 c 0
 326.209960938 282.26953125 309.897460938 304.254882812 302.805664062 317.73046875 c 0
 289.330078125 344.680664062 264.5078125 374.467773438 255.997070312 374.467773438 c 0
 253.16015625 374.467773438 248.1953125 368.084960938 246.067382812 360.283203125 c 0
 243.940429688 352.482421875 237.556640625 341.84375 233.301757812 336.879882812 c 0
 214.862304688 317.021484375 192.875976562 282.26953125 192.875976562 273.049804688 c 0
 192.875976562 267.375976562 186.493164062 257.447265625 178.69140625 250.354492188 c 0
 170.890625 243.262695312 164.5078125 229.787109375 164.5078125 220.567382812 c 0
 164.5078125 212.056640625 161.670898438 204.254882812 158.124023438 204.254882812 c 0
 154.578125 204.254882812 143.23046875 187.234375 133.301757812 167.375976562 c 0
 118.408203125 134.751953125 91.4580078125 97.8720703125 82.947265625 97.8720703125 c 0
 81.5283203125 97.8720703125 75.1455078125 102.836914062 69.4716796875 109.219726562 c 0
 59.54296875 119.149414062 59.54296875 121.985351562 69.4716796875 141.134765625 c 0
 75.1455078125 153.19140625 85.7841796875 168.793945312 92.1669921875 176.595703125 c 0
 103.514648438 189.361328125 192.875976562 342.552734375 219.1171875 393.6171875 c 2
 230.46484375 416.3125 l 1
 176.564453125 496.454101562 l 2
 146.77734375 540.42578125 107.76953125 592.198242188 90.0390625 610.638671875 c 0
 52.4501953125 649.645507812 43.9404296875 681.560546875 70.1806640625 685.106445312 c 0
 81.5283203125 686.524414062 88.62109375 682.978515625 92.8759765625 670.921875 c 0
 96.421875 661.702148438 106.3515625 648.2265625 114.862304688 640.42578125 c 0
 123.373046875 632.624023438 141.8125 610.638671875 155.997070312 590.780273438 c 0
 196.012695312 536.755859375 179.732421875 565.872070312 219.827148438 500 c 0
 248.196289062 453.19140625 246.068359375 453.19140625 272.309570312 505.673828125 c 0
 305.643554688 573.049804688 341.813476562 671.630859375 341.813476562 695.03515625 c 0
 341.813476562 701.41796875 348.905273438 711.34765625 358.125 717.021484375 c 0
 377.983398438 731.206054688 380.8203125 731.206054688 391.458984375 718.439453125 c 0
 397.841796875 710.638671875 397.1328125 704.254882812 385.076171875 687.234375 c 0
 376.565429688 675.88671875 370.181640625 661.702148438 370.181640625 655.319335938 c 0
 370.181640625 645.389648438 351.033203125 590.780273438 334.720703125 555.319335938 c 0
 330.626953125 546.311523438 277.983398438 434.659179688 277.983398438 423.404296875 c 0
EndSplineSet
EndChar

StartChar: Y
Encoding: 89 89 57
Width: 542
Flags: HMW
HStem: 631.063 20G<74.6019 84.5311>
VStem: 384.531 70.9219<568.085 625.373>
LayerCount: 2
Fore
SplineSet
450.48828125 727.659179688 m 0
 459.708007812 739.716796875 483.112304688 738.298828125 488.077148438 725.533203125 c 0
 494.015625 712.166992188 455.452148438 630.887695312 455.452148438 619.858398438 c 0
 455.452148438 614.184570312 451.197265625 606.3828125 446.232421875 602.127929688 c 0
 440.55859375 597.872070312 430.629882812 575.88671875 422.828125 553.900390625 c 0
 415.736328125 531.206054688 401.551757812 498.58203125 391.623046875 480.850585938 c 0
 369.63671875 441.84375 360.416992188 421.276367188 349.069335938 388.65234375 c 0
 344.10546875 375.177734375 333.466796875 349.645507812 324.247070312 331.915039062 c 0
 295.877929688 275.177734375 276.01953125 197.163085938 276.729492188 145.389648438 c 0
 277.438476562 100 276.729492188 97.1630859375 259.708007812 90.0712890625 c 0
 249.779296875 86.5244140625 238.431640625 85.1064453125 235.594726562 87.234375 c 0
 214.317382812 100.708984375 226.375 188.65234375 264.672851562 297.163085938 c 0
 281.693359375 347.517578125 281.693359375 359.57421875 261.8359375 382.26953125 c 0
 234.17578125 415.602539062 208.64453125 447.517578125 159.708007812 512.765625 c 0
 133.466796875 547.517578125 104.388671875 579.432617188 95.8779296875 583.6875 c 0
 87.3671875 588.65234375 73.1826171875 600.708984375 64.6728515625 611.34765625 c 0
 52.615234375 626.241210938 51.197265625 631.915039062 58.2890625 640.42578125 c 0
 63.25390625 646.099609375 71.7646484375 651.063476562 77.4384765625 651.063476562 c 0
 91.623046875 651.063476562 190.204101562 548.2265625 207.225585938 516.3125 c 0
 214.317382812 502.836914062 232.7578125 478.014648438 248.360351562 461.702148438 c 0
 263.962890625 445.389648438 280.984375 424.822265625 286.658203125 416.3125 c 0
 302.260742188 392.198242188 315.736328125 402.836914062 337.721679688 456.737304688 c 0
 348.360351562 483.6875 363.25390625 518.439453125 371.055664062 534.751953125 c 0
 378.147460938 551.063476562 384.530273438 566.666992188 384.530273438 569.50390625 c 0
 384.530273438 572.340820312 395.168945312 597.872070312 408.64453125 626.241210938 c 0
 422.119140625 653.900390625 435.594726562 686.524414062 438.431640625 697.872070312 c 0
 441.268554688 709.219726562 446.232421875 722.6953125 450.48828125 727.659179688 c 0
EndSplineSet
EndChar

StartChar: Z
Encoding: 90 90 58
Width: 812
Flags: HMW
HStem: 181.561 33.333 181.561 41.1348
LayerCount: 2
Fore
SplineSet
243.676757812 656.737304688 m 0x40
 340.83984375 675.177734375 570.626953125 674.467773438 588.357421875 656.737304688 c 0
 601.833007812 643.262695312 594.740234375 625.532226562 562.116210938 590.780273438 c 0
 522.252929688 548.255859375 408.256835938 425.375976562 364.244140625 380.141601562 c 0
 338.711914062 353.900390625 303.250976562 317.021484375 284.811523438 297.872070312 c 0
 265.662109375 278.723632812 250.768554688 260.283203125 250.768554688 256.737304688 c 0
 250.768554688 253.900390625 235.875 232.624023438 217.435546875 209.219726562 c 0
 194.740234375 179.432617188 188.357421875 168.084960938 198.287109375 171.630859375 c 0
 205.37890625 173.758789062 224.52734375 177.3046875 240.130859375 179.432617188 c 0
 255.733398438 181.560546875 289.06640625 186.524414062 314.598632812 190.071289062 c 0
 394.03125 201.41796875 499.705078125 211.34765625 584.102539062 214.893554688 c 0x80
 628.783203125 217.021484375 684.102539062 220.567382812 706.087890625 222.6953125 c 0x40
 740.130859375 226.241210938 747.931640625 224.822265625 751.478515625 214.893554688 c 0x80
 754.315429688 208.510742188 751.478515625 198.58203125 745.094726562 191.489257812 c 0
 735.875 182.26953125 720.272460938 180.850585938 667.790039062 181.560546875 c 0
 523.818359375 185.106445312 255.024414062 154.610351562 225.237304688 131.915039062 c 0
 220.272460938 128.369140625 211.052734375 124.822265625 203.250976562 123.404296875 c 0
 196.159179688 121.985351562 177.009765625 117.021484375 159.989257812 112.765625 c 0
 99.705078125 96.4541015625 101.124023438 123.404296875 164.244140625 207.801757812 c 0
 190.485351562 243.262695312 243.676757812 304.96484375 282.68359375 346.099609375 c 0
 377.266601562 444.059570312 371.37109375 449.569335938 462.825195312 544.680664062 c 0
 498.287109375 581.560546875 527.364257812 616.3125 527.364257812 620.567382812 c 0
 527.364257812 635.4609375 496.868164062 638.297851562 384.102539062 635.4609375 c 0
 244.155273438 631.26171875 244.4921875 618.900390625 138.002929688 594.326171875 c 0
 73.4638671875 579.432617188 70.626953125 579.432617188 61.4072265625 591.489257812 c 0
 56.4423828125 598.58203125 52.896484375 607.801757812 54.3154296875 612.056640625 c 0
 57.15234375 619.149414062 115.307617188 633.333007812 243.676757812 656.737304688 c 0x40
EndSplineSet
EndChar

StartChar: bracketleft
Encoding: 91 91 59
Width: 340
Flags: HMW
HStem: -64.5391 17.0215
VStem: 93.6509 43.2627 95.0699 55.3193
LayerCount: 2
Fore
SplineSet
95.0703125 647.517578125 m 0xa0
 90.7294921875 663.432617188 100.282226562 689.893554688 117.055664062 682.26953125 c 0
 134.786132812 674.467773438 238.333007812 672.340820312 256.063476562 679.432617188 c 0
 275.920898438 686.524414062 285.850585938 680.850585938 295.0703125 657.447265625 c 0
 307.126953125 625.532226562 278.048828125 610.638671875 251.807617188 634.751953125 c 0
 240.459960938 644.680664062 234.786132812 645.389648438 214.928710938 638.297851562 c 0
 201.453125 633.333007812 187.977539062 629.787109375 184.431640625 630.49609375 c 0
 158.190429688 635.4609375 148.970703125 629.078125 150.389648438 607.091796875 c 0xa0
 151.098632812 594.326171875 148.970703125 575.88671875 146.133789062 567.375976562 c 0
 142.587890625 558.15625 138.333007812 527.659179688 136.9140625 500 c 0
 133.368164062 424.11328125 119.18359375 263.830078125 106.41796875 151.063476562 c 0
 100.03515625 96.4541015625 95.0703125 29.787109375 94.361328125 2.1279296875 c 2
 93.6513671875 -47.517578125 l 1
 127.067382812 -52.6357421875 249.047851562 -66.2451171875 281.828125 -72 c 1
 253.828125 -110 l 2
 245.118164062 -121.8203125 52.0810546875 -96.0009765625 49.828125 -74 c 0
 43.6923828125 -14.1005859375 73.236328125 169.665039062 86.5595703125 369.50390625 c 0
 89.396484375 412.056640625 92.2333984375 453.19140625 93.6513671875 460.993164062 c 0xc0
 97.9072265625 480.141601562 98.6162109375 629.787109375 95.0703125 647.517578125 c 0xa0
EndSplineSet
EndChar

StartChar: bracketright
Encoding: 93 93 60
Width: 423
Flags: HMW
HStem: -63.1201 39.0068
VStem: 280.723 34.042
LayerCount: 2
Fore
SplineSet
177.88671875 722.6953125 m 0
 237.4609375 730.49609375 364.411132812 726.241210938 373.630859375 717.021484375 c 0
 380.723632812 709.928710938 380.723632812 701.41796875 372.921875 678.014648438 c 0
 362.560546875 642.491210938 360.118164062 574.463867188 352.354492188 537.588867188 c 0
 348.80859375 524.11328125 345.971679688 507.801757812 345.262695312 502.127929688 c 0
 345.262695312 496.454101562 341.715820312 472.340820312 337.4609375 448.936523438 c 0
 321.1484375 352.482421875 316.184570312 282.978515625 314.765625 119.149414062 c 0
 313.34765625 24.822265625 310.510742188 -53.900390625 307.673828125 -55.3193359375 c 0
 304.127929688 -57.447265625 244.552734375 -60.9931640625 174.340820312 -63.1201171875 c 0
 60.865234375 -66.6669921875 46.6806640625 -65.95703125 42.42578125 -55.3193359375 c 0
 32.49609375 -29.787109375 50.9365234375 -24.11328125 137.4609375 -24.11328125 c 0
 240.297851562 -24.11328125 256.609375 -19.1494140625 261.57421875 17.73046875 c 0
 263.702148438 32.6240234375 265.830078125 49.6455078125 265.830078125 55.3193359375 c 0
 265.830078125 60.9931640625 269.375976562 82.26953125 272.921875 101.41796875 c 0
 276.467773438 121.276367188 280.013671875 168.793945312 280.723632812 207.801757812 c 0
 280.723632812 278.5234375 293.90234375 412.366210938 299.163085938 470.212890625 c 0
 299.872070312 485.815429688 304.127929688 521.276367188 308.3828125 548.2265625 c 0
 319.73046875 630.49609375 322.567382812 678.723632812 316.184570312 682.978515625 c 0
 302 691.489257812 245.971679688 691.489257812 202.708984375 682.978515625 c 0
 152.354492188 672.340820312 136.751953125 677.3046875 140.297851562 703.545898438 c 0
 141.715820312 715.602539062 148.80859375 719.149414062 177.88671875 722.6953125 c 0
EndSplineSet
EndChar

StartChar: a
Encoding: 97 97 61
Width: 580
Flags: HMW
HStem: 133.333 28.3691<95.7167 134.369> 453.759 20G<368.766 383.66>
VStem: 474.795 31.915
LayerCount: 2
Fore
SplineSet
243.588867188 510.141601562 m 4
 295.362304688 534.254882812 322.3125 537.801757812 336.497070312 520.780273438 c 4
 343.588867188 511.560546875 343.588867188 508.723632812 335.078125 503.049804688 c 4
 329.404296875 499.50390625 318.766601562 496.666992188 310.96484375 496.666992188 c 4
 279.049804688 495.95703125 151.390625 411.560546875 151.390625 390.993164062 c 4
 151.390625 388.15625 143.588867188 376.80859375 134.369140625 365.4609375 c 4
 96.0712890625 320.780273438 93.234375 191.702148438 130.823242188 191.702148438 c 4
 137.915039062 191.702148438 144.297851562 188.865234375 144.297851562 184.610351562 c 4
 144.297851562 170.42578125 187.560546875 177.517578125 228.6953125 198.084960938 c 4
 279.049804688 223.6171875 344.297851562 281.7734375 359.901367188 315.815429688 c 4
 372.666992188 342.056640625 374.084960938 442.765625 362.73828125 459.078125 c 4
 354.227539062 469.716796875 363.447265625 503.758789062 374.084960938 503.758789062 c 4
 393.234375 503.758789062 405.291015625 482.482421875 423.73046875 415.106445312 c 4
 443.588867188 341.34765625 482.595703125 230 506.709960938 181.063476562 c 4
 523.021484375 147.021484375 523.73046875 132.836914062 509.546875 120.780273438 c 4
 493.234375 107.3046875 479.758789062 117.234375 474.794921875 147.021484375 c 4
 469.12109375 179.645507812 423.73046875 301.630859375 413.092773438 315.106445312 c 4
 410.255859375 317.943359375 402.454101562 310.850585938 396.071289062 298.084960938 c 4
 374.084960938 256.241210938 303.163085938 193.830078125 247.134765625 167.588867188 c 4
 213.853515625 150.947265625 161.778320312 116.134765625 123.021484375 149.149414062 c 4
 113.801757812 156.950195312 103.873046875 163.333007812 101.036132812 163.333007812 c 4
 90.3974609375 163.333007812 66.2841796875 212.26953125 62.0283203125 242.056640625 c 4
 56.3544921875 281.063476562 74.794921875 347.73046875 101.745117188 386.737304688 c 4
 135.787109375 434.96484375 195.362304688 486.737304688 243.588867188 510.141601562 c 4
EndSplineSet
EndChar

StartChar: b
Encoding: 98 98 62
Width: 496
Flags: HMW
HStem: 175.887 66.666 477.305 43.9717
VStem: 74.8949 35.4609 84.8237 24.8223
LayerCount: 2
Fore
SplineSet
93.333984375 679.291015625 m 4xd0
 106.099609375 692.056640625 112.482421875 689.928710938 121.702148438 670.071289062 c 4
 127.375976562 656.595703125 127.375976562 645.95703125 120.993164062 626.099609375 c 4
 116.73828125 611.206054688 111.7734375 577.163085938 111.064453125 550.212890625 c 6
 109.645507812 501.276367188 l 5xd0
 183.404296875 502.6953125 l 6
 224.5390625 503.404296875 259.291015625 504.822265625 261.418945312 504.822265625 c 4
 263.546875 505.532226562 281.27734375 501.276367188 299.716796875 496.3125 c 4
 325.249023438 489.928710938 345.106445312 476.454101562 375.603515625 447.375976562 c 4
 423.830078125 401.276367188 435.177734375 370.071289062 430.922851562 298.439453125 c 4
 428.0859375 255.177734375 426.666992188 251.630859375 396.879882812 225.389648438 c 4
 379.858398438 209.787109375 355.745117188 193.475585938 342.979492188 187.801757812 c 4
 305.390625 172.198242188 222.412109375 155.88671875 179.858398438 155.88671875 c 4
 147.234375 155.88671875 135.177734375 152.340820312 122.412109375 140.283203125 c 4
 106.099609375 124.680664062 105.390625 124.680664062 92.625 138.865234375 c 4
 81.986328125 148.793945312 77.7314453125 167.234375 74.89453125 216.169921875 c 4xe0
 67.0927734375 322.552734375 69.220703125 597.73046875 77.021484375 619.716796875 c 4
 81.27734375 630.354492188 84.8232421875 645.95703125 84.8232421875 655.177734375 c 4
 84.8232421875 663.6875 88.369140625 674.326171875 93.333984375 679.291015625 c 4xd0
293.333984375 450.921875 m 4
 244.397460938 468.65234375 169.220703125 474.326171875 149.362304688 461.560546875 c 4
 143.688476562 458.014648438 133.049804688 455.88671875 125.958007812 457.3046875 c 4
 111.064453125 460.141601562 95.4619140625 436.737304688 103.971679688 423.262695312 c 4
 106.80859375 419.006835938 109.645507812 382.836914062 110.35546875 343.830078125 c 4xe0
 111.064453125 201.276367188 110.35546875 207.659179688 138.723632812 194.184570312 c 4
 162.127929688 182.836914062 167.801757812 182.836914062 223.12109375 194.184570312 c 4
 255.745117188 200.567382812 291.206054688 209.078125 302.553710938 214.04296875 c 4
 313.192382812 218.297851562 324.5390625 222.552734375 327.375976562 222.552734375 c 4
 329.50390625 223.262695312 346.525390625 236.737304688 364.255859375 252.340820312 c 4
 391.206054688 276.454101562 396.879882812 286.3828125 396.879882812 305.532226562 c 4
 396.879882812 384.254882812 368.510742188 423.262695312 293.333984375 450.921875 c 4
EndSplineSet
EndChar

StartChar: c
Encoding: 99 99 63
Width: 501
Flags: HMW
HStem: 387.234 71.6309
LayerCount: 2
Fore
SplineSet
265.38671875 505.389648438 m 4
 280.990234375 512.482421875 308.649414062 518.865234375 327.088867188 518.865234375 c 4
 355.458007812 519.57421875 362.55078125 516.737304688 372.479492188 501.84375 c 4
 385.954101562 480.567382812 380.28125 467.091796875 361.131835938 477.021484375 c 4
 334.181640625 491.206054688 308.649414062 485.532226562 229.92578125 447.234375 c 4
 180.990234375 423.830078125 170.3515625 416.737304688 147.65625 387.659179688 c 4
 115.7421875 347.234375 104.39453125 315.319335938 107.940429688 276.3125 c 4
 114.323242188 205.389648438 168.223632812 176.3125 297.301757812 175.602539062 c 4
 356.876953125 175.602539062 368.223632812 177.73046875 392.337890625 192.624023438 c 6
 419.997070312 209.645507812 l 5
 433.47265625 193.333007812 l 6
 450.493164062 172.765625 444.110351562 167.091796875 395.883789062 154.326171875 c 4
 249.784179688 117.447265625 111.486328125 153.6171875 71.7705078125 238.014648438 c 4
 53.1005859375 278.46484375 61.2119140625 273.551757812 65.38671875 315.319335938 c 4
 68.2236328125 348.65234375 111.486328125 425.248046875 130.635742188 431.630859375 c 4
 138.436523438 434.467773438 161.131835938 448.65234375 181.69921875 463.545898438 c 4
 202.266601562 479.149414062 222.833984375 491.206054688 227.798828125 491.915039062 c 4
 232.762695312 491.915039062 249.784179688 498.297851562 265.38671875 505.389648438 c 4
EndSplineSet
EndChar

StartChar: d
Encoding: 100 100 64
Width: 451
Flags: HMW
VStem: 306.347 38.2979 332.589 51.0635
LayerCount: 2
Fore
SplineSet
307.056640625 729.645507812 m 4
 313.440429688 740.283203125 335.424804688 739.573242188 344.64453125 728.935546875 c 4
 348.190429688 723.970703125 353.155273438 672.197265625 355.9921875 613.33203125 c 4
 358.120117188 555.176757812 361.666015625 475.034179688 363.793945312 436.02734375 c 4
 365.920898438 397.020507812 368.048828125 352.33984375 367.33984375 337.446289062 c 4
 367.33984375 298.375 378.498046875 303.319335938 383.651367188 267.234375 c 4
 386.248046875 249.583007812 386.18359375 205.447265625 379.842773438 180.552734375 c 5
 383.53515625 174.41796875 384.861328125 168.46484375 382.942382812 165.106445312 c 4
 369.467773438 143.830078125 234.715820312 133.19140625 172.3046875 149.50390625 c 4
 128.377929688 159.486328125 129.524414062 155.404296875 97.8369140625 187.091796875 c 4
 45.3544921875 238.15625 46.064453125 304.11328125 99.96484375 360.141601562 c 4
 152.447265625 414.751953125 245.354492188 436.737304688 296.418945312 406.950195312 c 4
 307.766601562 399.858398438 318.404296875 395.602539062 320.532226562 397.73046875 c 4
 331.170898438 407.659179688 320.532226562 620.42578125 306.34765625 699.858398438 c 4
 304.219726562 711.915039062 304.219726562 725.389648438 307.056640625 729.645507812 c 4
342.041015625 193.50390625 m 4
 339.1015625 221.744140625 335.5859375 259.348632812 332.587890625 272.198242188 c 4
 327.623046875 294.184570312 319.11328125 321.134765625 313.439453125 333.19140625 c 4
 295.708984375 368.65234375 250.318359375 385.673828125 204.21875 374.326171875 c 4
 169.467773438 365.106445312 108.474609375 313.333007812 102.091796875 286.3828125 c 4
 90.03515625 238.865234375 137.552734375 187.091796875 202.80078125 177.163085938 c 4
 254.57421875 168.65234375 316.985351562 175.745117188 338.970703125 191.34765625 c 4
 340.053710938 192.109375 341.075195312 192.828125 342.041015625 193.50390625 c 4
EndSplineSet
EndChar

StartChar: e
Encoding: 101 101 65
Width: 540
Flags: HMW
VStem: 70.4532 39.0068<194.326 243.263>
LayerCount: 2
Fore
SplineSet
258.396484375 493.971679688 m 4
 298.583007812 497.624023438 282.47265625 505.771484375 328.609375 498.936523438 c 4
 397.403320312 490.42578125 430.737304688 440.780273438 415.842773438 367.73046875 c 4
 411.587890625 346.454101562 403.786132812 328.723632812 396.694335938 325.177734375 c 4
 385.346679688 318.793945312 350.594726562 315.248046875 166.198242188 298.2265625 c 6
 109.459960938 293.262695312 l 5
 111.587890625 261.34765625 l 6
 113.715820312 225.177734375 137.120117188 195.389648438 175.41796875 178.369140625 c 4
 224.353515625 157.801757812 401.659179688 173.404296875 432.155273438 201.063476562 c 4
 456.977539062 223.758789062 497.403320312 196.099609375 473.999023438 172.6953125 c 4
 443.502929688 142.198242188 235.701171875 122.340820312 170.453125 144.326171875 c 4
 108.750976562 164.893554688 70.453125 214.5390625 70.453125 274.11328125 c 4
 70.453125 289.006835938 66.9072265625 304.610351562 61.9423828125 309.57421875 c 4
 56.2685546875 315.248046875 58.396484375 323.758789062 71.8720703125 344.326171875 c 4
 81.80078125 359.219726562 99.53125 387.588867188 112.296875 408.15625 c 4
 131.446289062 438.65234375 142.793945312 448.58203125 182.509765625 467.73046875 c 4
 208.750976562 480.49609375 242.793945312 491.84375 258.396484375 493.971679688 c 4
350.594726562 455.673828125 m 4
 308.750976562 471.276367188 193.1484375 442.908203125 155.559570312 406.737304688 c 4
 136.41015625 388.297851562 115.842773438 341.489257812 123.64453125 333.6875 c 4
 127.900390625 328.723632812 313.715820312 347.872070312 343.502929688 356.3828125 c 4
 368.325195312 363.475585938 372.581054688 367.73046875 376.126953125 389.006835938 c 4
 380.381835938 416.666992188 367.616210938 448.58203125 350.594726562 455.673828125 c 4
EndSplineSet
EndChar

StartChar: f
Encoding: 102 102 66
Width: 505
Flags: HMW
HStem: 285.106 41.1348
VStem: 180.495 38.2979
LayerCount: 2
Fore
SplineSet
311.700195312 752.482421875 m 4
 367.01953125 781.560546875 420.211914062 788.65234375 436.524414062 768.793945312 c 4
 452.8359375 748.936523438 439.361328125 736.879882812 401.772460938 736.879882812 c 4
 363.474609375 736.879882812 339.361328125 728.369140625 305.318359375 704.254882812 c 4
 273.705078125 682.5234375 266.545898438 687.528320312 240.778320312 655.319335938 c 4
 222.338867188 630.49609375 220.920898438 624.11328125 218.79296875 546.099609375 c 4
 217.374023438 500.708984375 218.79296875 455.319335938 223.047851562 445.389648438 c 4
 230.140625 424.822265625 230.849609375 424.822265625 364.182617188 450.354492188 c 4
 425.884765625 462.411132812 430.849609375 462.411132812 441.48828125 451.063476562 c 4
 461.345703125 431.915039062 445.034179688 424.822265625 349.998046875 409.219726562 c 4
 302.48046875 401.41796875 257.799804688 393.6171875 252.125976562 391.489257812 c 4
 246.452148438 388.65234375 238.651367188 386.524414062 234.395507812 385.815429688 c 4
 224.291015625 385.815429688 232.840820312 351.061523438 234.395507812 326.950195312 c 4
 239.267578125 276.6171875 248.465820312 229.107421875 255.671875 182.26953125 c 4
 257.799804688 163.830078125 262.764648438 146.80859375 267.01953125 144.680664062 c 4
 282.623046875 134.751953125 262.764648438 98.58203125 241.48828125 98.58203125 c 4
 223.7578125 98.58203125 208.154296875 174.467773438 201.0625 290.071289062 c 4
 201.0625 295.745117188 196.806640625 319.858398438 191.842773438 342.552734375 c 6
 183.33203125 385.106445312 l 5
 125.884765625 385.106445312 l 6
 62.7646484375 385.815429688 44.32421875 394.326171875 58.5087890625 416.3125 c 4
 62.7646484375 422.6953125 71.984375 427.659179688 79.076171875 426.241210938 c 4
 132.267578125 417.73046875 159.927734375 417.021484375 173.40234375 424.11328125 c 4
 181.913085938 429.078125 186.877929688 435.4609375 184.75 439.006835938 c 4
 182.623046875 443.262695312 180.495117188 487.234375 180.495117188 538.297851562 c 4
 180.495117188 668.084960938 193.260742188 689.361328125 311.700195312 752.482421875 c 4
EndSplineSet
EndChar

StartChar: g
Encoding: 103 103 67
Width: 482
Flags: HMW
VStem: 40.371 27.6592 345.335 57.4473
LayerCount: 2
Fore
SplineSet
260.938476562 479.57421875 m 0
 294.243164062 501.779296875 366.36328125 486.529296875 353.845703125 454.751953125 c 0
 350.299804688 445.532226562 343.916992188 443.404296875 325.477539062 446.950195312 c 0
 283.6328125 454.751953125 192.143554688 413.6171875 149.590820312 368.936523438 c 0
 114.129882812 330.638671875 94.271484375 232.056640625 116.2578125 205.106445312 c 0
 137.534179688 180.283203125 229.732421875 212.198242188 312.7109375 273.19140625 c 2
 358.1015625 305.815429688 l 1
 353.845703125 337.73046875 l 2
 351.71875 355.4609375 347.462890625 381.702148438 345.334960938 397.3046875 c 0
 342.498046875 415.03515625 343.916992188 426.3828125 349.590820312 429.928710938 c 0
 368.030273438 441.276367188 384.342773438 427.801757812 402.782226562 383.830078125 c 0
 419.094726562 345.532226562 420.512695312 337.021484375 412.7109375 322.836914062 c 0
 406.328125 311.489257812 404.200195312 280.993164062 405.619140625 227.091796875 c 0
 407.037109375 148.369140625 399.236328125 97.3046875 374.413085938 22.1279296875 c 0
 357.392578125 -27.517578125 339.625976562 -45.578125 305.619140625 -45.248046875 c 2
 74.2958984375 -43 l 1
 70.2958984375 0 l 2
 70.2958984375 0 222.295898438 -31 316.295898438 13 c 0
 408.022460938 55.9365234375 353.09765625 75.9619140625 359.51953125 104.397460938 c 0
 369.44921875 148.369140625 374.413085938 259.716796875 366.612304688 259.716796875 c 0
 364.484375 259.716796875 341.080078125 246.950195312 314.838867188 231.34765625 c 0
 261.647460938 200.850585938 162.356445312 154.04296875 140.37109375 149.078125 c 0
 116.2578125 144.11328125 102.782226562 152.624023438 81.505859375 185.248046875 c 0
 63.0654296875 213.6171875 60.9384765625 222.127929688 62.3564453125 262.552734375 c 0
 63.775390625 287.375976562 69.44921875 317.872070312 75.83203125 329.219726562 c 0
 82.21484375 341.276367188 87.1796875 354.751953125 87.1796875 359.006835938 c 0
 87.1796875 370.354492188 151.008789062 429.928710938 162.356445312 429.928710938 c 0
 167.321289062 429.928710938 180.086914062 437.73046875 191.434570312 446.950195312 c 0
 202.782226562 456.879882812 221.931640625 466.80859375 233.278320312 469.645507812 c 0
 244.625976562 472.482421875 257.392578125 476.737304688 260.938476562 479.57421875 c 0
EndSplineSet
EndChar

StartChar: h
Encoding: 104 104 68
Width: 473
Flags: W
HStem: 138.438 21G<76.2616 99.251>
LayerCount: 2
Fore
SplineSet
98.5419921875 744.11328125 m 4
 106.34375 759.006835938 120.52734375 759.715820312 132.583984375 745.53125 c 4
 138.2578125 738.438476562 138.967773438 725.672851562 135.420898438 705.10546875 c 4
 128.743164062 665.040039062 126.5859375 540.599609375 121.946289062 497.303710938 c 4
 119.458007812 463.723632812 114.807617188 353.853515625 107.76171875 325.672851562 c 4
 103.506835938 306.5234375 116.981445312 303.686523438 123.364257812 322.126953125 c 4
 125.4921875 328.509765625 136.83984375 355.459960938 148.1875 381.701171875 c 4
 165.91796875 419.999023438 174.428710938 431.346679688 195.705078125 441.275390625 c 4
 222.655273438 454.750976562 262.372070312 456.87890625 321.946289062 449.077148438 c 4
 352.442382812 444.821289062 361.662109375 439.857421875 375.137695312 420.708007812 c 4
 389.322265625 401.559570312 391.44921875 385.956054688 395.705078125 305.814453125 c 4
 398.541992188 255.459960938 402.796875 200.849609375 405.633789062 185.247070312 c 4
 409.889648438 161.842773438 407.76171875 154.750976562 396.4140625 144.112304688 c 4
 385.06640625 133.474609375 379.392578125 132.764648438 367.3359375 139.1484375 c 4
 358.825195312 143.403320312 353.861328125 150.495117188 357.407226562 154.750976562 c 4
 363.790039062 165.388671875 360.244140625 351.205078125 353.151367188 378.155273438 c 4
 346.768554688 402.268554688 316.272460938 415.034179688 259.53515625 415.034179688 c 4
 225.4921875 415.744140625 217.690429688 412.907226562 202.796875 396.594726562 c 4
 173.009765625 363.970703125 136.83984375 261.133789062 126.911132812 183.829101562 c 4
 121.946289062 144.112304688 121.237304688 142.694335938 99.2509765625 140.56640625 c 6
 76.5556640625 138.438476562 l 5
 75.8466796875 186.666015625 l 6
 73.96875 256.166992188 66.19140625 373.956054688 72.30078125 422.836914062 c 4
 77.265625 471.063476562 82.2294921875 537.021484375 87.1943359375 639.149414062 c 4
 90.03125 690.212890625 94.99609375 737.021484375 98.5419921875 744.11328125 c 4
EndSplineSet
EndChar

StartChar: i
Encoding: 105 105 69
Width: 206
Flags: HMW
VStem: 67.9171 49.6455 92.7394 24.8232
LayerCount: 2
Fore
SplineSet
90.611328125 639.006835938 m 0x00
 105.504882812 654.610351562 128.200195312 631.915039062 128.200195312 602.127929688 c 0
 128.200195312 584.397460938 122.526367188 583.6875 101.25 598.58203125 c 0
 86.3564453125 609.219726562 80.6826171875 629.787109375 90.611328125 639.006835938 c 0x00
106.923828125 443.971679688 m 0
 133.165039062 472.340820312 146.639648438 460.283203125 136.001953125 419.149414062 c 0
 126.072265625 380.850585938 121.108398438 343.262695312 117.5625 285.815429688 c 0x40
 113.306640625 210.638671875 113.306640625 209.219726562 117.5625 185.815429688 c 0
 120.3984375 168.793945312 117.5625 160.993164062 103.377929688 148.936523438 c 0
 81.3916015625 129.787109375 73.5908203125 129.078125 67.9169921875 146.80859375 c 0x80
 63.6611328125 161.702148438 75.0087890625 311.34765625 85.6474609375 378.723632812 c 0
 89.90234375 401.41796875 92.7392578125 422.6953125 92.7392578125 424.822265625 c 0x40
 92.7392578125 426.950195312 99.1220703125 435.4609375 106.923828125 443.971679688 c 0
EndSplineSet
EndChar

StartChar: j
Encoding: 106 106 70
Width: 496
Flags: HMW
VStem: 54.999 33.334
LayerCount: 2
Fore
SplineSet
369.892578125 590.780273438 m 0
 374.1484375 602.127929688 386.9140625 604.254882812 400.389648438 595.745117188 c 0
 413.155273438 587.943359375 416.701171875 546.80859375 405.353515625 532.624023438 c 0
 396.133789062 520.567382812 394.715820312 520.567382812 384.786132812 534.04296875 c 0
 370.602539062 551.7734375 364.21875 576.595703125 369.892578125 590.780273438 c 0
368.474609375 404.96484375 m 0
 377.694335938 422.6953125 396.842773438 417.021484375 408.900390625 392.908203125 c 0
 421.666015625 365.248046875 431.594726562 217.021484375 423.793945312 168.793945312 c 0
 411.737304688 95.03515625 407.481445312 80.8505859375 397.552734375 70.921875 c 0
 383.521484375 54.88671875 350.650390625 10.01953125 333.014648438 -3.5458984375 c 0
 324.50390625 -10.638671875 313.15625 -21.2763671875 307.482421875 -26.2412109375 c 0
 264.219726562 -70.212890625 206.064453125 -77.3046875 158.545898438 -44.6806640625 c 0
 101.099609375 -4.96484375 55 58.15625 55 97.8720703125 c 0
 55 115.602539062 74.1494140625 154.610351562 82.66015625 154.610351562 c 0
 86.2060546875 154.610351562 88.333984375 136.169921875 88.333984375 113.475585938 c 0
 86.9150390625 65.248046875 101.099609375 41.134765625 155.708984375 -2.1279296875 c 0
 206.064453125 -41.84375 235.8515625 -40.42578125 292.588867188 4.96484375 c 0
 323.084960938 29.078125 359.96484375 73.7587890625 363.510742188 90.0712890625 c 0
 366.7265625 107.751953125 383.16015625 128.654296875 379.822265625 150.354492188 c 0
 379.112304688 159.57421875 381.94921875 171.630859375 387.623046875 178.014648438 c 0
 394.005859375 186.524414062 395.424804688 197.872070312 391.169921875 219.858398438 c 0
 381.823242188 264.712890625 380.369140625 358.71484375 367.765625 380.141601562 c 0
 363.509765625 387.234375 364.21875 397.163085938 368.474609375 404.96484375 c 0
EndSplineSet
EndChar

StartChar: k
Encoding: 107 107 71
Width: 422
Flags: HMW
VStem: 117.243 32.624
LayerCount: 2
Fore
SplineSet
117.243164062 768.793945312 m 0
 130.717773438 785.815429688 148.447265625 777.3046875 149.866210938 753.900390625 c 0
 156.249023438 672.340820312 151.284179688 570.212890625 137.099609375 480.850585938 c 0
 132.844726562 451.7734375 127.879882812 413.475585938 126.461914062 396.454101562 c 2
 123.625 364.5390625 l 1
 147.029296875 385.815429688 l 2
 176.415039062 415.201171875 271.62109375 485.701171875 302.349609375 514.893554688 c 0
 322.916992188 534.751953125 332.13671875 538.297851562 346.321289062 534.751953125 c 0
 356.25 532.624023438 364.760742188 526.241210938 364.760742188 521.276367188 c 0
 364.051757812 513.475585938 266.178710938 429.078125 239.228515625 414.184570312 c 0
 222.20703125 404.96484375 128.58984375 331.206054688 122.20703125 321.985351562 c 0
 112.987304688 308.510742188 115.82421875 306.3828125 160.504882812 292.908203125 c 0
 211.569335938 278.014648438 276.108398438 245.389648438 324.334960938 211.34765625 c 0
 359.795898438 185.815429688 361.923828125 182.26953125 350.576171875 160.993164062 c 0
 340.647460938 142.552734375 325.043945312 143.971679688 310.859375 165.248046875 c 0
 304.4765625 174.467773438 291.001953125 187.234375 281.072265625 192.198242188 c 0
 270.434570312 197.872070312 239.9375 213.475585938 213.696289062 228.369140625 c 0
 154.122070312 260.993164062 107.313476562 266.666992188 103.767578125 241.84375 c 0
 102.349609375 230.49609375 105.186523438 225.532226562 112.987304688 225.532226562 c 0
 122.20703125 225.532226562 123.625976562 221.276367188 120.080078125 202.127929688 c 0
 110.150390625 154.610351562 78.2353515625 129.078125 71.1435546875 163.830078125 c 0
 58.3779296875 225.532226562 62.6328125 292.198242188 84.619140625 385.106445312 c 0
 106.604492188 476.595703125 121.498046875 636.879882812 115.115234375 700.708984375 c 0
 110.150390625 743.262695312 110.859375 761.702148438 117.243164062 768.793945312 c 0
EndSplineSet
EndChar

StartChar: l
Encoding: 108 108 72
Width: 222
Flags: HMW
VStem: 63.1129 56.0283
LayerCount: 2
Fore
SplineSet
126.234375 704.610351562 m 4
 139 724.467773438 146.092773438 725.88671875 158.859375 710.283203125 c 4
 165.951171875 701.7734375 165.951171875 694.680664062 159.568359375 676.950195312 c 4
 149.62890625 647.13671875 129.43359375 407.04296875 125.525390625 370.567382812 c 4
 121.166992188 331.33203125 120.559570312 247.513671875 112.758789062 212.411132812 c 4
 109.212890625 197.517578125 110.630859375 185.4609375 115.595703125 179.078125 c 4
 119.850585938 173.404296875 121.978515625 162.765625 119.141601562 154.254882812 c 4
 115.595703125 143.6171875 108.50390625 140.071289062 90.7734375 140.071289062 c 4
 77.2978515625 140.071289062 65.2412109375 142.908203125 63.11328125 146.454101562 c 4
 60.2763671875 150 63.11328125 173.404296875 68.787109375 198.2265625 c 4
 82.55078125 256.724609375 93.2587890625 415.572265625 97.865234375 448.58203125 c 4
 99.9931640625 464.184570312 104.95703125 524.467773438 108.50390625 581.915039062 c 4
 112.758789062 657.091796875 118.432617188 692.552734375 126.234375 704.610351562 c 4
EndSplineSet
EndChar

StartChar: m
Encoding: 109 109 73
Width: 652
Flags: HMW
VStem: 291.164 57.4473 542.938 43.9717
LayerCount: 2
Fore
SplineSet
145.064453125 314.11328125 m 4
 145.064453125 326.346679688 180.526367188 368.311523438 180.526367188 380.071289062 c 4
 180.526367188 385.745117188 196.12890625 406.3125 214.568359375 426.169921875 c 4
 253.575195312 467.3046875 295.419921875 485.03515625 320.951171875 471.560546875 c 4
 337.97265625 462.340820312 351.448242188 423.333007812 342.9375 406.3125 c 4
 340.100585938 400.638671875 340.100585938 391.41796875 342.9375 386.454101562 c 4
 346.483398438 381.489257812 347.901367188 365.177734375 346.483398438 350.993164062 c 6
 344.35546875 325.4609375 l 5
 369.887695312 353.830078125 l 6
 431.58984375 423.333007812 441.518554688 433.971679688 456.412109375 443.900390625 c 4
 472.015625 455.248046875 491.1640625 453.120117188 515.27734375 438.936523438 c 4
 525.20703125 433.262695312 540.809570312 398.510742188 552.866210938 357.375976562 c 4
 571.305664062 292.836914062 585.490234375 224.751953125 586.909179688 187.163085938 c 4
 588.327148438 166.595703125 585.490234375 161.630859375 572.015625 160.212890625 c 4
 553.575195312 157.375976562 551.448242188 161.630859375 542.9375 226.169921875 c 4
 535.844726562 283.6171875 534.426757812 289.291015625 511.731445312 350.283203125 c 4
 488.327148438 411.985351562 478.3984375 416.950195312 445.064453125 384.326171875 c 4
 430.170898438 369.432617188 411.731445312 346.028320312 403.9296875 331.134765625 c 4
 396.12890625 316.241210938 382.653320312 294.254882812 373.43359375 281.489257812 c 4
 363.504882812 268.014648438 353.575195312 239.645507812 348.611328125 210.567382812 c 4
 338.681640625 153.120117188 333.717773438 144.610351562 312.440429688 144.610351562 c 4
 299.674804688 144.610351562 294.709960938 149.57421875 291.1640625 166.595703125 c 4
 289.036132812 178.65234375 289.036132812 192.127929688 291.1640625 195.673828125 c 4
 301.09375 211.985351562 308.89453125 416.241210938 299.674804688 424.751953125 c 4
 296.837890625 427.588867188 286.909179688 428.297851562 276.979492188 425.4609375 c 4
 253.575195312 419.787109375 212.440429688 363.049804688 174.142578125 282.908203125 c 4
 157.122070312 248.15625 137.97265625 207.73046875 130.880859375 192.836914062 c 4
 123.788085938 178.65234375 119.533203125 165.88671875 121.66015625 163.758789062 c 4
 126.625 158.084960938 81.9443359375 136.099609375 74.8525390625 140.354492188 c 4
 66.341796875 146.028320312 65.6318359375 222.624023438 73.43359375 284.326171875 c 4
 76.9794921875 314.822265625 81.9443359375 374.397460938 84.072265625 416.950195312 c 4
 86.9091796875 459.50390625 91.873046875 498.510742188 96.12890625 504.184570312 c 4
 105.348632812 514.822265625 109.603515625 515.532226562 123.079101562 507.021484375 c 4
 130.170898438 502.056640625 131.58984375 488.58203125 128.043945312 445.319335938 c 4
 120.951171875 366.595703125 118.114257812 329.006835938 114.568359375 302.765625 c 4
 113.150390625 290 115.27734375 279.361328125 118.82421875 279.361328125 c 4
 128.043945312 279.361328125 144.35546875 301.34765625 145.064453125 314.11328125 c 4
EndSplineSet
EndChar

StartChar: n
Encoding: 110 110 74
Width: 470
Flags: HMW
VStem: 95.7505 40.4258<379.433 463.83> 361.708 41.1348
LayerCount: 2
Fore
SplineSet
102.841796875 557.447265625 m 0
 112.0625 568.084960938 120.572265625 568.084960938 126.956054688 558.15625 c 0
 129.79296875 553.900390625 132.629882812 512.765625 134.047851562 467.375976562 c 0
 134.756835938 421.985351562 136.17578125 382.26953125 136.17578125 379.432617188 c 0
 136.884765625 371.630859375 148.94140625 384.397460938 188.658203125 436.169921875 c 0
 208.515625 461.702148438 230.501953125 482.978515625 240.430664062 485.106445312 c 0
 285.821289062 496.454101562 335.465820312 468.793945312 378.01953125 407.091796875 c 2
 402.841796875 370.921875 l 1
 402.841796875 277.3046875 l 2
 402.841796875 177.3046875 397.16796875 157.447265625 372.345703125 173.049804688 c 0
 363.834960938 178.723632812 360.998046875 189.361328125 361.70703125 212.056640625 c 0
 368.799804688 338.297851562 362.416992188 370.212890625 322.700195312 411.34765625 c 0
 308.515625 426.241210938 286.530273438 441.84375 273.0546875 446.099609375 c 0
 244.686523438 455.319335938 229.083007812 444.680664062 206.388671875 399.291015625 c 0
 197.877929688 383.6875 190.076171875 369.50390625 187.239257812 367.375976562 c 0
 159.580078125 345.389648438 129.79296875 270.212890625 114.899414062 189.361328125 c 0
 108.515625 153.900390625 102.1328125 136.879882812 91.4951171875 129.078125 c 0
 79.4375 120.567382812 75.1826171875 120.567382812 67.380859375 128.369140625 c 0
 58.1611328125 138.297851562 58.1611328125 137.588867188 88.658203125 275.177734375 c 0
 92.2041015625 292.908203125 95.75 361.702148438 95.75 427.659179688 c 0
 95.75 500 98.5869140625 551.7734375 102.841796875 557.447265625 c 0
EndSplineSet
EndChar

StartChar: o
Encoding: 111 111 75
Width: 637
Flags: HMW
HStem: 126.241 63.8301<354.942 431.183> 395.745 19.8574 453.9 44.6816
LayerCount: 2
Fore
SplineSet
314.162109375 525.745117188 m 4
 324.091796875 528.58203125 346.787109375 530 363.807617188 528.58203125 c 4
 380.829101562 526.454101562 399.978515625 525.03515625 407.0703125 525.03515625 c 4
 413.453125 525.03515625 432.602539062 512.26953125 450.333007812 496.666992188 c 4
 478.701171875 471.134765625 480.829101562 467.588867188 472.318359375 453.404296875 c 4
 460.970703125 435.673828125 465.2265625 430.708984375 500.6875 419.361328125 c 4
 529.056640625 410.141601562 577.283203125 361.915039062 577.283203125 342.765625 c 4
 577.283203125 312.26953125 546.787109375 269.716796875 500.6875 235.673828125 c 4
 444.659179688 194.5390625 375.864257812 156.241210938 358.133789062 156.241210938 c 4
 351.750976562 156.241210938 342.53125 152.6953125 337.56640625 147.73046875 c 4
 328.346679688 138.510742188 318.41796875 136.3828125 241.822265625 130.708984375 c 4
 170.19140625 125.03515625 132.602539062 135.673828125 99.2685546875 169.716796875 c 4
 56.0068359375 214.397460938 48.205078125 269.006835938 77.283203125 326.454101562 c 4
 114.162109375 398.793945312 234.020507812 500.212890625 314.162109375 525.745117188 c 4
431.18359375 488.15625 m 4
 436.1484375 496.666992188 425.509765625 508.723632812 416.290039062 505.88671875 c 4
 411.326171875 503.758789062 407.0703125 500.212890625 407.0703125 496.666992188 c 4
 407.0703125 488.865234375 426.928710938 481.7734375 431.18359375 488.15625 c 4
374.446289062 464.04296875 m 4
 363.098632812 467.588867188 346.077148438 473.971679688 336.1484375 478.2265625 c 4
 326.219726562 483.19140625 312.03515625 486.028320312 304.233398438 483.900390625 c 4
 290.048828125 481.063476562 256.006835938 459.078125 238.276367188 442.056640625 c 4
 233.311523438 437.091796875 225.509765625 432.836914062 221.963867188 432.836914062 c 4
 204.942382812 432.836914062 117.708984375 330.708984375 104.233398438 295.95703125 c 4
 92.1767578125 264.04296875 93.595703125 249.149414062 111.326171875 212.978515625 c 4
 125.509765625 184.610351562 131.893554688 179.645507812 167.354492188 166.879882812 c 4
 203.524414062 154.822265625 212.744140625 154.11328125 252.4609375 161.915039062 c 4
 323.3828125 174.680664062 373.737304688 190.283203125 394.3046875 205.88671875 c 4
 404.942382812 213.6875 417.708984375 220.071289062 422.672851562 220.071289062 c 4
 439.694335938 220.071289062 515.581054688 283.19140625 530.474609375 308.723632812 c 4
 543.950195312 332.127929688 543.950195312 335.673828125 534.729492188 353.404296875 c 4
 522.672851562 373.971679688 487.211914062 397.375976562 462.389648438 400.212890625 c 4
 453.169921875 400.921875 440.403320312 404.467773438 433.311523438 408.014648438 c 4
 426.219726562 410.850585938 419.126953125 411.560546875 416.290039062 409.432617188 c 4
 412.18359375 403.958007812 371.512695312 425.745117188 368.063476562 425.745117188 c 4
 353.169921875 425.03515625 350.333007812 427.163085938 350.333007812 437.091796875 c 4
 350.333007812 444.893554688 356.006835938 447.021484375 370.19140625 445.602539062 c 4
 396.431640625 442.765625 399.978515625 456.241210938 374.446289062 464.04296875 c 4
EndSplineSet
EndChar

StartChar: p
Encoding: 112 112 76
Width: 469
Flags: HMW
VStem: 58 84.3975 100.554 41.8438
LayerCount: 2
Fore
SplineSet
132.46875 495.03515625 m 0x80
 172.893554688 514.893554688 221.828125 511.34765625 267.217773438 484.397460938 c 0
 316.673828125 456.13671875 307.888671875 458.700195312 349.48828125 420.56640625 c 0
 372.892578125 399.290039062 384.240234375 380.849609375 394.169921875 349.64453125 c 0
 401.970703125 326.240234375 407.64453125 305.672851562 406.935546875 303.544921875 c 0
 384.94921875 236.168945312 351.616210938 196.453125 289.9140625 163.829101562 c 0
 255.162109375 145.388671875 199.133789062 142.551757812 169.346679688 158.155273438 c 0
 152.325195312 166.666015625 148.779296875 166.666015625 145.233398438 158.155273438 c 0
 143.10546875 152.481445312 143.814453125 141.842773438 146.651367188 135.459960938 c 0
 152.299804688 121.340820312 156.77734375 -32.703125 160.836914062 -48.9375 c 0
 164.3828125 -63.12109375 161.545898438 -65.2490234375 140.978515625 -65.2490234375 c 2
 116.865234375 -65.2490234375 l 1
 111.901367188 11.3466796875 l 2
 103.030273438 142.1953125 99.33203125 160.58203125 100.553710938 324.11328125 c 0x40
 101.262695312 406.3828125 97.716796875 422.6953125 85.66015625 400.708984375 c 0
 73.603515625 380.141601562 58 385.815429688 58 412.056640625 c 0
 58 439.716796875 87.787109375 471.630859375 132.46875 495.03515625 c 0x80
245.232421875 448.936523438 m 0
 217.572265625 466.666992188 170.0546875 472.340820312 151.615234375 460.283203125 c 0
 146.650390625 457.447265625 142.395507812 442.552734375 142.395507812 426.950195312 c 0x80
 143.104492188 412.056640625 143.104492188 352.482421875 142.395507812 295.03515625 c 0
 141.686523438 185.815429688 144.5234375 169.50390625 161.543945312 183.6875 c 0
 166.508789062 187.943359375 176.4375 189.361328125 183.530273438 187.234375 c 0
 189.913085938 184.397460938 213.317382812 184.397460938 234.59375 187.234375 c 0
 270.0546875 191.489257812 277.147460938 195.745117188 317.572265625 235.4609375 c 0
 359.416992188 277.3046875 360.834960938 280.141601562 358.70703125 309.219726562 c 0
 357.2890625 326.241210938 353.034179688 345.389648438 349.487304688 352.482421875 c 0
 338.849609375 371.630859375 275.728515625 430.49609375 245.232421875 448.936523438 c 0
EndSplineSet
EndChar

StartChar: q
Encoding: 113 113 77
Width: 611
Flags: HMW
HStem: 416.312 64.5381
VStem: 376.71 56.0283
LayerCount: 2
Fore
SplineSet
384.51171875 497.163085938 m 0
 390.185546875 511.34765625 411.461914062 513.475585938 422.100585938 500 c 0
 426.35546875 495.03515625 431.3203125 463.830078125 432.73828125 431.206054688 c 0
 436.28515625 369.50390625 426.35546875 307.801757812 405.788085938 258.865234375 c 0
 387.348632812 214.184570312 391.603515625 130.49609375 417.135742188 50.3544921875 c 0
 429.192382812 12.056640625 441.958007812 -21.9853515625 445.504882812 -26.2412109375 c 0
 449.759765625 -29.787109375 465.362304688 -19.8583984375 485.9296875 0.708984375 c 0
 509.333984375 24.11328125 525.646484375 34.04296875 539.122070312 34.04296875 c 0
 570.327148438 34.04296875 562.525390625 12.765625 516.426757812 -28.369140625 c 0
 478.837890625 -60.9931640625 470.327148438 -65.248046875 441.958007812 -65.248046875 c 0
 412.170898438 -65.248046875 409.333984375 -63.830078125 405.788085938 -45.3896484375 c 0
 400.829101562 -26.7939453125 373.873046875 45.759765625 373.873046875 67.3759765625 c 0
 373.873046875 74.4677734375 370.327148438 84.3974609375 365.362304688 89.361328125 c 0
 360.3984375 94.326171875 356.142578125 119.149414062 355.43359375 146.099609375 c 0
 354.015625 207.091796875 353.305664062 209.219726562 346.922851562 200.708984375 c 0
 339.122070312 189.361328125 207.20703125 147.517578125 180.965820312 147.517578125 c 0
 145.504882812 147.517578125 113.58984375 158.865234375 95.859375 177.3046875 c 0
 72.455078125 200 54.015625 261.702148438 61.81640625 287.943359375 c 0
 73.873046875 330.49609375 117.135742188 387.234375 158.270507812 414.893554688 c 0
 255.43359375 480.141601562 300.114257812 497.163085938 330.611328125 480.850585938 c 0
 350.46875 470.212890625 349.05078125 460.283203125 326.35546875 450.354492188 c 0
 315.0078125 445.389648438 295.150390625 435.4609375 281.674804688 427.659179688 c 0
 268.19921875 420.567382812 251.178710938 414.893554688 244.0859375 416.3125 c 0
 216.426757812 420.567382812 121.390625 343.971679688 115.717773438 312.765625 c 0
 113.58984375 304.96484375 108.625 291.489257812 103.66015625 283.6875 c 0
 95.859375 270.921875 97.27734375 263.830078125 111.461914062 233.333007812 c 0
 136.994140625 178.723632812 159.688476562 174.467773438 254.015625 204.254882812 c 0
 332.029296875 229.078125 358.270507812 251.063476562 360.3984375 293.6171875 c 0
 361.107421875 304.96484375 364.653320312 325.532226562 367.490234375 339.006835938 c 0
 371.036132812 353.19140625 375.291992188 391.489257812 376.709960938 424.11328125 c 0
 378.12890625 457.447265625 381.674804688 490.071289062 384.51171875 497.163085938 c 0
EndSplineSet
EndChar

StartChar: r
Encoding: 114 114 78
Width: 464
Flags: HMW
HStem: 446.809 44.6807
VStem: 62.7415 32.624 92.5286 51.7734
LayerCount: 2
Fore
SplineSet
247.84765625 504.96484375 m 0xc0
 261.323242188 514.893554688 275.506835938 517.021484375 310.258789062 514.184570312 c 0
 334.372070312 512.056640625 359.1953125 506.3828125 365.578125 501.41796875 c 0
 371.9609375 496.454101562 384.017578125 492.198242188 392.528320312 491.489257812 c 0
 404.584960938 491.489257812 407.421875 487.234375 407.421875 470.212890625 c 0
 407.421875 453.19140625 403.875976562 448.2265625 391.110351562 446.80859375 c 0
 381.890625 445.389648438 368.415039062 449.645507812 362.032226562 455.319335938 c 0
 347.138671875 468.793945312 282.599609375 472.340820312 254.23046875 460.993164062 c 0
 233.663085938 452.482421875 192.528320312 394.326171875 164.869140625 333.333007812 c 0
 148.556640625 298.58203125 145.719726562 281.560546875 144.301757812 215.602539062 c 0
 142.8828125 155.319335938 140.045898438 134.751953125 130.826171875 124.11328125 c 0
 119.478515625 111.34765625 118.76953125 111.34765625 106.00390625 122.6953125 c 0
 95.365234375 132.624023438 92.5283203125 144.680664062 92.5283203125 178.723632812 c 0xa0
 92.5283203125 239.006835938 86.8544921875 275.88671875 69.833984375 333.333007812 c 0
 57.7763671875 373.049804688 56.3583984375 386.524414062 62.7412109375 400.708984375 c 0
 74.0888671875 425.532226562 85.4365234375 418.439453125 95.365234375 379.432617188 c 0
 106.00390625 339.006835938 109.549804688 334.04296875 123.734375 346.099609375 c 0
 130.1171875 351.063476562 132.954101562 356.737304688 131.53515625 358.865234375 c 0
 125.862304688 363.830078125 145.010742188 397.872070312 162.032226562 412.765625 c 0
 170.54296875 420.567382812 176.92578125 429.787109375 176.92578125 434.751953125 c 0
 176.92578125 443.262695312 219.478515625 485.106445312 247.84765625 504.96484375 c 0xc0
EndSplineSet
EndChar

StartChar: s
Encoding: 115 115 79
Width: 435
Flags: HMW
HStem: 455.319 37.5889
LayerCount: 2
Fore
SplineSet
248.166992188 481.560546875 m 0
 268.025390625 489.361328125 296.39453125 493.6171875 322.634765625 492.908203125 c 0
 363.060546875 491.489257812 365.188476562 490.780273438 365.188476562 473.758789062 c 0
 365.188476562 457.447265625 362.3515625 456.737304688 325.471679688 455.319335938 c 0
 280.791015625 453.900390625 224.053710938 436.169921875 201.358398438 415.602539062 c 0
 193.557617188 408.510742188 184.336914062 402.836914062 181.5 402.836914062 c 0
 177.954101562 402.836914062 169.443359375 395.745117188 161.642578125 387.234375 c 0
 143.202148438 365.95703125 153.131835938 358.15625 233.2734375 332.624023438 c 0
 306.323242188 309.219726562 350.294921875 282.978515625 365.897460938 253.19140625 c 0
 389.301757812 207.091796875 343.912109375 155.319335938 269.443359375 144.680664062 c 0
 251.712890625 141.84375 211.997070312 135.4609375 180.791015625 130.49609375 c 0
 131.85546875 121.985351562 121.216796875 121.985351562 101.358398438 131.206054688 c 0
 72.2802734375 144.680664062 53.8408203125 165.248046875 58.8056640625 178.723632812 c 0
 62.3515625 188.65234375 68.025390625 187.943359375 97.103515625 175.177734375 c 0
 124.053710938 163.830078125 138.947265625 161.702148438 170.153320312 165.248046875 c 0
 255.96875 175.177734375 332.564453125 208.510742188 333.2734375 236.169921875 c 0
 333.2734375 251.7734375 217.670898438 302.836914062 177.245117188 304.96484375 c 0
 160.223632812 306.3828125 107.741210938 344.680664062 102.77734375 360.283203125 c 0
 97.103515625 378.723632812 103.486328125 388.65234375 141.075195312 419.858398438 c 0
 175.827148438 448.936523438 199.940429688 462.411132812 248.166992188 481.560546875 c 0
EndSplineSet
EndChar

StartChar: t
Encoding: 116 116 80
Width: 430
Flags: HMW
VStem: 221.452 42.5527
LayerCount: 2
Fore
SplineSet
221.451171875 630.850585938 m 4
 227.125 640.071289062 251.23828125 638.65234375 257.62109375 628.723632812 c 4
 260.458007812 623.758789062 263.294921875 586.879882812 264.00390625 546.454101562 c 4
 264.712890625 505.319335938 268.259765625 469.858398438 272.514648438 465.602539062 c 4
 278.188476562 459.928710938 288.827148438 459.928710938 310.103515625 465.602539062 c 4
 364.00390625 479.078125 390.245117188 454.254882812 360.458007812 417.375976562 c 6
 348.401367188 401.7734375 l 5
 334.92578125 416.666992188 l 6
 318.614257812 435.106445312 283.862304688 436.524414062 274.642578125 419.50390625 c 4
 264.712890625 399.645507812 260.458007812 146.454101562 269.677734375 108.15625 c 4
 273.223632812 95.3896484375 269.677734375 89.0068359375 256.203125 79.787109375 c 4
 243.436523438 71.2763671875 235.635742188 69.8583984375 230.670898438 74.822265625 c 4
 219.323242188 86.169921875 222.16015625 283.333007812 234.216796875 302.482421875 c 4
 236.344726562 306.737304688 235.635742188 311.702148438 232.088867188 314.5390625 c 4
 227.833984375 316.666992188 226.415039062 336.524414062 228.54296875 360.638671875 c 4
 233.5078125 413.120117188 229.251953125 415.248046875 164.712890625 400.354492188 c 4
 103.010742188 385.4609375 61.8759765625 385.4609375 56.912109375 399.645507812 c 4
 48.4013671875 420.921875 68.259765625 431.560546875 117.1953125 432.26953125 c 4
 174.642578125 432.978515625 228.54296875 446.454101562 225.706054688 459.219726562 c 4
 221.451171875 479.078125 217.905273438 625.177734375 221.451171875 630.850585938 c 4
EndSplineSet
EndChar

StartChar: u
Encoding: 117 117 81
Width: 483
Flags: HMW
VStem: 68.5068 39.7158
LayerCount: 2
Fore
SplineSet
278.435546875 534.751953125 m 0
 293.329101562 553.19140625 308.931640625 542.552734375 324.53515625 502.127929688 c 0
 345.102539062 446.099609375 372.76171875 388.65234375 397.584960938 348.2265625 c 0
 430.208984375 295.745117188 428.081054688 263.120117188 389.783203125 221.276367188 c 0
 373.470703125 203.545898438 339.428710938 178.014648438 313.896484375 163.120117188 c 0
 252.903320312 129.078125 172.052734375 101.41796875 161.4140625 112.056640625 c 0
 157.868164062 115.602539062 149.357421875 119.149414062 142.974609375 119.149414062 c 0
 125.953125 119.149414062 90.4921875 160.993164062 79.14453125 193.6171875 c 0
 72.76171875 211.34765625 69.2158203125 256.737304688 68.5068359375 314.184570312 c 0
 67.796875 365.248046875 66.37890625 409.928710938 64.9609375 413.475585938 c 0
 60.705078125 424.822265625 71.34375 451.063476562 81.9814453125 454.610351562 c 0
 105.385742188 463.830078125 109.641601562 448.2265625 108.22265625 356.737304688 c 0
 106.8046875 248.2265625 111.768554688 211.34765625 131.626953125 180.850585938 c 0
 161.4140625 136.879882812 186.946289062 138.297851562 288.364257812 187.943359375 c 0
 384.818359375 235.4609375 404.676757812 274.467773438 364.250976562 339.716796875 c 0
 353.61328125 356.737304688 328.081054688 404.96484375 306.8046875 447.517578125 c 0
 275.598632812 510.638671875 270.633789062 525.532226562 278.435546875 534.751953125 c 0
EndSplineSet
EndChar

StartChar: v
Encoding: 118 118 82
Width: 432
Flags: HMW
HStem: 453.759 20G<73.4796 84.8272>
LayerCount: 2
Fore
SplineSet
325.608398438 467.517578125 m 4
 330.19140625 492.259765625 343.711914062 542.456054688 368.16015625 511.489257812 c 4
 381.634765625 495.177734375 365.323242188 437.021484375 304.330078125 284.5390625 c 4
 300.784179688 276.737304688 293.69140625 254.751953125 287.30859375 235.602539062 c 4
 273.833984375 193.758789062 247.592773438 148.369140625 224.897460938 126.3828125 c 6
 207.166992188 110.780273438 l 5
 188.727539062 127.801757812 l 6
 178.088867188 137.73046875 169.578125 151.206054688 169.578125 158.297851562 c 4
 169.578125 165.389648438 164.614257812 177.447265625 158.940429688 184.5390625 c 4
 145.198242188 201.715820312 160.315429688 205.76953125 147.59375 222.127929688 c 4
 136.955078125 234.184570312 134.827148438 239.858398438 88.01953125 373.900390625 c 4
 68.8701171875 427.091796875 56.1044921875 475.319335938 58.2314453125 482.411132812 c 4
 61.068359375 488.793945312 69.5791015625 493.758789062 77.380859375 493.758789062 c 4
 92.2744140625 493.758789062 100.076171875 480.283203125 110.004882812 440.567382812 c 4
 123.713867188 385.732421875 156.071289062 279.435546875 188.729492188 224.254882812 c 4
 194.403320312 214.326171875 200.786132812 200.850585938 202.9140625 193.758789062 c 4
 206.459960938 183.120117188 210.71484375 186.666992188 227.02734375 211.489257812 c 4
 238.375 228.510742188 247.594726562 246.241210938 247.594726562 251.206054688 c 4
 247.594726562 256.879882812 252.55859375 269.645507812 258.232421875 279.57421875 c 4
 276.672851562 311.489257812 319.225585938 431.34765625 325.608398438 467.517578125 c 4
EndSplineSet
EndChar

StartChar: w
Encoding: 119 119 83
Width: 621
Flags: HMW
HStem: 97.8721 67.376<414.515 423.734>
VStem: 513.806 41.1348
LayerCount: 2
Fore
SplineSet
513.805664062 566.169921875 m 4
 521.607421875 578.2265625 535.791015625 576.80859375 549.266601562 561.915039062 c 4
 558.486328125 551.985351562 559.904296875 544.184570312 554.939453125 527.872070312 c 4
 551.393554688 515.815429688 549.975585938 489.57421875 552.102539062 468.297851562 c 4
 554.939453125 427.163085938 538.627929688 320.780273438 520.897460938 271.84375 c 4
 508.840820312 237.091796875 430.1171875 127.872070312 417.3515625 127.872070312 c 4
 406.712890625 127.872070312 385.436523438 159.787109375 356.358398438 216.524414062 c 4
 345.010742188 239.928710938 329.408203125 265.4609375 321.606445312 273.262695312 c 4
 314.514648438 281.063476562 305.294921875 293.830078125 301.0390625 300.921875 c 4
 294.65625 312.26953125 292.528320312 308.723632812 284.727539062 276.099609375 c 4
 274.797851562 236.3828125 252.102539062 190.283203125 223.025390625 151.276367188 c 4
 179.762695312 95.248046875 140.045898438 121.489257812 124.443359375 216.524414062 c 4
 121.241210938 238.13671875 109.58203125 278.009765625 104.584960938 312.978515625 c 4
 101.3125 337.533203125 94.599609375 341.323242188 88.9833984375 361.915039062 c 4
 85.416015625 381.541992188 80.3828125 400.57421875 75.5078125 420.071289062 c 4
 74.08984375 428.58203125 69.125 438.510742188 64.8701171875 442.765625 c 4
 54.2314453125 453.404296875 56.359375 487.447265625 68.416015625 492.411132812 c 4
 86.146484375 498.793945312 97.494140625 490.283203125 107.422851562 462.624023438 c 4
 115.93359375 439.219726562 120.189453125 422.908203125 132.24609375 361.915039062 c 4
 134.373046875 351.985351562 139.337890625 335.673828125 143.59375 325.745117188 c 4
 147.139648438 315.815429688 149.9765625 304.467773438 149.267578125 300.921875 c 4
 145.720703125 288.15625 159.196289062 223.6171875 168.416015625 205.177734375 c 4
 173.380859375 194.5390625 175.5078125 184.610351562 173.380859375 181.7734375 c 4
 170.543945312 179.645507812 174.08984375 177.517578125 179.763671875 177.517578125 c 4
 203.16796875 177.517578125 251.39453125 261.206054688 258.487304688 314.397460938 c 4
 260.614257812 329.291015625 264.161132812 343.475585938 266.288085938 345.602539062 c 4
 268.416015625 347.73046875 266.998046875 354.822265625 263.451171875 361.206054688 c 4
 259.905273438 369.006835938 261.32421875 381.063476562 268.416015625 395.95703125 c 4
 288.274414062 436.3828125 310.259765625 421.489257812 315.93359375 363.333007812 c 4
 316.642578125 354.822265625 324.444335938 340.638671875 332.955078125 331.41796875 c 4
 341.465820312 322.198242188 348.557617188 310.850585938 348.557617188 305.88671875 c 4
 348.557617188 301.630859375 361.32421875 281.063476562 376.217773438 260.49609375 c 4
 391.111328125 239.928710938 405.295898438 217.234375 406.713867188 209.432617188 c 4
 408.1328125 201.630859375 412.387695312 195.248046875 416.642578125 195.248046875 c 4
 431.536132812 195.248046875 481.181640625 263.333007812 493.23828125 299.50390625 c 4
 510.259765625 353.404296875 520.8984375 429.291015625 513.096679688 444.893554688 c 4
 505.295898438 459.787109375 506.004882812 552.6953125 513.805664062 566.169921875 c 4
EndSplineSet
EndChar

StartChar: x
Encoding: 120 120 84
Width: 509
Flags: W
LayerCount: 2
Fore
SplineSet
142.172851562 542.6953125 m 4
 155.6484375 556.169921875 174.796875 551.206054688 187.563476562 531.34765625 c 4
 193.946289062 520 213.8046875 493.049804688 230.825195312 470.354492188 c 4
 264.868164062 424.96484375 274.796875 424.96484375 293.237304688 468.936523438 c 4
 307.420898438 503.6875 348.555664062 546.241210938 362.03125 541.276367188 c 4
 380.470703125 534.184570312 376.215820312 508.65234375 354.939453125 488.084960938 c 4
 343.591796875 477.447265625 325.861328125 451.206054688 314.513671875 429.928710938 c 6
 294.655273438 390.921875 l 5
 357.776367188 295.177734375 l 6
 392.52734375 242.6953125 428.698242188 184.5390625 437.91796875 166.099609375 c 4
 453.520507812 136.3125 454.229492188 131.34765625 445.009765625 122.127929688 c 4
 437.91796875 115.745117188 427.279296875 113.6171875 414.513671875 115.745117188 c 4
 396.07421875 119.291015625 394.655273438 122.127929688 397.4921875 141.985351562 c 4
 399.620117188 159.006835938 394.655273438 173.19140625 375.506835938 202.978515625 c 4
 273.37890625 361.84375 269.123046875 366.80859375 252.811523438 336.3125 c 4
 247.846679688 327.091796875 231.53515625 307.234375 216.641601562 291.630859375 c 4
 177.633789062 250.49609375 117.350585938 161.84375 122.315429688 152.624023438 c 4
 129.407226562 141.276367188 90.400390625 103.6875 71.2509765625 103.6875 c 4
 34.3720703125 103.6875 54.939453125 144.822265625 149.265625 261.84375 c 4
 181.889648438 301.560546875 216.641601562 346.241210938 227.279296875 361.134765625 c 6
 247.137695312 387.375976562 l 5
 220.896484375 421.41796875 l 6
 206.002929688 439.858398438 182.598632812 467.517578125 167.705078125 483.120117188 c 4
 137.91796875 516.454101562 130.825195312 531.34765625 142.172851562 542.6953125 c 4
EndSplineSet
EndChar

StartChar: y
Encoding: 121 121 85
Width: 534
Flags: HMW
HStem: 425.39 20G<79.9597 91.3074>
VStem: 244.854 42.5527<64.8936 80.8511>
LayerCount: 2
Fore
SplineSet
329.959960938 244.680664062 m 0
 329.959960938 254.4453125 372.512695312 337.877929688 372.512695312 347.516601562 c 0
 372.512695312 361.701171875 414.356445312 439.715820312 430.668945312 457.446289062 c 0
 448.399414062 475.885742188 470.384765625 478.72265625 476.05859375 463.119140625 c 0
 478.895507812 457.446289062 472.512695312 441.842773438 462.583984375 428.368164062 c 0
 439.573242188 398.784179688 410.317382812 328.236328125 390.243164062 296.454101562 c 0
 381.732421875 282.978515625 368.2578125 254.610351562 359.038085938 234.04296875 c 0
 344.853515625 199.291015625 344.143554688 195.03515625 354.782226562 187.234375 c 0
 368.2578125 177.3046875 362.583984375 156.737304688 344.853515625 151.063476562 c 0
 330.668945312 146.80859375 287.40625 87.943359375 287.40625 73.7587890625 c 0
 287.40625 68.7939453125 281.732421875 59.57421875 274.640625 53.19140625 c 0
 267.547851562 46.80859375 249.108398438 17.73046875 233.505859375 -12.056640625 c 0
 211.51953125 -53.900390625 202.299804688 -65.248046875 190.243164062 -65.248046875 c 0
 181.0234375 -65.248046875 173.931640625 -63.830078125 173.931640625 -62.4111328125 c 0
 173.931640625 -56.0283203125 225.704101562 38.2978515625 234.923828125 48.9365234375 c 0
 240.59765625 54.6103515625 244.853515625 63.1201171875 244.853515625 66.6669921875 c 0
 244.853515625 70.212890625 250.52734375 84.3974609375 257.619140625 97.8720703125 c 0
 276.768554688 134.04296875 282.44140625 159.57421875 271.094726562 166.666992188 c 0
 266.129882812 169.50390625 258.328125 180.850585938 254.073242188 192.198242188 c 0
 249.108398438 202.836914062 241.306640625 211.34765625 236.342773438 211.34765625 c 0
 231.377929688 211.34765625 222.158203125 219.149414062 216.484375 228.369140625 c 0
 189.534179688 270.921875 112.938476562 366.666992188 83.1513671875 393.6171875 c 0
 54.7822265625 418.439453125 51.9453125 424.11328125 59.7470703125 434.04296875 c 0
 64.7109375 440.42578125 76.05859375 445.389648438 83.8603515625 445.389648438 c 0
 98.75390625 445.389648438 137.760742188 409.928710938 152.654296875 381.560546875 c 0
 161.165039062 365.95703125 197.3359375 317.73046875 242.725585938 261.702148438 c 0
 253.364257812 248.2265625 271.803710938 231.915039062 283.151367188 224.822265625 c 0
 303.008789062 212.765625 305.845703125 212.765625 317.193359375 223.404296875 c 0
 324.286132812 229.787109375 329.959960938 239.006835938 329.959960938 244.680664062 c 0
EndSplineSet
EndChar

StartChar: z
Encoding: 122 122 86
Width: 533
Flags: HMW
HStem: 77.3047 41.8447
LayerCount: 2
Fore
SplineSet
120.173828125 492.552734375 m 4
 190.38671875 517.375976562 244.99609375 514.5390625 330.811523438 481.915039062 c 4
 376.202148438 464.893554688 388.967773438 450.708984375 382.584960938 425.177734375 c 4
 374.07421875 389.006835938 358.471679688 368.439453125 284.00390625 296.099609375 c 4
 242.159179688 255.673828125 197.478515625 212.411132812 184.00390625 199.645507812 c 4
 171.237304688 186.879882812 163.436523438 175.532226562 166.272460938 173.404296875 c 4
 173.365234375 169.149414062 234.358398438 167.73046875 337.904296875 169.149414062 c 4
 431.521484375 169.858398438 476.202148438 159.928710938 476.202148438 137.234375 c 4
 476.202148438 124.467773438 471.946289062 123.049804688 440.741210938 125.177734375 c 4
 399.606445312 127.3046875 290.38671875 128.723632812 272.65625 127.3046875 c 4
 190.38671875 121.630859375 113.081054688 123.049804688 95.3505859375 132.26953125 c 4
 67.69140625 145.03515625 67.69140625 173.404296875 95.3505859375 179.787109375 c 4
 108.1171875 182.624023438 147.124023438 214.5390625 200.315429688 267.021484375 c 4
 296.76953125 361.34765625 340.741210938 413.120117188 335.776367188 426.595703125 c 4
 334.358398438 431.560546875 310.954101562 442.908203125 285.421875 452.127929688 c 4
 228.684570312 471.985351562 171.946289062 469.858398438 123.010742188 446.454101562 c 4
 86.130859375 428.723632812 73.365234375 428.014648438 61.30859375 442.908203125 c 4
 47.8330078125 458.510742188 65.5634765625 474.11328125 120.173828125 492.552734375 c 4
EndSplineSet
EndChar

